<svg width="360" height="360" viewBox="0 0 360 360" fill="none" xmlns="http://www.w3.org/2000/svg">
<path d="M247.726 231.916C246.338 239.095 243.595 246.008 239.721 252.166C239.284 252.861 239.264 253.747 239.655 254.47L260.082 292.295C260.431 292.94 261.065 293.37 261.784 293.453C266.872 294.039 271.752 296.35 275.542 299.868C277.43 301.622 277.477 304.628 275.717 306.516C266.117 316.812 246.683 328.746 237.452 331.85C235.182 332.614 232.69 331.465 231.817 329.195C229.859 324.109 229.548 318.353 231.03 313.105C231.23 312.397 231.085 311.635 230.634 311.059L204.205 277.322C203.699 276.677 202.889 276.357 202.092 276.502C195.276 277.748 188.228 277.731 181.42 276.432C177.967 275.773 174.573 274.781 171.313 273.444C169.178 272.569 163.977 271.002 167.263 267.906C168.255 266.971 169.636 266.636 170.945 266.299C198.019 259.322 218.76 238.229 238.279 220.349C239.965 218.805 241.797 217.2 244.04 216.87C250.795 215.875 248.96 225.539 247.726 231.916Z" fill="#FFB21E"/>
<path d="M226.297 146.827L185.271 147.783C180.251 147.879 177.716 153.808 181.063 157.49C182.699 160.604 172.474 141.14 214.199 220.559C215.825 223.715 214.821 227.587 211.856 229.548C211.376 229.862 200.096 237.235 200.811 236.768C197.751 238.776 193.687 238.011 191.487 235.094L151.896 180.92C149.744 176.472 143.385 176.52 141.328 181.015C135.495 193.878 129.518 206.644 123.589 219.506C122.633 221.61 121.438 223.954 119.19 224.719C107.81 228.496 103.985 205.736 103.172 199.185C99.9404 172.757 88.206 120.642 88.206 71.7569C88.2637 67.3231 87.6667 61.177 89.4966 56.5997C91.3097 52.1077 94.6345 51.1727 98.7252 50.7179C114.6 49.2359 129.805 62.6239 142.285 70.5615C158.263 80.7356 188.924 100.662 204.254 111.826C212.765 118.042 222.95 123.923 228.496 133.2C231.03 137.36 234.186 146.636 226.297 146.827Z" fill="#F5F1F9"/>
<path d="M86.6279 58.703C86.6757 58.7509 86.6757 58.7987 86.7235 58.8465C87.2064 59.5359 88.2052 59.7075 88.6835 59.4676C88.7322 59.0302 89.0434 57.7331 89.4966 56.5994C91.3098 52.1074 94.6346 51.1724 98.7253 50.7176C101.983 46.3721 104.652 42.0836 106.854 36.1342C107.643 33.8803 104.335 32.6987 103.459 34.891C100.969 41.7003 95.0118 52.2787 88.1582 54.6382C82.4678 46.4141 78.9774 36.8032 77.9729 26.8099C77.6276 24.3958 74.1624 24.8396 74.3867 27.1922C75.4385 37.2339 78.8338 46.8928 84.2848 55.3083C78.2404 55.3083 63.9111 50.7085 52.0573 41.0594C50.1833 39.5356 47.9491 42.3603 49.7622 43.8319C62.3164 54.0287 77.5238 58.8945 84.237 58.8945C85.0496 58.8945 85.8626 58.8466 86.6279 58.703Z" fill="#311255"/>
<path d="M250.211 292.373L244.332 281.47C243.22 279.391 240.041 281.081 241.175 283.17L247.054 294.078C247.666 295.208 248.796 295.978 250.108 296.151C254.75 296.669 259.279 298.78 262.846 302.072C263.976 303.15 264.023 305.042 262.958 306.2C253.353 316.519 233.854 328.216 225.388 331.069C224.024 331.508 222.563 330.836 222.049 329.496C220.195 324.663 219.924 319.34 221.293 314.483C221.624 313.246 221.367 311.901 220.588 310.86L194.144 277.142C193.22 275.97 191.782 275.428 190.311 275.675C178.516 277.844 166.242 275.971 156.247 270.657C174.879 267.275 226.329 232.471 235.137 216.995C236.432 228.738 233.423 241.482 226.751 252.137C225.971 253.36 225.906 254.971 226.588 256.255L232.135 266.486C233.272 268.564 236.427 266.867 235.292 264.777C229.709 254.245 229.46 254.554 229.786 254.056C237.103 242.359 240.316 228.28 238.607 215.458C238.362 213.332 236.502 211.665 234.186 211.93C230.743 211.363 223.155 213.98 213.387 218.981L214.199 220.559C215.825 223.714 214.821 227.587 211.856 229.548L208.469 231.751C208.313 231.362 175.058 167.987 174.794 167.698C172.457 165.121 174.264 161.048 177.675 160.988C183.789 160.988 195.616 160.344 202.858 160.633C211.3 160.979 222.862 161.451 226.607 156.323C229.472 152.352 227.752 146.495 224.664 142.464C220.239 136.711 205.999 127.818 197.712 121.788C175.654 105.721 138.55 82.5847 128.389 75.5835C116.86 67.65 103.813 58.652 89.9543 60.487C89.3752 60.543 88.7915 60.6411 88.5487 60.7205C88.2826 60.7205 88.1425 60.7345 87.8997 60.8513C79.1239 62.6487 78.6662 71.7174 78.7989 80.0335C79.0511 94.7908 78.8861 105.453 81.9368 131.715C82.2042 134.157 85.769 133.607 85.4949 131.304C83.417 113.355 82.4038 97.6094 82.4038 83.1994C82.5702 74.2529 81.0204 64.9433 90.3605 64.0499C102.935 62.3595 115.366 70.9654 126.358 78.5393C137.652 86.3105 173.791 108.812 195.601 124.683C203.57 130.49 217.826 139.469 221.821 144.645C223.877 147.356 225.517 151.693 223.707 154.218C221.097 157.79 209.334 157.309 203.003 157.052C194.234 156.69 185.325 157.402 177.643 157.402C171.183 157.522 167.832 165.074 171.979 169.926C175.822 177.251 158.918 145.033 205.253 233.347C206.08 235.621 205.263 238.133 203.278 239.459L192.23 246.678C189.998 248.153 186.958 247.602 185.338 245.445L145.914 191.55C143.159 185.828 134.911 185.726 132.096 191.69C121.562 215 117.685 222.746 116.561 225.156C113.846 231.147 113.699 232.542 111.485 234.196C111.359 234.243 111.233 234.304 111.117 234.374C108.484 236.038 104.099 235.494 102.268 232.777C99.0608 228.07 90.9347 165.921 88.8665 156.959C88.4677 155.076 85.0508 155.687 85.4344 158.308C88.0134 175.846 91.6684 193.393 93.7974 210.807C94.3327 215.329 96.7527 231.049 99.2981 234.785C102.978 240.246 113.635 241.432 117.747 231.367C120.133 225.589 122.188 222.289 135.351 193.194C136.836 190.057 141.121 189.895 142.85 193.39L177.954 241.423C163.885 251.868 153.759 261.599 151.481 266.869C149.818 269.078 150.677 271.643 152.572 272.771C163.601 279.299 177.591 281.643 191.329 279.36C219.223 315.104 217.981 312.977 217.833 313.536C216.264 319.106 216.572 325.228 218.701 330.78C219.914 333.933 223.357 335.548 226.541 334.464C236.445 331.126 256.071 318.868 265.592 308.637C268.002 306.018 267.876 301.909 265.298 299.457C261.151 295.633 255.903 293.19 250.211 292.373Z" fill="#311255"/>
<path d="M277.214 154.81C285.596 180.964 283.458 210.111 271.345 234.775C270.302 236.905 273.518 238.482 274.567 236.353C287.081 210.867 289.29 180.744 280.633 153.717C279.896 151.464 276.498 152.549 277.214 154.81Z" fill="#311255"/>
<path d="M305.516 163.687C304.612 161.498 301.292 162.861 302.201 165.06C307.879 178.769 308.874 194.202 305.003 208.519C304.39 210.8 307.836 211.751 308.467 209.453C312.539 194.379 311.493 178.125 305.516 163.687Z" fill="#311255"/>
</svg>
