<svg width="168" height="168" viewBox="0 0 168 168" fill="none" xmlns="http://www.w3.org/2000/svg">
<path d="M141.847 105.652C141.578 105.486 142.305 105.51 132.106 104.754C77.0382 101.139 70.3037 103.62 67.2635 101.881C66.792 101.634 66.5002 101.23 66.0964 100.916C59.1334 95.1934 36.2221 77.9422 35.6387 77.73C35.1225 77.5278 34.4041 77.6626 33.9329 77.9098C32.6087 78.6057 32.6537 80.6704 32.4292 81.9275C29.9523 95.3751 25.7607 120.483 25.1122 124.886C24.8875 126.48 25.5161 128.073 26.7956 129.106C58.396 150.794 57.8787 152.701 61.0463 152.763C81.6055 153.212 102.142 154.379 122.567 156.219C124.744 156.421 126.787 155.075 127.438 152.987C127.629 152.605 133.187 133.809 142.274 106.549C142.382 106.19 142.135 105.823 141.847 105.652Z" fill="#311255"/>
<path d="M141.847 105.652C141.578 105.486 142.305 105.51 132.106 104.754C77.0382 101.139 70.3037 103.62 67.2635 101.881C66.792 101.634 66.5002 101.23 66.0964 100.916C59.1334 95.1934 36.2221 77.9422 35.6387 77.73C35.1225 77.5278 34.4041 77.6626 33.9329 77.9098C32.6087 78.6057 32.6537 80.6704 32.4292 81.9275C29.9523 95.3751 25.7607 120.483 25.1122 124.886C24.8875 126.48 25.5161 128.073 26.7956 129.106C58.396 150.794 57.8787 152.701 61.0463 152.763C81.6055 153.212 102.142 154.379 122.567 156.219C124.744 156.421 126.787 155.075 127.438 152.987C127.629 152.605 133.187 133.809 142.274 106.549C142.382 106.19 142.135 105.823 141.847 105.652ZM113.342 126.166C112.239 130.659 107.252 135.733 103.893 138.353C102.502 139.431 100.01 141.787 98.1026 140.733C96.9597 140.109 93.3395 137.348 90.5384 134.134C87.5629 130.7 85.1778 126.584 86.0045 122.081C86.4087 119.904 87.6879 117.839 89.6184 116.739C94.1649 114.167 100.217 117.439 100.639 123.45C100.526 120.914 102.434 118.265 104.769 117.278C107.103 116.313 109.998 116.919 111.726 118.737C113.544 120.667 113.971 123.608 113.342 126.166Z" fill="#FFF1D7"/>
<path d="M143.361 81.0689C116.588 79.1466 100.518 78.4585 73.3458 78.5165C70.3792 78.5165 72.7879 79.1256 52.3151 62.0644C49.4574 59.6832 39.3586 51.3862 36.2895 49.2709C45.625 48.9737 86.3023 48.066 97.067 48.066C98.2337 47.5993 96.8337 46.666 95.9003 46.666C85.3468 46.666 45.3664 47.2972 36.2446 47.5876C35.1379 47.5876 34.4103 48.6312 34.6903 49.614C34.4937 50.3511 32.7357 61.3722 32.6995 61.5991C31.5779 68.6165 31.4124 68.6255 31.7085 69.8904C31.4833 70.4389 32.1724 68.0397 27.7393 89.9576C25.7315 99.8648 23.658 110.11 22.0974 119.877C21.8278 121.746 22.5884 123.658 24.138 124.902C56.4367 147.044 55.2679 148.623 58.8507 148.713C79.2789 149.156 99.957 150.315 120.311 152.158C122.921 152.393 125.285 150.812 126.073 148.325C128.147 141.526 130.051 134.431 131.895 127.568C140.536 95.3654 139.817 101.471 139.924 99.7283C140.424 99.2757 140.852 98.7393 141.094 98.0806C143.038 92.7999 143.923 87.0804 145.896 81.8761C146.015 81.5633 145.947 81.2766 145.783 81.0689C145.731 81.0028 102.575 48.16 101.734 47.5993C101.5 47.4438 99.4003 47.366 100.334 48.2993C101.267 49.2327 143.462 80.9389 143.361 81.0689ZM33.2804 68.5561C34.3019 62.3375 35.0225 57.5697 36.1257 51.1318C39.1985 53.5509 45.9419 58.9526 51.2375 63.3663C70.0215 78.9182 68.929 79.1726 71.3134 79.9511C68.9188 85.6894 67.7188 91.3965 66.7521 96.8011C66.4694 96.6965 66.2047 96.5447 65.9721 96.3469C34.5062 69.8687 32.7916 71.4955 33.2804 68.5561ZM124.467 147.825C123.921 149.55 122.288 150.602 120.462 150.484C81.3354 146.934 61.1277 147.385 58.3556 146.92C60.1826 132.405 61.3926 120.819 66.6669 107.291C67.0712 106.256 65.5001 105.638 65.0975 106.681C59.8107 120.242 58.5715 131.725 56.7424 146.256C53.9365 144.282 42.9294 135.741 25.1419 123.552C24.0899 122.706 23.5748 121.422 23.7611 120.131C26.2098 104.792 29.9353 88.3437 32.9765 72.0489C34.0298 73.0133 46.8559 82.4613 64.8849 97.6335C65.6586 98.2888 66.645 98.6505 67.6686 98.6505C73.2686 98.7217 99.4519 98.2047 136.765 100.875C137.285 100.909 137.364 100.86 137.871 100.76C132.718 116.508 129.146 132.479 124.467 147.825ZM139.516 97.4998C139.119 98.5803 138.069 99.284 136.883 99.1963C114.21 97.5721 91.1586 96.8176 68.4317 96.9688C69.401 91.5691 70.6066 85.873 73.0302 80.1988C98.8033 80.0734 118.312 80.8827 143.851 82.7172C142.061 87.9716 141.195 92.9302 139.516 97.4998Z" fill="#311255"/>
<path d="M91.6084 34.4314C94.9086 39.8575 94.8118 39.7707 94.9707 39.9298C95.6731 40.6333 96.7984 39.7412 96.2857 38.8986L93.0473 33.5584C92.487 32.6106 91.0247 33.472 91.6084 34.4314Z" fill="#311255"/>
<path d="M99.8855 38.3778C99.5891 39.4504 101.204 39.9103 101.506 38.8346L104.131 29.5233C104.429 28.4463 102.81 27.998 102.51 29.0664L99.8855 38.3778Z" fill="#311255"/>
<path d="M106.135 42.7234L112.208 37.9139C113.067 37.2379 112.062 35.8833 111.164 36.5958L105.091 41.4052C104.213 42.0962 105.266 43.4158 106.135 42.7234Z" fill="#311255"/>
<path d="M140.52 141.14L134.577 145.263C133.662 145.894 134.627 147.283 135.537 146.644L141.48 142.521C142.389 141.893 141.442 140.502 140.52 141.14Z" fill="#311255"/>
<path d="M135.068 150.109C134.307 149.295 133.079 150.441 133.837 151.257C137.269 154.799 137.195 155.163 137.848 155.163C138.578 155.163 138.966 154.288 138.464 153.747L135.068 150.109Z" fill="#311255"/>
</svg>
