<svg width="360" height="360" viewBox="0 0 360 360" fill="none" xmlns="http://www.w3.org/2000/svg">
<path d="M245.934 243.317C245.982 253.204 238.032 261.25 228.146 261.299L165.427 261.638C155.539 261.735 147.493 253.738 147.445 243.85L147.105 192.861C147.057 182.974 155.055 174.879 164.942 174.83H168.577L172.599 206.287L182.537 189.758L195.234 208.613L199.792 174.637L227.661 174.491C237.549 174.443 245.594 182.393 245.642 192.28L245.934 243.317Z" fill="#FFB21E"/>
<path d="M294.064 131.209L245.546 147.542C237.889 150.112 229.6 145.991 227.03 138.334L213.75 98.8329C211.182 91.2225 215.301 82.9361 222.96 80.3662L225.772 79.3959L236.918 102.759L240.359 87.394L255.046 98.7842L249.957 71.3023L271.478 64.031C279.136 61.4631 287.424 65.582 289.992 73.241C302.671 111.055 303.388 112.842 303.66 114.198C305.312 121.072 301.437 128.752 294.064 131.209Z" fill="#F5F1F9"/>
<path d="M153.455 62.5765L145.651 95.828C144.15 102.273 137.703 106.247 131.257 104.745L90.4455 95.1486C83.9995 93.6471 79.9767 87.1997 81.5277 80.8017L89.2828 47.5523C90.7854 41.1048 97.2315 37.1314 103.678 38.6328L106.052 39.1676L103.774 60.2511L112.789 51.09L118.121 65.3397L126.409 43.9651L144.537 48.1822C150.983 49.7331 154.958 56.1806 153.455 62.5765Z" fill="#FFB21E"/>
<path d="M316.165 114.195H303.659C303.952 115.407 304.048 116.619 304.001 117.83H316.165C324.802 117.83 331.56 124.746 331.142 132.905L317.619 299.832C317.183 307.44 310.592 313.451 302.643 313.451L64.2246 311.27C56.3235 311.27 49.7804 305.308 49.2958 297.699L37.2272 133.098C36.7267 125.1 43.323 117.88 52.156 117.88H64.9026C67.2979 117.88 67.3864 114.245 64.9026 114.245H52.156C41.4171 114.245 32.9282 123.076 33.6404 133.341L45.7092 297.989C46.2908 307.44 54.4338 314.905 64.2246 314.905L302.643 317.086C312.532 317.086 320.674 309.574 321.254 300.074L334.777 133.147C335.308 122.522 326.553 114.195 316.165 114.195Z" fill="#311255"/>
<path d="M79.9638 157.186C83.5401 157.186 86.438 154.287 86.438 150.711C86.438 147.136 83.5401 144.237 79.9638 144.237C76.3876 144.237 73.4896 147.136 73.4896 150.711C73.4896 154.287 76.3876 157.186 79.9638 157.186Z" fill="#311255"/>
<path d="M101.768 157.186C105.344 157.186 108.242 154.287 108.242 150.711C108.242 147.136 105.344 144.237 101.768 144.237C98.1913 144.237 95.2933 147.136 95.2933 150.711C95.2933 154.287 98.1913 157.186 101.768 157.186Z" fill="#311255"/>
<path d="M234.119 243.121C234.169 252.059 226.96 259.246 218.129 259.295C216.261 259.305 154.83 259.654 155.319 259.654C146.492 259.654 139.288 252.503 139.236 243.665L138.947 192.645C138.898 183.742 146.061 176.521 154.936 176.472C156.805 176.461 218.237 176.112 217.747 176.112C226.574 176.112 233.779 183.264 233.831 192.101L234.119 243.121ZM72.8093 134.464L215.171 134.441L217.485 141.327C220.39 149.97 229.777 154.541 238.298 151.669L276.486 138.832C275.659 167.271 263.421 205.911 237.831 218.366C237.745 218.406 237.691 218.478 237.616 218.529L237.466 192.082C237.404 181.248 228.568 172.477 217.747 172.477C217.256 172.477 155.406 172.824 154.917 172.837C144.016 172.896 135.254 181.763 135.312 192.664L135.601 243.685C135.662 254.519 144.499 263.29 155.319 263.29C155.809 263.29 217.662 262.942 218.148 262.93C229.021 262.868 237.816 253.974 237.754 243.102L237.631 221.502C237.929 221.698 238.268 221.817 238.625 221.817C238.896 221.817 239.165 221.76 239.421 221.632C266.816 208.306 279.619 167.79 280.171 137.594L286.833 135.354C287.562 135.11 288.229 134.76 288.906 134.426H297.039C304.175 134.426 309.859 140.179 309.473 146.95L297.985 288.727C297.625 295.064 292.168 300.025 285.574 300.025L83.0613 298.169C76.5058 298.169 71.0671 293.242 70.6696 286.928L60.4172 147.107C60.2182 143.887 61.3449 140.792 63.5979 138.401C65.9456 135.898 69.3063 134.464 72.8093 134.464ZM215.717 84.4757C267.093 67.4476 264.68 67.488 268.346 67.488C273.55 67.488 278.631 70.7579 280.463 76.2154L293.731 115.696C295.688 121.523 293.243 127.772 288.102 130.791C231.138 150.279 237.658 148.047 237.143 148.224C230.455 150.477 223.181 146.861 220.932 140.172L207.66 100.687C205.411 93.999 209.029 86.7248 215.717 84.4757ZM56.7915 147.353L67.0439 287.174C67.555 295.376 74.5935 301.805 83.0427 301.805L285.555 303.66C294.094 303.66 301.147 297.189 301.61 288.977L313.098 147.201C313.341 142.997 311.855 138.97 308.919 135.856C302.91 129.501 295.14 131.008 293.708 130.791C298.077 125.975 298.967 119.858 297.176 114.541L283.908 75.062C281.018 66.4692 271.735 61.8191 263.096 64.7199L214.561 81.0309C205.97 83.9221 201.328 93.255 204.215 101.842L208.37 114.207L86.1855 114.23C83.7815 114.23 83.7799 117.865 86.1855 117.865L209.592 117.842L213.95 130.806L72.8093 130.829C68.3028 130.829 63.9814 132.68 60.9472 135.912C58.0033 139.045 56.5264 143.103 56.7915 147.353Z" fill="#311255"/>
<path d="M169.006 231.22L152.651 231.271C150.67 231.276 149.069 232.888 149.075 234.869L149.106 244.935C149.111 246.917 150.723 248.518 152.705 248.512L169.058 248.462C171.04 248.456 172.641 246.845 172.636 244.863L172.604 234.797C172.598 232.816 170.987 231.215 169.006 231.22Z" fill="#311255"/>
<path d="M228.595 138.739C229.106 140.273 230.763 141.103 232.299 140.591L244.968 136.371C246.502 135.859 247.332 134.2 246.82 132.666L244.222 124.868C243.711 123.334 242.051 122.504 240.517 123.016L227.849 127.237C226.314 127.747 225.486 129.407 225.996 130.941L228.595 138.739Z" fill="#311255"/>
<path d="M76.7991 79.5084L84.5901 46.2869C85.8976 40.7072 91.456 37.4436 96.7926 38.7138L137.636 48.2884C143.094 49.5666 146.487 55.044 145.209 60.4915L137.419 93.7189C136.116 99.2685 130.575 102.562 125.216 101.288L84.3726 91.7175C78.9085 90.4352 75.5138 84.9838 76.7991 79.5084ZM83.5395 95.2576L124.383 104.828C131.802 106.557 139.222 101.947 140.959 94.5524L148.75 61.3249C150.487 53.9221 145.872 46.4852 138.469 44.7482L97.6257 35.1737C90.1724 33.4347 82.788 38.0507 81.0498 45.4535L73.2587 78.6769C71.5171 86.0937 76.1157 93.5146 83.5395 95.2576Z" fill="#311255"/>
<path d="M84.2132 84.6321L94.857 87.1578C96.1466 87.4623 97.4389 86.665 97.7457 85.3766L99.2995 78.8238C99.6054 77.5354 98.8084 76.2417 97.5181 75.9355L86.8743 73.4098C85.5848 73.1053 84.2924 73.9026 83.9858 75.191L82.432 81.7438C82.1259 83.0322 82.9231 84.3258 84.2132 84.6321Z" fill="#311255"/>
<path d="M125.845 38.7258C148.708 31.9233 180.831 28.9706 202.804 35.7157C219.824 40.9372 234.497 52.8832 243.065 68.4943C244.215 70.5783 247.414 68.8556 246.256 66.7428C237.234 50.3084 221.785 37.7382 203.874 32.2415C181.295 25.3138 148.845 28.0898 124.804 35.2434C122.5 35.9251 123.539 39.4177 125.845 38.7258Z" fill="#311255"/>
<path d="M32.7796 93.0424C30.2567 92.1244 28.122 89.0961 29.0499 86.4198C30.1996 83.1033 35.1272 81.4106 40.4569 84.9669C42.6532 86.4302 44.5418 88.4801 46.2079 90.2884C47.8249 92.0519 50.5136 89.5999 48.8775 87.8261C44.6438 83.2189 39.9175 78.7395 33.4848 79.3917C29.8638 79.7524 26.6973 82.0991 25.6133 85.2326C23.1548 92.3349 32.4046 99.3768 33.8682 95.3718C34.209 94.4297 33.7262 93.3875 32.7796 93.0424Z" fill="#311255"/>
<path d="M45.7393 79.6084C47.6524 81.0227 49.8411 78.1146 47.8977 76.684C44.6222 74.2641 41.9528 71.0413 40.1776 67.3627C39.1318 65.2033 35.8563 66.7731 36.9022 68.9434C38.9328 73.1519 41.9905 76.8395 45.7393 79.6084Z" fill="#311255"/>
<path d="M55.8923 77.828C57.6788 79.4188 60.1193 76.7184 58.3063 75.1117C48.1226 66.0441 45.1007 52.1822 47.0788 46.8014C48.9268 41.7744 54.8372 40.6151 58.8979 48.9231C59.9618 51.0727 63.2215 49.4839 62.1638 47.3224C61.3782 45.7276 60.1049 43.399 58.0979 41.6651C51.4303 35.8726 41.0511 40.458 43.1645 54.4412C44.556 63.4591 49.0763 71.765 55.8923 77.828Z" fill="#311255"/>
<path d="M294.683 323.539C254.951 328.553 229.222 327.836 219.834 328.106C217.441 328.106 217.417 331.731 219.83 331.741C242.683 331.892 269.063 330.438 295.135 327.146C297.497 326.843 297.099 323.292 294.683 323.539Z" fill="#311255"/>
</svg>
