<svg width="360" height="360" viewBox="0 0 360 360" fill="none" xmlns="http://www.w3.org/2000/svg">
<path d="M199.834 177.061C187.866 167.842 174.643 159.625 159.894 155.782C154.137 154.281 151.135 159.074 149.921 163.978C148.123 171.231 148.424 178.638 148.261 186.023C148.078 194.323 146.954 217.779 161.131 214.562C173.028 211.863 183.418 204.525 193.207 197.427C196.139 195.301 199.344 192.779 201.712 190.014C206.202 184.772 205.247 181.23 199.834 177.061Z" fill="#FFB21E"/>
<path d="M227.302 89.4259C246.938 98.0915 253.894 108.306 262.166 108.923C272.677 109.706 281.733 98.6494 290.89 109.667C295.605 115.341 295.044 115.009 304.555 195.063C305.182 200.336 306.946 206.972 304.515 211.998C298.531 224.367 280.14 211.611 272.856 207.251C255.742 197.007 237.645 188.498 220.001 179.224C215.625 176.924 210.704 173.853 210.228 168.933C209.537 161.79 217.922 157.554 220.784 151.789C226.182 140.914 206.055 131.754 198.381 128.641C160.3 113.197 121.947 136.368 111.199 170.208C103.96 193.047 109.845 219.435 125.818 237.276C140.483 253.669 163.134 262.403 185.086 260.768C188.495 260.488 191.578 262.73 192.558 265.999L202.133 297.805C203.441 302.102 200.638 306.586 196.201 307.333C148.469 315.413 95.8799 292.341 72.7611 249.046C50.9033 208.132 55.6672 158.906 82.1954 123.317C117.16 76.4097 179.346 68.2623 227.302 89.4259Z" fill="#F5F1F9"/>
<path d="M295.114 112.59C294.391 106.658 293.569 99.9349 289.344 94.8526C282.671 86.8265 275.654 89.2521 269.463 91.4022C259.427 94.8804 257.02 94.3211 248.008 87.6366C206.369 56.6365 146.987 54.0667 100.886 84.2235C98.9053 85.5198 100.857 88.5282 102.847 87.2257C147.291 58.1426 204.901 60.1028 245.874 90.5174C255.757 97.8492 259.402 98.6966 270.639 94.7896C276.714 92.6931 281.504 91.0333 286.589 97.1451C290.464 101.808 291.006 108.513 291.785 114.881C293.926 131.545 300.296 184.74 300.306 184.809C300.96 189.109 301.703 193.982 299.975 197.549C295.487 206.837 281.811 198.782 272.866 193.272C270.876 192.164 266.432 188.718 234.277 172.38C228.804 169.6 223.337 166.822 217.911 163.969C199.05 154.063 215.437 147.028 219.466 138.917C225.155 127.468 207.994 118.121 196.13 113.312C157.18 97.5249 117.637 121.13 106.568 155.999C99.1631 179.353 105.046 206.359 121.561 224.802C136.361 241.347 159.627 250.58 182.305 248.885C184.784 248.719 187.17 250.344 187.917 252.847L197.494 284.66C198.48 287.886 196.379 291.324 192.979 291.897C144.658 300.061 93.5369 275.95 71.4195 234.533C50.3667 195.128 54.0179 146.53 80.711 110.721C82.1288 108.823 79.263 106.675 77.8348 108.577C50.3152 145.496 46.5519 195.6 68.2537 236.223C90.8951 278.619 143.394 303.927 193.576 295.431C199.074 294.505 202.55 288.938 200.925 283.621L191.354 251.815C190.121 247.704 186.19 244.961 182.025 245.311C160.496 246.915 138.308 238.144 124.231 222.412C108.548 204.893 102.959 179.251 109.986 157.082C120.592 123.678 158.152 101.776 194.785 116.636C206.71 121.471 214.634 127.095 216.52 132.068C219.685 140.425 204.498 144.941 205.52 155.436C206.066 161.072 211.244 164.518 216.24 167.144C233.66 176.295 252.026 184.956 269.014 195.121C276.436 199.684 288.255 207.359 296.65 204.907C299.55 204.06 301.754 202.111 303.206 199.111C305.414 194.544 304.583 189.086 303.85 184.27C302.937 178.321 304.117 185.624 295.114 112.59Z" fill="#311255"/>
<path d="M195.958 167.211C181.213 155.849 168.317 148.988 155.379 145.617C149.132 143.985 144.85 148.89 143.37 154.467C140.286 166.061 139.445 186.571 143.15 198.688C145.177 205.331 149.91 209.383 156.56 207.881C170.304 204.763 181.895 195.823 193.576 187.347C195.509 185.954 193.404 183.053 191.485 184.433C180.214 192.612 168.805 201.426 155.766 204.384C149.981 205.689 147.516 200.724 146.578 197.642C142.987 185.871 144.027 165.958 146.834 155.387C147.18 154.091 149.155 147.692 154.473 149.086C166.93 152.331 179.42 158.994 193.773 170.052C196.355 172.039 197.83 174.21 198.274 176.687C198.688 179.018 202.218 178.396 201.803 176.052C201.201 172.707 199.235 169.73 195.958 167.211Z" fill="#311255"/>
<path d="M99.1911 54.3678C101.13 53.0306 99.1358 50.0733 97.1553 51.4123C64.8407 73.6278 40.9071 108.2 31.4942 146.262C30.9225 148.566 34.4117 149.423 34.9774 147.121C44.1801 109.899 67.5861 76.093 99.1911 54.3678Z" fill="#311255"/>
<path d="M49.106 65.1595C50.8622 63.5767 48.4817 60.9033 46.7061 62.4935C35.6077 72.4713 27.9831 86.0443 25.2377 100.71C24.8001 103.049 28.3294 103.695 28.7582 101.368C31.3635 87.473 38.5866 74.6144 49.106 65.1595Z" fill="#311255"/>
<path d="M283.647 218.579C287.071 233.22 279.9 248.37 266.264 254.941C264.131 255.969 265.681 259.204 267.824 258.172C282.913 250.898 290.958 234.077 287.14 217.762C286.588 215.436 283.112 216.278 283.647 218.579Z" fill="#311255"/>
<path d="M308.785 217.939C308.487 215.619 304.922 216.026 305.228 218.402C306.082 224.934 311.208 229.925 312.917 229.925C314.644 229.925 315.372 227.699 313.973 226.682C311.171 224.642 309.234 221.373 308.785 217.939Z" fill="#311255"/>
<path d="M331.963 194.114C326.364 198.021 318.651 196.973 314.3 191.702C312.782 189.872 310.028 192.16 311.536 193.986C317.039 200.645 326.813 202.072 334.017 197.056C335.955 195.703 333.923 192.767 331.963 194.114Z" fill="#311255"/>
</svg>
