<svg width="360" height="360" viewBox="0 0 360 360" fill="none" xmlns="http://www.w3.org/2000/svg">
<path d="M59.9855 270.246C78.1585 245.364 88.9459 218.375 93.9532 188.208C94.4422 185.263 93.2731 182.555 91.1122 181.578C80.5063 176.783 69.5541 172.959 58.4771 169.349C55.6982 168.443 52.4229 170.464 51.0361 173.929C26.4311 235.396 24.114 238.304 26.2792 244.072C27.4749 247.257 27.5837 246.763 55.5135 267.476L59.9855 270.246Z" fill="#FFB21E"/>
<path d="M319.073 186.444C315.664 191.533 311.343 195.951 307.406 200.656C309.279 197.199 303.805 187.548 301.597 184.811C289.001 165.722 258.924 159.12 237.116 167.431C232.459 169.351 226.361 172.232 226.361 173.289C225.212 165.252 245.319 146.588 272.309 145.489C293.194 144.337 314.08 154.275 323.01 167.911C323.256 168.404 323.508 168.546 323.826 169.399C324.43 171.209 323.756 179.419 319.073 186.444Z" fill="#FFB21E"/>
<path d="M205.956 158.885L204.515 158.837C205.208 149.738 205.95 141.183 202.978 132.526C202.978 132.478 202.93 132.43 202.93 132.382C195.918 111.722 164.092 98.9101 144.451 97.4287C151.749 94.02 158.807 90.3709 166.969 88.0184C175.323 85.5697 184.158 84.081 193.184 83.6491C197.553 83.4568 199.666 86.2414 202.066 88.5459C222.778 109.002 221.774 134.985 205.956 158.885Z" fill="#F5F1F9"/>
<path d="M246.286 164.839C245.302 165.008 243.79 165.307 241.821 165.799C242.205 166.087 242.541 166.375 242.926 166.711C273.03 192.302 281.672 207.906 279.655 210.499C276.871 214.052 254.304 205.409 220.6 180.635C185.118 154.468 161.256 128.301 161.208 120.283C161.208 111.418 196.45 131.947 204.323 137.568C203.987 135.887 203.555 134.206 202.979 132.527C202.979 132.479 202.931 132.431 202.931 132.383C188.815 123.404 166.634 110.825 159.623 116.01C142.378 128.722 242.419 208.948 274.222 214.398L249.734 228.644C247.679 229.839 249.489 232.97 251.544 231.758L281.993 214.044C282.687 213.639 282.987 212.851 282.825 212.11C287.159 204.143 266.347 182.041 246.286 164.839Z" fill="#311255"/>
<path d="M214.178 253.519L229.39 244.646C231.434 243.452 229.653 240.338 227.571 241.533L210.171 251.681C191.238 243.182 173.636 236.098 156.289 226.685C169.741 221.906 184.61 216.357 194.815 206.133C200.585 200.364 206.644 190.146 200.564 184.607C194.984 179.487 183.567 183.96 176.759 186.628C160.233 193.041 149.86 194.137 134.776 194.012L155.66 136.299C156.477 134.059 153.078 132.825 152.274 135.071L130.967 193.953C107.384 193.436 83.5355 189.668 63.6529 176.407C61.6912 175.08 59.6634 178.081 61.6555 179.398C92.321 199.869 145.059 202.899 178.072 189.981C183.703 187.772 194.192 183.665 198.135 187.261C202.204 191.007 196.12 199.736 192.265 203.592C181.902 213.969 165.952 219.443 152.14 224.339C150.438 223.37 148.685 222.457 147.023 221.447C144.978 220.211 143.119 223.29 145.148 224.522C168.204 238.543 194.755 248.157 218.986 259.688C224.003 262.074 229.784 265.474 229.953 270.589C230.185 277.248 222.805 280.128 216.172 280.726C199.976 282.201 183.016 273.126 168.16 265.849C149.972 257.071 133.013 245.012 118.549 234.397C116.626 232.995 114.499 235.889 116.42 237.304C145.907 258.938 156.256 264.129 175.346 273.357C175.315 273.679 175.339 274.009 175.493 274.321C177.863 279.111 170.236 284.273 164.892 283.08C141.312 277.768 129.075 269.042 105.8 251.384C103.918 249.939 101.719 252.81 103.624 254.254C124.278 269.921 137.053 279.055 156.922 284.727C155.992 284.833 155.282 285.622 155.318 286.573C155.458 289.949 154.535 292.11 152.5 293.189C141.645 298.89 105.256 276.98 98.6449 272.066C96.7344 270.639 94.5867 273.527 96.4975 274.954C96.8585 275.222 130.134 297.681 147.975 297.681C155.638 297.681 159.206 293.381 158.919 286.423C158.885 285.648 158.389 285.151 157.641 284.914C162.271 286.206 164.591 286.864 166.552 286.864C172.797 286.864 180.048 281.983 179.404 275.272C191.012 280.673 203.799 285.496 216.496 284.308C228.995 283.19 233.756 276.384 233.554 270.467C233.253 261.413 222.362 257.261 214.178 253.519Z" fill="#311255"/>
<path d="M140.145 301.521C134.396 305.159 126.5 302.496 120.269 299.753C108.599 294.633 97.5616 288.125 87.4621 280.408C66.4833 264.363 69.1651 260.038 27.8403 238.528C25.7288 237.443 24.0631 240.622 26.1805 241.726C73.8836 266.531 65.9222 271.329 95.961 290.696L89.7643 307.818C88.947 310.057 92.3449 311.288 93.1496 309.046L99.079 292.663C105.801 296.785 113.332 300.795 120.652 303.806L84.9302 324.594C82.8756 325.789 84.6849 328.92 86.7401 327.708L125.057 305.409C130.879 307.233 136.896 307.849 142.076 304.559C144.099 303.282 142.132 300.226 140.145 301.521Z" fill="#311255"/>
<path d="M329.499 157.985C329.155 157.505 328.911 157.165 329.255 157.645C318.631 142.444 294.835 132.166 272.733 133.28C255.293 133.872 239.705 140.487 228.614 150.511C225.638 148.233 222.926 146.23 220.413 144.448C233.001 119.665 228.567 96.9075 211.413 80.1496C208.074 76.7387 205.827 74.5935 201.211 74.7459C177.297 75.9311 166.625 82.1284 151.787 88.7183C150.114 89.502 150.586 92.0064 152.42 92.1434C172.223 93.6728 202.731 106.249 209.397 126.029C212.074 133.744 211.536 142.077 210.916 150.176C209.423 153.179 207.793 156.109 205.956 158.885L204.516 158.837C204.9 153.796 205.332 148.658 205.044 143.617C191.264 134.927 181.373 131.134 179.213 132.718C179.117 132.766 179.021 132.862 179.021 133.246C179.021 138.816 195.873 157.204 220.936 175.593C246.671 194.558 260.786 198.543 262.035 196.911C263.139 195.47 257.185 184.763 237.116 167.431C232.459 169.351 226.362 172.232 226.362 173.289C225.929 170.263 228.282 166.471 231.69 162.917C231.032 162.377 230.39 161.875 229.737 161.348C231.172 160.703 232.701 160.06 234.165 159.472C234.383 159.642 234.574 159.774 234.812 159.989C235.384 159.477 235.975 159.018 236.558 158.544C243.529 155.947 251.943 155.209 259.341 155.455C277.679 155.945 294.591 163.827 303.58 176.149C305.718 178.587 311.844 188.495 310.102 190.431C308.46 192.237 311.261 194.765 312.943 192.663C322.478 182.257 330.487 176.177 330.722 161.93C330.749 160.249 330.505 159.415 329.499 157.985ZM226.001 153.052C225 154.117 224.096 155.208 223.32 156.307C221.004 154.542 218.722 152.842 216.515 151.276C217.276 150.075 218.026 148.872 218.71 147.664C220.959 149.264 223.377 151.051 226.001 153.052ZM158.937 89.3114C170.702 83.748 182.293 79.2876 201.384 78.3468C204.264 78.1433 205.762 79.498 208.891 82.726C226.114 99.5373 229.443 122.596 214.738 147.355C215.244 139.872 215.371 132.241 212.806 124.861C206.185 105.216 179.132 92.6825 158.937 89.3114ZM313.52 186.788C312.099 181.433 307.396 175.042 306.393 173.901C291.011 152.794 255.296 144.84 226.608 158.835C226.478 158.732 226.351 158.636 226.221 158.535C232.918 148.996 250.857 137.629 272.883 136.881C293.851 135.809 316.338 145.457 326.47 159.942C327.134 160.948 327.132 160.857 327.122 161.869C326.933 172.943 321.402 178.652 313.52 186.788Z" fill="#311255"/>
<path d="M333.151 80.8271C322.041 79.9535 310.929 82.8913 302.749 90.1998C288.887 83.1073 271.406 88.6509 262.089 103.652C260.832 105.672 263.882 107.575 265.146 105.551C272.856 93.1526 287.394 87.2073 300.044 92.8912C286.38 108.086 292.413 125.663 305.117 125.663C317.582 125.663 321.21 103.595 305.975 92.1692C313.355 86.04 323.156 83.6365 332.87 84.4187C335.253 84.5959 335.524 81.0173 333.151 80.8271ZM303.547 121.9C294.312 120.011 292.444 106.103 303.284 94.6845C316.821 103.709 313.959 124.024 303.547 121.9Z" fill="#311255"/>
<path d="M245.88 64.8973C254.973 80.3505 248.532 94.2574 238.293 108.556C236.901 110.493 239.837 112.588 241.219 110.652C252.585 94.7805 259.222 78.9654 248.252 61.8027C253.893 53.6115 256.251 43.3995 254.746 33.5414C254.383 31.1621 250.825 31.7451 251.183 34.0853C252.491 42.6071 250.611 51.4195 246.011 58.6636C241.356 52.8029 231.849 45.4525 224.635 46.8714C218.45 48.1037 213.899 55.2712 216.106 63.0874C219.344 74.4919 234.629 78.029 245.88 64.8973ZM225.338 50.4021C231.233 49.2369 240.058 56.7444 243.798 61.7629C234.474 73.4092 222.135 71.1551 219.571 62.1052C217.917 56.2713 221.267 51.2134 225.338 50.4021Z" fill="#311255"/>
<path d="M246.935 259.299C250.827 256.941 254.639 254.357 258.268 251.619C260.177 250.181 258.001 247.305 256.102 248.74C252.566 251.404 248.853 253.921 245.069 256.214C243.015 257.455 244.896 260.516 246.935 259.299Z" fill="#311255"/>
<path d="M278.416 259.505L246.199 277.862C244.134 279.034 245.909 282.168 247.981 280.994L280.197 262.637C282.258 261.468 280.51 258.326 278.416 259.505Z" fill="#311255"/>
</svg>
