<svg width="360" height="360" viewBox="0 0 360 360" fill="none" xmlns="http://www.w3.org/2000/svg">
<path d="M172.809 309.038C173.303 311.223 169.235 312.291 167.7 312.973C165.282 314.047 162.797 314.966 160.263 315.725C115.26 329.177 63.6718 289.636 45.0718 227.37C26.4506 165.124 47.8702 103.754 92.8726 90.301C98.0334 88.7547 98.9445 88.518 99.644 89.644C100.208 90.5529 99.7531 90.4641 96.9819 93.3453C56.7095 135.216 59.8767 195.557 86.7589 247.421C104.971 282.558 131.745 309.219 171.129 307.66C172.202 307.617 172.552 307.903 172.809 309.038Z" fill="#F5F1F9"/>
<path d="M187.309 265.79C157.149 278.297 119.967 252.947 106.546 208.261C93.1747 163.527 110.202 121.631 142.19 115.185C168.501 109.894 196.64 130.674 210.734 162.661C210.349 164.777 210.109 166.99 209.964 169.203C209.916 170.694 206.298 179.017 207.5 179.498C208.462 179.835 215.086 180.354 216 180.498C227.945 212.392 219.059 252.598 187.309 265.79Z" fill="#FFB21E"/>
<path d="M291.835 125.984C283.066 121.448 284.71 118.731 285.05 110.067C285.322 103.114 285.692 95.4001 288.43 88.9311C292.18 80.074 299.481 75.7724 305.957 76.1531C313.384 76.5896 319.728 83.1961 318.648 92.4308C317.65 100.972 313.242 102.993 314.594 104.356C315.977 105.749 326.698 102.723 332.23 110.712C338.618 119.94 332.301 131.654 322.029 134.318C321.373 134.488 301.114 130.785 291.835 125.984Z" fill="#FFB21E"/>
<path d="M284.201 130.969C293.71 136.544 304.817 143.469 315.62 141.179C325.58 139.047 333.632 128.244 328.66 117.476C325.379 110.288 319.227 108.818 311.726 108.199L311.148 108.222C319.928 95.5027 314.193 80.6647 301.673 79.338C296.06 78.7508 290.17 81.3062 285.965 86.2197C278.668 94.7555 278.715 106.191 277.66 116.184C277.379 118.879 277.211 120.525 277.434 122.434C260.898 129.622 251.208 133.889 236.183 140.038C220.46 109.127 196.33 86.7147 169.742 78.4596C167.47 77.7507 166.386 81.1946 168.671 81.9074C194.255 89.8513 217.541 111.496 232.83 141.401C217.049 147.801 215.009 147.99 212.172 151.855C208.264 157.811 205.227 169.499 202.892 182.583C197.463 193.351 188.906 196.382 177.5 216.079C155.564 253.947 154.164 170.15 193 188.999C224.525 204.289 153.665 233.595 159 194.999C124.155 185.376 187.472 203.051 187.5 202.999C187.753 202.517 196.099 189.469 195.916 188.999C197.28 177.546 212.136 185.499 225.53 181.52C233.714 179.681 238.41 176.366 244.237 170.416C261.48 230.911 240.576 290.213 197.067 303.23C175.887 309.576 152.494 304.071 131.196 287.738C109.729 271.273 93.0058 245.823 84.1089 216.079C64.3835 149.942 90.9328 80.1315 146.598 78.7179C148.954 78.6512 148.91 75.1104 146.551 75.1104C143.254 75.667 128.54 74.9045 111.733 86.4205C108.622 86.8632 105.502 87.5367 102.448 88.4415C56.54 102.172 34.5515 164.676 53.4209 227.776C69.7115 282.237 111.396 320.032 152.357 320.028C156.848 320.028 161.334 319.572 165.769 318.637C168.057 318.153 167.43 314.675 165.026 315.105C121.909 324.175 74.4231 285.384 56.8782 226.742C38.5772 165.549 59.4806 105.061 103.476 91.8987C104.068 91.7232 104.671 91.5975 105.268 91.4396C54.6529 135.788 67.444 243.393 129.002 290.603C149.15 306.058 173.784 313.967 198.101 306.687C243.998 292.958 265.991 230.468 247.134 167.381C251.222 162.959 247.028 167.029 284.201 130.969ZM281.498 113.925C281.998 107.3 282.566 99.8459 285.392 93.7637C289.119 85.7409 295.73 82.3579 301.293 82.9268C311.389 83.9887 315.502 96.4633 307.681 106.865C306.08 109.019 307.326 111.405 309.631 111.637C317.116 112.259 321.582 112.751 324.592 117.509C328.958 124.509 325.711 132.246 319.218 135.97C309.399 141.576 297.749 134.626 288.084 129.046C284.673 127.059 284.91 127.245 283.484 126.072C279.781 122.764 281.012 120.351 281.498 113.925ZM221.019 178.683C216.66 179.248 213.363 179.638 209.37 178.275C208.872 178.073 208.745 177.993 208.764 177.321C209.17 171.123 210.36 165.881 212.136 160.415C215.171 151.4 216.186 152.003 228.333 147.126C249.219 138.714 258.005 134.804 278.553 125.881C279.246 127.075 280.148 128.077 281.149 128.9C259.026 150.389 276.596 133.292 248.917 160.213C247.719 161.444 235.45 176.587 221.019 178.683Z" fill="#311255"/>
<path d="M38.3282 85.9433C43.7678 87.4512 48.7893 90.3213 52.8432 94.2483C54.5441 95.9042 57.0699 93.3284 55.3516 91.6554C48.9317 85.4372 34.7814 78.0713 27.9705 83.7778C25.3259 86.0138 24.438 90.0583 25.9037 93.1867C27.3552 96.2972 31.0141 98.2371 34.453 97.6257C36.7922 97.2116 36.1902 93.6601 33.8235 94.0745C31.9587 94.3845 29.9529 93.3323 29.1731 91.66C28.3839 89.9831 28.8819 87.733 30.2958 86.5399C32.3814 84.7831 35.8058 85.2481 38.3282 85.9433Z" fill="#311255"/>
<path d="M50.222 78.1075C52.066 79.5931 54.359 76.8228 52.5049 75.3079C47.8075 71.4795 43.6174 67.0452 40.0427 62.1317C38.6231 60.2091 35.7262 62.3203 37.1209 64.2549C40.8789 69.4221 45.2898 74.0819 50.222 78.1075Z" fill="#311255"/>
<path d="M70.2 80.2213L71.0615 79.3787L72.6803 77.6001C69.5425 74.6267 66.2918 71.5499 63.9384 67.9846C53.9772 52.8673 68.1097 40.677 79.266 46.3766C81.4264 47.4453 83.0122 44.2424 80.9101 43.1636C66.5242 35.8069 48.8759 51.732 60.9321 69.9762C63.511 73.8845 66.9118 77.1069 70.2 80.2213Z" fill="#311255"/>
<path d="M71.4918 78.958L71.0614 79.379L70.2517 80.2686L71.4918 78.958Z" fill="#311255"/>
<path d="M233.683 93.6091C226.168 85.9165 230.299 73.8264 240.344 72.0621C240.913 76.426 243.177 80.588 246.869 83.2232C249.039 84.7639 252.449 85.8771 254.939 83.8761C259.591 80.1476 254.749 69.4346 243.881 68.3606C244.561 62.9219 248.64 59.141 253.798 57.768C255.534 67.2607 263.173 71.5313 267.909 68.835C270.586 67.3037 271.751 63.7101 270.558 60.6522C268.7 55.8503 262.489 53.4734 257.147 53.6859C257.311 49.773 258.894 45.8836 261.797 43.1027C263.522 41.4675 261.034 38.8478 259.308 40.4957C255.503 44.1361 253.52 49.1624 253.483 54.1792C246.394 55.833 240.925 61.0348 240.269 68.4264C234.219 69.2626 228.746 73.8426 226.933 79.6015C225.162 85.2384 226.797 91.7256 231.1 96.127C232.765 97.8135 235.351 95.3106 233.683 93.6091ZM252.68 81.0624C251.132 82.3169 245.094 79.1149 243.952 72.0058C247.71 72.5225 254.398 79.6832 252.68 81.0624ZM267.195 61.9628C267.674 63.1888 267.401 64.9738 266.114 65.7066C263.679 67.1033 258.685 64.0401 257.401 57.2513C259.42 57.2607 265.933 58.6838 267.195 61.9628Z" fill="#311255"/>
<path d="M325.762 212.759C322.098 212.256 318.735 210.189 316.362 207.319C318.265 205.938 319.862 204.153 320.947 202.044C324.642 194.848 320.026 189.028 315.226 189.676C310.24 190.244 306.963 197.68 311.228 206.088C306.698 207.842 301.785 207.06 298.315 203.477C305.484 196.505 302.82 185.665 297.216 185.401C291.944 185.261 288.522 194.35 293.284 202.673C285.071 206.722 275.395 199.727 276.327 189.831C276.554 187.431 272.957 187.167 272.738 189.492C272.188 195.27 274.767 201.147 279.3 204.463C283.932 207.855 290.532 208.32 295.422 205.623C300.11 210.808 307.014 211.822 313.168 209.146C316.104 212.947 320.435 215.671 325.273 216.329C326.181 216.48 327.163 215.821 327.303 214.788C327.439 213.802 326.748 212.89 325.762 212.759ZM297.014 189.004C297.023 189.004 297.037 189.004 297.047 189.009C299.002 189.092 300.587 195.722 296.159 200.508C292.996 194.541 295.389 189.004 297.014 189.004ZM314.404 204.322C311.364 198.26 313.407 193.246 315.85 193.246C319.714 193.246 319.956 200.097 314.404 204.322Z" fill="#311255"/>
<path d="M186.493 224.851C181.338 230.005 174.314 232.197 169.852 236.757L168.179 238.431L166.458 236.805C152.408 223.146 108.801 202.374 118.355 173.019C121.606 163.121 132.269 156.809 143.171 158.435C151.491 159.678 159.333 165.464 163.493 172.971C165.262 168.524 167.557 165.033 170.33 162.547C181.311 152.613 198.646 160.166 204.853 173.545C214.27 193.801 200.101 211.039 186.493 224.851Z" fill="#311255"/>
</svg>
