<svg width="360" height="360" viewBox="0 0 360 360" fill="none" xmlns="http://www.w3.org/2000/svg">
<path d="M268.953 284.142L261.122 288.797C260.31 289.279 259.301 288.61 259.428 287.675C260.998 276.155 261.037 276.864 260.628 276.341L255.442 269.7C254.826 268.912 255.464 267.773 256.458 267.885C268.485 269.249 268.213 269.338 268.71 269.026L275.641 264.662C276.486 264.13 277.556 264.879 277.344 265.856C275.335 275.107 275.243 274.849 275.627 275.415L281.049 283.399C281.59 284.196 280.947 285.261 279.99 285.153C268.927 283.909 269.434 283.856 268.953 284.142Z" fill="#F5F1F9"/>
<path d="M42.6426 90.4524L32.7108 96.3555C31.6816 96.9672 30.4011 96.1192 30.5628 94.9329L32.3751 81.6323C32.4272 81.25 32.3226 80.8628 32.0851 80.5588L25.5071 72.1365C24.7267 71.1374 25.5358 69.692 26.7956 69.8349C42.7591 71.6451 41.7389 71.6561 42.3342 71.2814L51.1242 65.7474C52.1969 65.0721 53.5529 66.0226 53.2839 67.2613C50.6942 79.19 50.6282 78.6786 51.107 79.3837L57.9833 89.5093C58.6698 90.5202 57.8545 91.8708 56.6402 91.7343C42.4447 90.1382 43.2253 90.1061 42.6426 90.4524Z" fill="#FFB21E"/>
<path d="M82.7671 304.405L26.9688 260.435C25.975 259.652 25.8042 258.211 26.5874 257.217L42.8493 236.581C43.6324 235.588 45.0728 235.417 46.0665 236.2L101.865 280.171C102.859 280.954 103.029 282.394 102.246 283.388L85.9843 304.024C85.2012 305.018 83.7608 305.189 82.7671 304.405Z" fill="#F5F1F9"/>
<path d="M301.906 249.619L330.615 184.637C331.126 183.48 330.603 182.127 329.445 181.616L305.413 170.998C304.255 170.487 302.903 171.011 302.391 172.168L273.682 237.15C273.171 238.307 273.695 239.66 274.852 240.171L298.885 250.789C300.042 251.3 301.395 250.776 301.906 249.619Z" fill="#FFB21E"/>
<path d="M333.188 192.658C301.235 189.414 281.547 158.542 254.555 148.264C246.774 145.291 247.73 145.013 238.804 141.186C238.8 140.9 238.752 140.613 238.605 140.345C225.184 115.861 218.194 90.3843 203.567 90.9074C201.117 91.0688 198.907 92.1943 197.076 94.0859C194.571 90.407 191.945 86.4801 187.861 83.8623C179.283 78.3543 170.048 82.9394 169.988 90.6796C161.565 89.5233 155.159 98.9099 163.171 111.977C167.529 119.276 173.752 125.588 181.173 130.229C182.023 130.764 183.132 130.506 183.658 129.66C184.188 128.815 183.93 127.702 183.089 127.171C176.148 122.831 170.333 116.937 166.256 110.108C159.758 99.5226 164.334 92.5511 170.737 94.5004C174.354 95.5994 177.242 97.9291 180.295 100.39C185.96 104.978 198.321 114.083 221.051 134.118C201.21 126.234 196.457 129.011 188.575 134.728C176.584 143.421 165.224 153.403 165.247 168.256C158.185 155.269 143.598 151.852 129.1 149.819C119.505 148.449 113.965 148.234 100.146 164.454C111.075 135.513 116.589 124.357 120.378 115.5C122.436 110.708 125.543 103.627 130.735 104.03C132.487 104.218 134.107 105.35 135.314 107.229C136.916 109.685 137.559 113.085 137.287 117.646C136.874 125.372 134.577 133.094 130.646 139.974C129.456 142.051 132.597 143.841 133.774 141.768C139.207 132.259 144.222 114.28 138.344 105.265C135.006 100.086 129.345 99.0026 124.894 102.213C121.214 95.395 110.921 95.6438 105.903 104.537C103.519 108.777 103.036 113.544 102.555 117.888C95.8579 115.71 90.6119 120.101 88.45 126.481C87.3838 129.599 87.0832 132.802 86.8437 136.09C86.0398 147.066 87.6779 167.316 87.5247 178.215C87.5206 178.523 87.6134 178.799 87.7461 179.055C81.7876 186.453 82.5197 186.531 77.1261 192.686C66.0396 205.406 62.4427 218.116 54.6099 234.529C37.7572 269.891 25.0937 266.96 27.9559 271.23C28.5148 272.065 29.6421 272.282 30.4546 271.727C46.5576 260.985 55.1481 242.563 62.7306 225.295C75.9522 195.131 77.6886 199.094 84.6315 189.163C90.6064 180.606 94.8943 176.321 100.488 169.639C114.725 152.618 118.276 151.943 128.598 153.388C141.659 155.231 156.49 158.35 162.541 170.696C163.454 172.52 159.805 175.647 157.309 176.313C151.081 177.954 144.455 172.447 137.616 171.339C129.138 169.963 119.848 175.106 115.475 183.565C111.798 190.69 111.319 199.74 114.122 209.045C123.407 239.79 150.35 229.874 170.136 241.772C182.118 248.979 182.854 260.906 180.539 262.48C179.056 263.477 175.736 262.274 171.54 260.568C153.438 253.264 134.39 262.212 117.208 263.292C106.593 263.968 102.357 267.378 96.8759 274.766C76.213 302.883 76.6565 301.543 76.6565 302.665L76.6518 303.374C76.633 304.37 77.4267 305.192 78.4225 305.21C78.4319 305.21 78.446 305.21 78.4554 305.21C79.437 305.21 80.2401 304.426 80.2589 303.44C103.351 273.844 101.97 267.878 117.434 266.89C135.421 265.765 153.127 257.044 170.192 263.912C177.424 266.865 180.225 267.045 182.559 265.467C187.443 262.171 186.174 247.211 171.996 238.681C150.827 225.949 126.164 236.479 117.579 208.002C115.043 199.6 115.433 191.507 118.678 185.218C122.356 178.107 130.058 173.753 137.038 174.899C143.616 175.966 150.42 181.894 158.239 179.798C161.608 178.895 165.943 175.563 166.217 171.655C166.559 172.138 166.897 172.624 167.416 173.025C170.023 175.031 174.236 175.472 176.866 174.867C184.772 173.05 187.978 164.648 193.31 160.607C198.922 156.338 207.775 156.559 214.356 161.133C225.628 168.939 229.856 187.874 224.209 200.088C219.144 211.06 200.908 219.024 192.286 233.336C183.556 247.855 189.869 261.977 196.057 261.977C199.688 261.977 202.858 258.187 205.197 255.378C205.693 254.944 210.568 247.563 225.529 242.114C234.767 238.749 244.526 236.852 253.705 232.712C267.764 226.372 269.348 232.213 303.585 247.436L303.664 247.577C304.808 249.694 307.97 247.937 306.83 245.858C306.519 245.375 306.427 244.795 305.675 244.439C271.7 229.381 268.294 222.17 252.221 229.424C236.141 236.687 215.579 237.459 202.933 252.466C198.613 257.869 197.044 258.553 195.888 258.361C193.023 258.058 188.209 247.121 195.376 235.196C203.194 222.218 222.079 213.295 227.488 201.6C233.775 187.977 229.292 167.101 216.413 158.17C208.588 152.731 197.959 152.552 191.13 157.733C185.54 161.959 182.352 169.905 176.059 171.353C173.557 171.918 168.856 170.876 168.802 168.841C168.37 155.034 180.264 145.209 190.689 137.65C193.93 135.301 196.875 133.329 200.195 132.962C208.692 132.045 220.868 138.169 228.808 141.088C243.367 146.453 243.338 147.853 253.273 151.636C279.24 161.542 299.877 192.901 332.822 196.246C335.348 196.348 335.438 192.882 333.188 192.658ZM109.05 106.303C110.713 103.349 113.418 101.344 116.114 101.071C118.563 100.792 121.579 102.434 122.104 104.987C119.059 108.737 117.563 113.12 115.841 116.862C107.524 135.582 106.926 137.536 105.214 141.71C105.115 133.542 105.048 113.408 109.05 106.303ZM90.4414 136.353C90.6622 133.31 90.9393 130.355 91.8645 127.645C93.5253 122.747 97.2379 119.474 102.15 121.53C102.169 121.537 102.188 121.534 102.206 121.541C101.415 131.134 101.562 140.807 101.764 150.223C96.0736 164.562 93.412 172.107 93.2319 172.589C92.4886 173.426 91.837 174.241 91.1278 175.068C91.0085 163.94 89.7344 145.992 90.4414 136.353ZM199.134 97.1165C200.453 95.5009 202.022 94.6226 203.802 94.5098C214.35 93.949 221.478 115.06 233.908 139.181C232.93 138.797 231.936 138.416 230.924 138.038C229.131 136.446 224.696 132.29 212.891 122.243C208.677 113.85 204.289 105.261 199.093 97.1494C199.105 97.1353 199.122 97.1306 199.134 97.1165ZM182.559 97.5862C179.886 95.4281 177.099 93.2611 173.76 91.8338C173.033 89.3399 174.91 86.5065 177.219 85.5766C179.736 84.5574 183.061 85.0647 185.912 86.8964C192.79 91.3137 202.16 109.146 205.88 116.377C190.022 103.214 187.938 101.916 182.559 97.5862Z" fill="#311255"/>
<path d="M42.3423 83.8201L40.5293 97.1165C40.1541 99.7938 43.0546 101.726 45.381 100.339L55.2067 94.5005L68.1885 95.9611C69.4378 96.0927 70.659 95.5103 71.3212 94.4159C71.9788 93.3215 71.9459 91.983 71.2273 90.9262L64.4029 81.0865L66.7935 70.0773C67.4056 67.3123 64.373 65.1176 61.9135 66.6534L53.3607 72.1298L38.7492 70.4718C35.9371 70.1422 34.0614 73.4076 35.8325 75.6758L42.3423 83.8201ZM52.9522 75.7134C54.8887 75.9398 55.3401 74.8036 63.0784 70.1807L60.8756 80.3397C60.3889 82.6832 62.1488 83.4696 67.7845 92.2835C55.9623 91.1487 55.0785 90.3718 53.4735 91.3348L44.2068 96.8441C45.5675 84.6587 46.7033 83.7643 45.2589 81.8802L39.2235 74.1588L52.9522 75.7134Z" fill="#311255"/>
<path d="M268.213 266.664L270.04 258.257C270.294 257.102 269.829 255.918 268.861 255.237C267.889 254.565 266.63 254.528 265.611 255.157L259.12 259.422L247.594 258.111C244.949 257.869 243.383 260.814 244.955 262.832L249.966 269.252L248.571 279.453C248.247 281.873 250.855 283.622 252.977 282.37L260.609 277.833L270.721 278.97C273.281 279.194 274.856 276.452 273.478 274.404L268.213 266.664ZM258.965 274.616L252.338 278.556L253.583 269.435C253.838 267.414 252.344 266.803 248.787 261.878C258.003 262.737 259.012 263.539 260.609 262.573L266.175 259.065C265.06 265.294 263.893 266.706 265.066 268.454L269.669 275.222C260.901 274.419 260.418 273.759 258.965 274.616Z" fill="#311255"/>
<path d="M159.859 76.2865C159.888 76.2865 159.916 76.2865 159.939 76.2865C160.935 76.2396 161.705 75.3941 161.663 74.4031L160.85 56.5132C160.803 55.5175 159.798 54.8318 158.967 54.7896C157.971 54.8365 157.201 55.6819 157.243 56.6729L158.056 74.5628C158.103 75.5303 158.901 76.2865 159.859 76.2865Z" fill="#311255"/>
<path d="M142.796 76.9159C143.857 79.0367 147.084 77.4315 146.018 75.3002L137.076 57.4103C136.017 55.2825 132.783 56.8839 133.854 59.026L142.796 76.9159Z" fill="#311255"/>
<path d="M111.788 76.0422C132.103 87.7892 131.285 87.6713 132.21 87.6713C134.047 87.6713 134.705 85.2347 133.121 84.3084L113.606 72.9235C112.746 72.4256 111.638 72.7074 111.135 73.5717C110.633 74.4359 110.924 75.5396 111.788 76.0422Z" fill="#311255"/>
</svg>
