<svg width="360" height="402" viewBox="0 0 360 402" fill="none" xmlns="http://www.w3.org/2000/svg">
<path d="M252.434 194.308C245.162 216.135 235.836 222.991 226.95 255.411C225.266 261.554 223.04 270.648 216.648 281.197C212.255 288.445 202.98 303.75 186.204 307.288C184.128 307.726 176.768 309.074 168.758 306.537C152.067 301.25 144.566 282.899 133.624 256.686C102.765 182.759 101.363 182.439 100.615 171.325C99.8094 159.366 98.3442 132.518 113.271 104.879C118.861 94.5273 137.902 59.2708 174.355 55.2876C206.822 51.7398 233.761 75.1124 246.469 95.0879C272.077 135.342 255.23 185.914 252.434 194.308Z" fill="#FFB21E"/>
<path d="M204.68 379.606C202.966 373.097 199.216 367.691 194.266 363.618C202.971 362.594 211.485 359.823 219.215 355.311C220.183 354.746 220.111 353.446 219.215 352.867C215.223 350.284 210.986 348.146 206.593 346.452C211.659 344.413 216.481 341.73 220.9 338.413C221.758 337.769 221.891 336.589 220.9 335.968C216.444 333.177 211.706 330.938 206.796 329.262C212.523 326.518 217.864 322.909 222.587 318.475C223.39 317.721 222.966 316.409 221.95 316.11C215.018 314.07 207.92 312.716 200.768 312.048C208.598 307.879 215.123 301.675 219.638 294.148C224.055 286.785 226.51 278.528 229.11 270.435C235.46 250.664 242.415 230.504 246.173 209.927C247.392 206.374 248.572 202.807 249.695 199.219C252.363 190.698 254.746 182.098 257.057 173.477C258.862 166.745 260.794 159.973 261.818 153.073C263.373 142.601 263.358 131.614 261.957 121.142C259.86 105.466 253.939 90.3866 243.378 78.2938C232.811 66.193 218.266 57.5087 202.71 53.0918C172.101 44.4001 138.675 53.6602 118.611 78.1913C107.163 92.1888 99.404 110.15 97.5564 128.076C96.7207 136.182 97.5484 144.263 98.8369 152.279C100.355 161.721 102.139 171.146 104.667 180.383C105.892 184.859 107.292 189.282 108.848 193.649C114.365 221.426 129.05 247.124 143.146 271.496C147.551 279.113 151.669 287.073 156.795 294.258C160.845 299.933 165.934 305.141 172.534 307.896C179.434 310.776 187.377 310.625 194.267 307.792C200.958 305.04 206.005 299.785 209.921 293.927C214.802 286.627 218.18 278.445 221.684 270.459C225.441 261.895 229.182 253.324 232.802 244.703C234.506 240.644 236.171 236.57 237.795 232.481C234.471 244.456 230.62 256.297 226.824 268.126C224.227 276.22 221.88 284.529 217.591 291.959C213.104 299.73 206.48 305.996 198.379 310.089C197.249 310.661 196.096 311.173 194.932 311.656C183.18 311.172 171.361 312.53 159.963 315.733C158.306 316.199 158.792 318.347 160.347 318.514C172.108 319.773 184.411 318.913 195.423 314.516C203.256 314.884 211.056 316.093 218.682 318.141C213.862 322.295 208.452 325.597 202.687 328.004C188.872 324.237 173.979 324.821 160.348 330.077C159.06 330.573 158.9 332.366 160.348 332.806C174.469 337.106 189.504 336.304 202.826 331C207.945 332.475 212.907 334.577 217.591 337.3C212.863 340.578 207.731 343.147 202.366 344.975C188.965 340.775 174.365 340.617 160.733 344.797C159.32 345.23 159.408 347.059 160.733 347.527C174.244 352.296 189.002 352.316 202.394 347.974C207.002 349.491 211.458 351.512 215.672 354.023C207.935 358.141 199.434 360.522 190.81 361.116C185.932 358.005 180.24 356.006 174.328 355.296C169.59 354.728 164.62 354.733 159.915 355.627C158.741 355.85 158.462 357.708 159.57 358.214C169.278 362.645 179.844 364.548 190.268 363.966C201.014 371.509 206.5 386.192 198.937 397.771C197.95 399.282 196.811 400.656 195.557 401.91H199.207C204.361 395.946 206.95 388.223 204.68 379.606ZM101.935 153.425C100.592 145.458 99.6431 137.422 100.326 129.343C100.922 122.302 102.669 115.375 104.999 108.703C112.848 86.2228 128.741 66.2123 151.87 57.5421C182.648 46.0047 219.569 55.6481 241.068 79.9924C258.318 99.5245 262.826 127.845 258.952 152.852C257.936 159.408 256.113 165.847 254.398 172.251C252.492 179.37 250.532 186.473 248.412 193.531C248.838 188.6 249.03 183.646 248.933 178.666C248.788 171.277 247.926 163.972 246.954 156.652C247.376 151.775 247.729 146.902 248.038 142.054C248.81 129.923 249.002 117.147 244.662 105.573C239.977 93.0755 230.126 82.8811 218.846 75.7408C204.355 66.5673 186.599 62.4046 169.54 65.6393C155.616 68.2794 143.285 75.9084 133.888 86.1928C127.784 92.8728 122.742 100.557 119.022 108.75C115.915 115.59 114.058 122.661 113.219 129.836C112.98 130.641 112.746 131.448 112.525 132.257C108.552 146.788 105.944 161.795 106.725 176.874C104.742 169.14 103.262 161.293 101.935 153.425ZM109.636 177.399C108.981 165.908 110.365 154.54 112.79 143.346C113.065 149.095 113.89 154.862 115.161 160.585C118.992 177.844 125.487 194.828 132.328 211.146C138.009 224.7 144.781 237.801 152.558 250.315C162.553 266.401 174.181 281.47 187.048 295.45C187.701 296.159 188.834 295.888 189.315 295.164C203.636 273.639 216.37 249.724 221.579 224.347C224.068 212.221 223.167 198.118 215.889 187.633C209.619 178.6 198.239 172.918 187.5 177.319C184.356 176.652 181.043 176.694 178.005 177.477C166.642 180.406 156.944 190.468 153.637 201.375C149.67 214.459 154.165 228.501 159.922 240.372C165.59 252.059 172.748 263.235 181.657 272.802C182.913 274.151 184.95 272.144 183.699 270.8C176.817 263.41 171.267 255.114 166.334 246.381C161.419 237.681 157.137 228.368 155.575 218.469C153.834 207.432 156.683 196.712 164.758 188.65C169.505 183.912 176.433 179.552 183.422 179.6C180.452 181.816 178.186 184.979 177.694 188.657C177.036 193.568 179.83 198.547 183.887 201.315C193.673 207.995 203.871 197.052 200.031 187.16C198.564 183.381 195.656 180.615 192.145 178.904C202.634 176.976 211.893 184.764 216.128 193.813C221.178 204.607 220.555 216.903 217.741 228.156C212.024 251.018 200.844 272.413 187.884 292.126C166.027 268.106 147.927 240.758 135.358 210.979C128.906 195.693 122.925 179.842 118.88 163.775C116.117 152.8 114.822 141.571 116.023 130.567C119.969 117.402 126.347 105.064 137.262 96.0554C149.716 85.7772 166.384 80.7165 182.551 81.0132C198.152 81.2991 213.933 86.8994 224.533 98.4277C234.246 108.991 238.367 123.157 240.992 136.83C242.179 143.013 243.27 149.288 244.136 155.599C243.158 167.116 241.826 178.668 239.69 189.963C237.258 202.831 233.382 215.362 228.91 227.677C223.069 243.768 216.559 259.66 209.965 275.466C205.849 285.332 197.806 305.711 183.411 297.695C177.267 294.273 172.517 288.375 168.154 283.067C162.637 276.353 157.406 269.392 152.156 262.475C135.649 240.727 120.815 218.077 111.594 192.637C110.608 187.614 109.928 182.531 109.636 177.399ZM187.861 180.266C188.213 180.373 188.565 180.489 188.915 180.624C193.122 182.246 197.095 185.467 197.862 190.058C198.746 195.339 194.826 201.888 188.686 200.426C184.027 199.317 180.258 194.382 180.489 189.694C180.703 185.391 184.035 182.065 187.861 180.266ZM243.04 132.438C240.063 118.536 235.059 104.491 224.512 94.3132C201.178 71.7955 160.373 73.9261 135.932 93.4758C129.817 98.3677 125.008 104.306 121.217 110.855C121.256 110.767 121.292 110.678 121.331 110.59C130.054 90.9137 146.728 73.4885 168.657 68.7069C185.452 65.0442 203.076 69.1253 217.39 78.1856C228.491 85.2127 238.235 95.4144 242.435 107.89C246.245 119.209 245.873 131.499 245.073 143.24C245.069 143.299 245.065 143.359 245.061 143.418C244.473 139.743 243.82 136.079 243.04 132.438ZM231.891 239.456C228.545 247.551 225.067 255.593 221.56 263.621C218.052 271.65 214.736 279.837 210.458 287.512C206.872 293.944 202.362 300.301 195.707 303.969C189.007 307.663 180.552 308.267 173.483 305.226C166.668 302.295 161.654 296.538 157.716 290.521C153.001 283.316 148.878 275.687 144.583 268.235C135.795 252.989 127.124 237.548 120.435 221.281C119.643 219.355 118.885 217.415 118.157 215.463C120.02 219.189 121.999 222.861 124.087 226.476C132.312 240.706 142.078 254.002 152.076 267.07C157.553 274.229 162.947 281.499 168.855 288.325C173.052 293.175 177.815 298.496 183.896 301.091C197.672 306.968 205.96 291.61 210.487 281.481C217.918 264.855 224.579 247.738 230.876 230.668C235.686 217.63 239.895 204.366 242.475 190.716C243.784 183.79 244.81 176.769 245.635 169.717C245.908 173.526 246.065 177.332 246.071 181.124C246.089 190.67 245.024 200.134 243.273 209.493C239.801 219.593 235.974 229.572 231.891 239.456ZM170.433 316.211C175.609 315.255 180.837 314.679 186.076 314.477C180.972 315.657 175.703 316.188 170.433 316.211ZM165.633 331.258C176.182 328.054 187.272 327.598 197.873 329.778C187.581 333.088 176.425 333.665 165.633 331.258ZM166.274 346.26C176.522 343.929 187.131 344.047 197.206 346.493C187.139 348.982 176.476 348.955 166.274 346.26ZM185.562 361.258C178.889 361.156 172.223 359.985 165.856 357.721C172.541 357.317 179.58 358.47 185.562 361.258Z" fill="#311255"/>
<path d="M135.129 133.441C130.671 144.975 138.644 158.768 151.878 158.661C162.786 158.573 175.151 148.151 168.079 137.14C165.387 132.95 160.373 130.369 155.443 132.318C150.347 134.333 147.209 140.267 147.716 145.512C148.208 150.602 152.411 155.97 157.768 156.748C163.114 157.525 167.085 152.85 168.552 148.348C170.843 141.318 171.32 133.051 170.743 125.737C170.13 117.951 168.382 110.32 165.733 102.96C165.288 101.723 163.297 101.51 162.949 102.96C160.694 112.356 159.197 122.288 160.072 131.96C160.854 140.61 162.462 157.153 174.681 157.07C179.516 157.037 184.282 154.222 187.068 150.439C189.224 147.513 191.124 142.932 189.602 139.392C187.727 135.025 181.747 134.692 178.01 136.806C173.913 139.124 172.944 144.18 174.154 148.382C177.375 159.563 193.953 158.936 200.688 151.615C201.081 151.189 201.302 150.414 200.914 149.899C197.994 146.028 197.893 141.029 200.722 137.079C199.891 136.603 199.06 136.127 198.229 135.65C194.424 141.274 195.225 149.347 200.777 153.641C206.282 157.899 214.14 155.386 218.015 150.219C222.438 144.323 220.403 136.236 214.378 132.215C208.642 128.387 202.08 130.547 198.229 135.744C197.768 136.368 198.129 137.32 198.747 137.681C204.195 140.868 211.191 139.223 214.68 134.083C213.8 133.72 212.921 133.356 212.041 132.993C209.634 138.929 210.63 145.986 215.221 150.644C220.022 155.514 227.571 155.257 232.743 151.096C234.18 149.94 232.127 147.947 230.701 149.094C226.258 152.669 219.808 152.111 216.329 147.572C213.253 143.558 212.97 138.322 214.826 133.745C215.459 132.184 213.044 131.392 212.187 132.655C209.57 136.51 204.232 137.593 200.206 135.237C200.378 135.883 200.551 136.528 200.724 137.174C203.562 133.344 208.329 131.776 212.596 134.44C217.731 137.646 219.229 144.583 215.178 149.19C211.9 152.917 205.892 154.589 201.939 150.883C198.052 147.238 197.841 141.34 200.724 137.08C201.76 135.548 199.286 134.177 198.23 135.651C194.862 140.355 194.933 146.701 198.423 151.329C198.498 150.757 198.573 150.185 198.648 149.613C194.059 154.602 181.73 156.799 177.737 149.593C175.88 146.242 175.908 141.011 179.795 139.069C181.71 138.112 184.872 137.897 186.424 139.631C187.857 141.231 187.146 143.789 186.474 145.546C183.773 152.615 174.056 157.7 168.225 150.931C165.145 147.355 164.484 142.463 163.74 137.992C163.212 134.82 162.836 131.605 162.73 128.391C162.458 120.132 163.814 111.722 165.736 103.713C164.808 103.713 163.879 103.713 162.951 103.713C166.267 112.927 168.43 122.86 168.03 132.678C167.806 138.181 166.256 159.468 155.46 152.886C150.912 150.114 149.392 144.384 151.675 139.738C153.845 135.323 159.01 132.661 163.368 136.082C167.114 139.024 168.551 144.483 165.945 148.551C163.585 152.233 159.192 154.675 154.926 155.518C142.254 158.02 133.663 145.196 137.916 134.194C138.573 132.488 135.783 131.75 135.129 133.441Z" fill="#311255"/>
<path d="M139.269 123.507C141.257 124.637 140.504 128.032 137.984 127.535C134.904 126.926 136.169 123.003 138.992 123.362C140.83 123.595 140.812 120.762 138.992 120.531C136.257 120.184 133.647 122.357 133.266 124.979C132.898 127.499 134.761 129.7 137.216 130.265C139.661 130.827 142.179 129.674 143.012 127.289C143.819 124.98 142.89 122.293 140.727 121.063C139.116 120.146 137.661 122.592 139.269 123.507Z" fill="#311255"/>
<path d="M180.051 40.4552C179.029 27.4231 178.007 14.3915 176.985 1.3593C176.843 -0.445733 173.955 -0.460454 174.097 1.3593C175.119 14.3915 176.141 27.4231 177.163 40.4552C177.305 42.2597 180.194 42.275 180.051 40.4552Z" fill="#311255"/>
<path d="M190.272 41.6227C192.573 35.1086 194.874 28.5945 197.175 22.0804C197.784 20.3552 194.996 19.6141 194.39 21.3279C192.089 27.842 189.788 34.3561 187.488 40.8702C186.878 42.5949 189.667 43.3366 190.272 41.6227Z" fill="#311255"/>
<path d="M167.901 40.8423C162.661 34.9329 157.422 29.0241 152.183 23.1147C150.962 21.7371 148.926 23.7465 150.141 25.1167C155.381 31.0261 160.62 36.935 165.859 42.8444C167.08 44.2219 169.115 42.2125 167.901 40.8423Z" fill="#311255"/>
<path d="M200.633 45.8694C203.794 42.74 206.953 39.6101 210.114 36.4807C211.422 35.1847 209.382 33.1815 208.072 34.4786C204.912 37.608 201.752 40.738 198.592 43.8673C197.283 45.1634 199.324 47.1666 200.633 45.8694Z" fill="#311255"/>
<path d="M150.666 46.548C147.339 43.8999 144.011 41.2518 140.684 38.6037C139.253 37.4651 137.198 39.4564 138.642 40.6058C141.97 43.2539 145.297 45.902 148.625 48.5501C150.055 49.6881 152.11 47.6968 150.666 46.548Z" fill="#311255"/>
</svg>
