<svg width="360" height="360" viewBox="0 0 360 360" fill="none" xmlns="http://www.w3.org/2000/svg">
<path d="M259.738 253.5C261.879 254.852 264.772 254.188 266.043 251.999C271.665 242.309 276.286 232.039 279.821 221.409C289.649 191.854 289.993 155.323 281.23 124.342C280.514 121.809 278.112 117.552 279.525 114.976C280.239 113.674 281.74 112.848 283.222 112.941C286.054 113.118 287.968 116.362 289.298 118.471C321.359 169.343 320.465 226.615 294.312 272.341C293.177 274.324 293.681 276.808 295.545 278.13L305.376 285.105C308.271 287.159 307.725 291.606 304.42 292.899L245.05 316.125C242.068 317.292 238.864 315.03 238.965 311.829L240.938 249.578C241.047 246.129 244.863 244.104 247.78 245.947L259.738 253.5Z" fill="#F5F1F9"/>
<path d="M104.499 223.532C102.452 224.488 101.556 226.981 102.582 228.993C107.745 239.123 113.97 248.709 121.112 257.555C140.678 281.79 171.236 301.809 202.043 311.167C204.34 311.865 209.624 312.208 211.125 314.229C218.756 324.505 183.924 320.581 171.351 318.071C126.178 309.053 89.7821 279.647 70.2217 241.858C69.2842 240.047 67.1751 239.229 65.2836 239.991L52.878 244.992C49.9404 246.176 46.8632 243.623 47.4852 240.517L60.3215 176.422C60.8828 173.62 64.1262 172.304 66.4814 173.923L119.097 210.093C121.635 211.837 121.317 215.679 118.526 216.982L104.499 223.532Z" fill="#F5F1F9"/>
<path d="M201.742 99.5444C201.776 97.8676 200.409 96.4544 198.732 96.4672C187.008 96.556 175.295 97.9148 163.858 100.496C133.475 107.353 102.021 125.934 80.0238 149.445C77.7995 151.823 68.9211 165.749 66.1756 159.354C64.904 156.392 68.4495 150.148 69.6283 147.611C93.8672 95.4421 145.399 62.5248 201.334 61.7476C202.847 61.7265 204.084 60.5885 204.196 59.0785L205.395 42.9232C205.569 40.5782 208.278 39.3651 210.143 40.7974L264.727 82.7158C266.41 84.0082 266.224 86.6002 264.373 87.6385L205.771 120.519C203.777 121.638 201.322 120.167 201.369 117.881L201.742 99.5444Z" fill="#FFB21E"/>
<path d="M262.386 71.0428C262.741 66.5579 259.178 63.0022 256.475 60.3033C240.719 44.5573 225.75 35.6476 218.308 30.4429C214.964 28.1059 210.799 25.1992 206.807 25.1992C196.107 25.202 197.816 37.4901 197.319 44.3785C197.239 45.5015 196.301 46.37 195.143 46.3934C175.877 46.7973 156.327 51.1491 138.611 58.9795C136.43 59.9407 137.914 63.2283 140.059 62.2574C157.349 54.6183 176.419 50.3716 195.218 49.9794C198.239 49.914 200.681 47.6167 200.896 44.64C201.387 37.8264 199.832 28.7883 206.807 28.7853C210.361 28.7853 215.137 32.7162 218.284 34.7714C231.867 43.6365 243.061 51.9693 254.047 62.9415C256.152 65.045 259.033 67.926 258.809 70.7579C258.411 75.7858 246.181 81.4177 242.177 83.811C227.988 92.2821 219.928 96.2186 216.402 98.2159C204.43 104.996 200.195 105.381 198.729 104.51C198.547 104.4 197.996 104.074 198.033 102.465L198.369 87.0772C198.444 83.9386 195.929 81.0588 192.491 81.0981C159.799 81.5563 128.737 91.1213 97.9041 113.26C72.8155 131.392 61.4503 149.625 60.4047 150.718C60.4047 147.448 65.86 136.279 66.4982 134.887C77.9196 109.779 96.2709 88.7662 116.175 75.4903C118.149 74.1746 116.159 71.1915 114.186 72.5066C111.674 74.1829 109.068 76.0787 106.444 78.1425C83.3843 96.2256 68.0702 119.292 57.7946 146.252C57.1689 148.147 56.2304 151.012 57.379 152.945C58.2569 154.411 59.4195 154.654 60.0359 154.668C60.0592 154.668 60.0826 154.668 60.106 154.668C62.2819 154.668 63.8414 152.31 65.2142 150.225C69.9867 142.936 83.6935 127.947 100.001 116.172C129.91 94.6938 160.196 85.134 192.542 84.6842C193.8 84.656 194.812 85.7513 194.784 86.9978L194.447 102.386C194.382 105.439 195.736 106.898 196.889 107.587C202.333 110.849 214.313 103.299 219.596 100.541C234.783 92.6138 241.654 88.1359 246.921 85.2725C252.889 82.0436 261.9 77.1666 262.386 71.0428Z" fill="#311255"/>
<path d="M300.754 119.169C298.157 115.222 296.038 111.894 293.624 109.104C293.096 108.486 288.333 103.137 285.27 105.002C282.786 106.515 284.42 110.573 285.032 112.09C299.531 148.81 299.381 191.16 288.767 223.211C285.167 233.937 280.517 244.211 274.942 253.751C274.278 254.89 272.744 255.238 271.626 254.519L258.907 246.504C255.367 244.281 250.781 246.309 249.933 250.258C245.224 254.419 244.925 295.069 248.364 302.583C249.326 304.722 252.616 303.267 251.623 301.089C248.336 293.903 249.54 257.388 252.23 253.074C252.888 252.826 253.365 252.201 253.388 251.456C253.448 249.63 255.461 248.573 256.993 249.539L269.712 257.554C272.491 259.307 276.318 258.512 278.042 255.558C283.734 245.808 288.487 235.309 292.172 224.344C303.096 191.347 303.136 148.15 288.361 110.762C287.964 109.779 287.754 109.076 287.638 108.586C291.245 110.73 294.687 116.475 297.775 121.172C329.113 167.733 330.334 226.891 303.247 274.032C301.716 276.703 302.43 280.049 304.919 281.814L315.443 289.289C316.653 290.151 316.601 290.734 316.583 290.926C316.006 296.978 277.257 310.97 270.566 313.385C269.003 313.949 252.009 319.974 250.404 319.502C248.51 318.174 246.434 320.938 248.252 322.369C248.919 322.902 249.765 323.112 250.727 323.112C253.925 323.112 268.799 317.835 271.781 316.757C284.467 312.178 295.501 307.703 305.876 302.914C312.292 299.966 319.711 295.976 320.155 291.26C320.272 289.969 319.917 288.068 317.517 286.366L306.992 278.891C306.021 278.2 305.745 276.878 306.357 275.818C333.776 228.089 333.245 167.54 300.754 119.169Z" fill="#311255"/>
<path d="M208.46 324.642C177.206 317.811 147.7 300.676 126.607 279.732C114.359 267.575 103.811 256.327 98.7401 241.761C98.3432 240.631 97.6802 237.883 99.9961 236.802C104.592 234.647 114.119 232.495 115.284 226.497C116.582 219.825 108.419 215.171 104.525 212.181C88.5044 199.866 71.3897 189.487 70.6727 189.018C66.489 186.345 60.741 182.689 56.0623 184.54C49.9305 186.947 49.024 196.351 47.6388 201.703C45.0775 211.704 43.5243 220.245 42.7126 224.213C38.7437 243.517 38.7903 254.086 42.8527 257.475C43.9873 258.419 45.9905 259.28 49.0956 258.031L58.9525 254.053C60.4467 253.464 62.165 254.099 62.9308 255.568C89.4197 305.937 143.054 337.864 202.619 334.566C204.992 334.424 211.553 335.309 213.708 332.385C216.392 328.752 212.855 325.607 208.46 324.642ZM204.519 330.978C203.693 330.961 202.96 330.954 202.423 330.985C144.853 334.206 92.1627 303.452 66.1061 253.901C64.8921 251.587 62.5528 250.243 60.1107 250.243C57.8837 250.243 57.1312 251.073 47.737 254.711C47.737 254.711 47.7417 254.709 47.7463 254.709C36.7743 259.086 49.4926 210.407 51.7573 199.72C54.7302 185.67 57.6169 184.941 68.7444 192.039C69.4576 192.506 86.6551 202.969 102.34 215.024C105.706 217.606 112.58 221.597 111.763 225.813C111.059 229.423 102.061 231.88 98.474 233.552C95.1355 235.114 93.9074 238.798 95.3502 242.942C100.678 258.23 111.511 269.8 124.076 282.277C145.629 303.671 175.707 321.167 207.694 328.143C209.632 328.568 210.972 329.507 211.028 329.855C210.541 329.965 212.22 331.118 204.519 330.978Z" fill="#311255"/>
<path d="M278.172 43.911C276.105 42.7639 274.351 45.8889 276.426 47.0442C301.925 61.2413 320.234 86.8666 325.403 115.592C325.816 117.92 329.349 117.303 328.933 114.957C323.572 85.1832 304.596 58.6241 278.172 43.911Z" fill="#311255"/>
<path d="M324.306 67.8671C324.706 70.2046 328.25 69.5932 327.836 67.2554C325.81 55.5377 319.025 44.9547 309.22 38.2215C307.261 36.8821 305.234 39.8339 307.193 41.1772C316.069 47.2777 322.466 57.2538 324.306 67.8671Z" fill="#311255"/>
<path d="M50.5241 285.666C48.5397 299.658 41.8205 312.741 31.6133 322.507C29.8895 324.147 32.3947 326.723 34.088 325.099C44.8789 314.779 51.9762 300.954 54.0728 286.17C54.405 283.845 50.8675 283.28 50.5241 285.666Z" fill="#311255"/>
<path d="M67.4082 293.84C67.264 291.492 63.6853 291.681 63.8315 294.059C64.3218 302.009 66.9413 309.695 71.4099 316.285C72.7095 318.209 75.7269 316.26 74.3796 314.273C70.2705 308.214 67.8612 301.147 67.4082 293.84Z" fill="#311255"/>
</svg>
