<svg width="360" height="360" viewBox="0 0 360 360" fill="none" xmlns="http://www.w3.org/2000/svg">
<path d="M250.558 179.362C235.468 181.156 235.29 181.179 213.693 183.426C232.852 161.295 232.626 131.834 230.81 102.906C230.714 101.089 229.185 99.7499 227.367 99.7977C213.627 100.262 196.064 99.5951 183.904 93.3434C183.043 92.8648 182.086 92.817 181.178 93.1999C167.598 98.6981 152.776 101.041 138.241 99.4633C136.328 99.2724 134.654 100.611 134.511 102.476C132.144 133.649 131.873 162.142 152.681 185.483C144.2 184.634 136.456 183.714 133.937 183.379C120.819 154.97 122.251 122.255 124.565 91.6215C124.756 88.9915 127.099 87.1272 129.777 87.4143C150.099 89.6136 170.755 86.3141 189.737 78.6159C190.981 78.1379 192.32 78.233 193.515 78.8552C202.982 83.7803 213.741 86.1232 224.403 87.0314C234.253 87.8439 244.294 88.2268 254.24 87.8917C256.774 87.7961 258.877 89.7093 259.069 92.2436C260.853 121.948 261.913 151.779 250.558 179.362Z" fill="#FFB31E"/>
<path d="M294.93 213.263L236.261 222.921C235.209 223.065 234.11 222.873 233.201 222.348L186.82 194.902H183.473C178.644 194.902 173.862 194.855 169.033 194.711C165.113 194.615 161.192 194.567 157.223 194.376L101.662 222.013C102.263 231.116 104.109 261.532 104.722 270.641C104.866 273.462 105.057 276.284 105.248 279.104C105.248 279.439 105.296 279.726 105.296 280.061C105.439 282.356 106.97 284.316 109.169 285.033L188.207 310.519C190.988 311.354 186.066 311.512 291.344 287.519C293.878 286.946 295.695 284.651 295.695 282.021C295.689 281.458 294.943 214.08 294.93 213.263ZM141.587 262.464L160.666 267.342C163.068 267.943 161.886 271.541 159.757 270.832L140.727 265.907C138.449 265.338 139.306 261.895 141.587 262.464ZM160.235 284.555L131.308 275.613C128.968 274.913 130.196 271.487 132.359 272.171L161.287 281.113C163.467 281.766 162.654 285.162 160.235 284.555Z" fill="#F5F1F9"/>
<path d="M333.174 202.664C294.681 178.977 284.823 172.965 285.332 173.245C284.991 173.057 284.56 172.972 284.225 173.032C281.698 173.406 279.192 173.744 276.675 174.1L253.283 171.951C252.682 173.825 251.974 175.623 251.269 177.43L240.189 178.751C246.722 165.668 250.798 150.152 252.249 132.506C253.509 116.965 252.763 95.6482 251.819 84.4065C251.698 81.9784 250.171 79.8258 247.929 78.9153C245.715 78.0341 244.394 81.3503 246.585 82.2399C248.568 83.0468 248.316 85.1719 248.434 88.1001C250.345 119.281 250.604 151.628 235.928 179.234C229.767 179.922 223.7 180.565 217.727 181.17C234.672 158.704 234.366 130.927 232.6 102.809C232.45 100.045 230.139 98.0227 227.304 98.004C214.084 98.4522 196.549 97.8312 184.771 91.775C183.421 91.0325 181.894 90.9531 180.508 91.5368C166.863 97.0608 152.342 99.1807 138.417 97.6818C135.59 97.3887 132.953 99.3941 132.721 102.342C130.466 132.044 130.026 160.012 148.504 183.228C136.83 182.026 131.883 181.294 129.645 180.999C113.486 151.771 114.857 117.201 117.363 84.0517C117.475 82.488 118.803 81.2774 120.552 81.5022C140.589 83.6268 161.643 80.531 181.385 72.5929C182.142 72.3034 182.917 72.3502 183.65 72.7004C201.849 82.1165 225.804 81.6516 223.448 81.6516C225.762 81.6516 225.842 78.1792 223.541 78.0702C186.918 76.1726 186.978 66.612 180.078 69.2543C160.845 76.9916 140.374 79.994 120.968 77.9394C117.383 77.4723 114.054 80.0354 113.786 83.7902C111.5 114.041 110.086 144.031 121.624 172.398C111.695 173.272 101.781 174.137 91.9139 174.979C89.5792 174.557 87.2923 174.155 84.8916 173.705C84.6867 173.663 84.0821 173.695 83.757 173.863L27.0795 202.212C24.2322 203.64 24.7275 207.866 27.8406 208.585L86.948 222.386L89.9766 271.328C90.1634 274.298 92.2086 276.936 95.085 277.894L174.185 303.398C175.564 303.791 176.891 303.807 178.089 303.515L278.201 280.424C281.6 279.668 284.019 276.61 283.959 273.159L283.304 216.965L331.942 208.94C335.062 208.427 335.858 204.307 333.174 202.664ZM136.297 102.617C136.363 101.734 137.22 101.114 138.048 101.249C152.477 102.804 167.653 100.61 181.88 94.8521C182.277 94.6793 182.66 94.712 183.08 94.9361C195.58 101.373 213.206 102.053 227.412 101.59C227.426 101.59 227.44 101.59 227.459 101.59C228.308 101.59 228.976 102.188 229.023 103.019C230.787 131.333 231.184 159.878 212.793 181.673C212.274 181.722 195.807 183.358 173.386 185.252C172.583 185.066 173.383 185.158 171.696 185.028C165.821 184.761 159.461 184.291 153.574 183.753C133.637 160.938 133.974 133.196 136.297 102.617ZM84.8006 177.348C110.457 182.164 139.71 186.683 165.548 188.277L99.3623 221.183C98.9934 221.366 98.5685 221.417 98.1623 221.323C80.7722 217.341 45.7722 209.326 28.6905 205.415L84.8006 177.348ZM280.373 273.21C280.405 274.975 279.163 276.535 277.412 276.927L178.41 299.759C174.192 267.88 172.992 235.472 174.876 203.393C174.937 202.403 174.18 201.553 173.195 201.497C172.126 201.296 171.355 202.193 171.299 203.178C169.405 235.353 170.598 267.855 174.81 299.836L96.2057 274.49C94.7161 273.99 93.6515 272.631 93.5534 271.104L90.5912 223.237L97.3543 224.816C97.7513 224.91 98.1575 224.956 98.5637 224.956C100.976 224.956 97.5082 225.889 172.461 188.759L172.925 188.828L232.296 223.878C233.575 224.634 235.093 224.914 236.573 224.676L279.724 217.556L280.373 273.21ZM235.99 221.137C235.35 221.244 234.678 221.123 234.117 220.786L179.236 188.39C211.925 185.578 251.83 181.56 284.125 176.684L331.358 205.401L235.99 221.137Z" fill="#311255"/>
<path d="M300.867 298.411C272.752 302.501 245.072 309.771 218.591 320.021C216.755 320.729 217.258 323.486 219.24 323.486C221.791 323.486 251.208 309.263 301.38 301.96C303.78 301.605 303.14 298.019 300.867 298.411Z" fill="#311255"/>
<path d="M295.945 315.038C286.536 317.182 277.403 321.263 269.525 326.838C267.597 328.198 269.649 331.137 271.599 329.761C279.093 324.457 287.788 320.572 296.739 318.531C299.092 317.997 298.201 314.475 295.945 315.038Z" fill="#311255"/>
<path d="M176.446 150.702C176.271 153.541 176.111 156.281 175.935 159.12C175.843 161.461 175.966 164.351 178.187 165.753C180.524 167.073 183.995 167.151 186.226 165.482C189.102 163.31 188.079 158.588 187.968 151.024C193.954 148.968 198.24 143.652 198.294 137.309C198.456 129.139 191.521 122.323 182.818 122.278C174.134 122.131 166.971 128.699 166.911 136.886C166.773 143.113 170.772 148.508 176.446 150.702Z" fill="#311255"/>
<path d="M70.2484 74.8483C72.4807 75.6296 73.632 72.1965 71.3784 71.449C69.8887 70.9524 69.1745 68.7918 69.7861 67.2979C70.4538 65.6682 72.4243 64.3935 74.4929 64.5289C79.2426 64.5741 82.3593 69.0725 84.7423 73.1207C85.9366 75.1743 89.0408 73.3436 87.8335 71.3089C86.5447 69.1096 84.9852 66.5975 82.8092 64.5616C76.6473 58.8399 68.7724 60.3553 66.4709 65.9297C65.0756 69.33 66.7388 73.6854 70.2484 74.8483Z" fill="#311255"/>
<path d="M94.2397 63.8003C95.5838 65.6821 98.557 63.6788 97.1627 61.7177C94.842 58.4631 93.1237 54.8677 92.0544 51.0247C91.4254 48.7333 87.9611 49.7034 88.599 51.9867C89.7804 56.2311 91.6809 60.2048 94.2397 63.8003Z" fill="#311255"/>
<path d="M108.995 70.8276C110.142 72.875 113.283 71.1208 112.114 69.0625C107.846 61.4949 104.223 48.8365 106.31 41.172C108.399 33.4331 115.726 31.6025 120.249 35.3399C122.835 37.4739 123.867 41.3027 122.709 44.4453C121.88 46.6746 125.257 47.9061 126.071 45.6874C127.743 41.1627 126.253 35.6482 122.532 32.5756C116.054 27.2345 105.661 29.8521 102.846 40.2335C100.467 49.0283 104.267 62.4489 108.995 70.8276Z" fill="#311255"/>
</svg>
