<svg width="360" height="360" viewBox="0 0 360 360" fill="none" xmlns="http://www.w3.org/2000/svg">
<path d="M221.129 162.725C219.851 163.145 218.235 162.979 217.543 161.637C209.589 146.23 201.928 127.925 196.208 109.727C195.683 108.056 196.493 106.282 198.061 105.503C214.5 97.3313 234.703 105.917 240.518 123.923C245.766 140.17 237.101 157.557 221.129 162.725Z" fill="#FFB31E"/>
<path d="M235.583 214.472C233.415 217.769 227.866 213.543 225.3 212.418C221.247 210.641 217.135 208.986 212.916 207.641C182.242 197.936 148.431 200.136 119.239 213.647C115.292 215.474 111.403 217.425 107.558 219.459C97.4283 224.819 84.0809 226.712 74.022 220.164C58.2718 209.911 50.515 182.75 56.6391 166.695C63.2063 149.478 87.7919 148.282 107.437 138.262C129.736 126.889 148.735 107.983 160.762 85.8115C165.163 77.6986 167.83 70.3423 170.644 62.5504C171.145 61.1629 171.744 57.5203 173.979 58.5327C175.922 59.4132 174.772 66.9652 174.821 69.0251C175.392 93.0904 181.738 117.646 191.215 139.982C196.256 151.861 206.23 172.719 215.422 186.97C221.273 196.041 228.116 203.918 235.188 212.013C236.01 212.954 236.365 213.283 235.583 214.472Z" fill="#F5F1F9"/>
<path d="M149.145 321.841C148.549 322.698 149.018 322.279 132.536 331.793C125.352 335.94 128.887 337.528 114.142 324.895C113.688 324.506 109.867 320.859 109.592 320.997C106.833 318.633 104.074 316.269 101.315 313.906C96.9173 310.138 97.3544 311.3 100.902 297.86C102.465 291.936 104.469 281.998 105.079 281.558C105.794 281.042 106.164 281.846 106.643 282.356C107.239 282.99 141.244 312.772 146.18 317.107C147.623 318.374 150.38 320.066 149.145 321.841Z" fill="#FFB31E"/>
<path d="M257.028 124.059C273.301 169.083 276.156 208.386 263.523 213.533C252.79 217.943 231.978 196.204 213.576 161.686C231.068 156.317 240.191 137.609 234.655 120.471C228.49 101.374 206.718 91.8895 188.886 101.47C177.786 63.9322 177.384 33.7665 188.091 29.3673C200.315 24.3657 225.342 53.1964 245.019 95.0687C246.042 97.2267 249.299 95.6938 248.288 93.5377C226.77 47.7533 201.513 19.9418 186.719 26.0329C182.3 27.848 179.355 32.5302 177.823 39.4573C177.822 39.462 177.817 39.4643 177.815 39.469C170.817 56.525 165.483 82.8096 136.812 108.838C128.734 116.164 119.919 122.279 110.62 127.018C90.7307 137.169 65.9389 138.121 58.9609 156.417C52.4958 173.374 60.6279 201.35 77.0464 212.04C83.9781 216.55 93.6269 218.193 105.38 214.322C107.711 217.155 112.738 220.991 119.009 234.871C115.337 240.657 115.135 248.468 118.562 254.414C118.657 254.579 118.812 254.673 118.946 254.795C109.292 269.679 103.494 286.276 100.101 303.688C99.6507 306.027 103.182 306.722 103.642 304.374C112.688 257.97 138.179 231.733 159.354 224.123C171.066 220.079 178.64 224.677 180.389 229.571C181.126 231.633 180.778 234.028 179.529 235.413C175.83 239.594 168.729 235.148 158.175 239.292C149.313 242.612 142.549 249.858 139.512 258.312C138.702 260.552 142.091 261.778 142.903 259.533C145.777 251.609 152.099 245.421 159.471 242.66C167.652 239.43 173.169 242.132 178.544 240.236C182.173 246.286 182.659 250.348 176.665 254.405C168.457 259.939 154.529 260.949 149.684 272.148C149.174 273.327 150.039 274.665 151.342 274.665C154.352 274.665 151.789 269.553 163.914 264.164C169.844 261.527 176.941 259.709 181.55 254.965C186.924 257.736 188.52 264.056 185.991 268.198C182.749 273.528 173.095 274.108 155.982 288.449C154.694 289.53 155.468 291.633 157.142 291.633C157.55 291.633 157.964 291.497 158.302 291.21C175.332 276.945 184.997 276.774 189.072 270.077C192.559 264.353 190.615 255.952 183.728 252.056C186.123 247.411 184.332 242.852 181.64 238.355C189.671 230.788 179.818 214.697 160.574 219.983C159.795 209.628 148.604 202.983 139.174 208.894C137.409 206.464 135.642 204.049 133.848 201.614C160.197 192.06 189.709 191.288 216.376 199.721C227.733 203.312 238.297 209.481 249.495 213.862C250.075 214.089 257.794 219.794 264.889 216.872C281.782 209.987 275.428 164.353 260.418 122.828C259.601 120.567 256.222 121.821 257.028 124.059ZM231.226 121.579C236.162 136.875 227.986 153.261 212.995 158.112C212.991 158.112 212.991 158.112 212.986 158.112C212.623 158.234 212.255 158.347 211.887 158.448C202.829 141.011 195.119 121.717 189.945 104.939C205.293 96.1463 225.501 103.886 231.226 121.579ZM120.857 239.178C121.991 241.98 122.062 242.383 124.026 247.625C123.035 248.893 122.077 250.184 121.15 251.493C119.362 247.657 119.279 243.1 120.857 239.178ZM147.003 226.418C139.578 231.111 132.768 237.159 126.679 244.418C126.042 243.033 120.58 224.785 109.032 212.972C114.892 210.468 119.983 207.047 130.373 202.93C133.662 207.521 138.283 213.491 147.003 226.418ZM217.466 196.284C186.569 186.515 151.957 188.727 122.488 202.375C118.755 204.103 114.908 206.014 110.719 208.231C101.942 212.871 89.0127 215.524 79.0096 209.015C77.8067 208.232 76.6573 207.316 75.5413 206.33C81.3389 204.744 86.9628 202.208 91.8963 198.815C93.8743 197.459 91.8028 194.487 89.8581 195.847C84.6868 199.397 78.7296 202.003 72.6168 203.4C69.3499 199.726 66.5967 195.148 64.4962 189.91C73.0177 188.388 81.1141 185.393 88.5619 180.974C90.6096 179.759 88.7747 176.651 86.7209 177.874C75.1824 184.722 64.0135 186.281 63.2822 186.536C60.2577 177.379 58.8792 166.751 62.333 157.703C66.9731 145.529 82.3838 141.49 95.6398 136.943C95.2377 156.687 102.655 176.382 116.369 191.348C116.726 191.738 117.209 191.935 117.698 191.935C119.233 191.935 120.102 190.088 119.027 188.915C105.627 174.289 98.4841 154.945 99.2425 135.676C129.09 125.006 152.538 102.491 166.356 77.0347C170.827 68.7901 173.435 61.635 176.603 52.8258C176.864 96.5417 208.561 174.351 239.51 205.548C232.058 202.069 224.927 198.642 217.466 196.284Z" fill="#311255"/>
<path d="M260.165 69.9899L274.01 49.8991L281.82 57.5071C282.653 58.3107 284.027 58.1476 284.628 57.1361L297.177 35.9933C298.389 33.9508 295.306 32.09 294.077 34.1523L282.698 53.3274L274.996 45.8227C274.224 45.0703 272.902 45.1482 272.253 46.0904L257.197 67.9423C255.836 69.9108 258.821 71.9519 260.165 69.9899Z" fill="#311255"/>
<path d="M329.365 171.506L310.575 155.647C309.665 154.887 308.309 155.188 307.8 156.215L302.916 165.964L283.247 151.519C281.328 150.107 279.191 153.013 281.115 154.43C303.637 170.679 302.508 170.797 303.996 170.435C305.418 170.099 305.036 169.317 309.998 159.878L327.036 174.258C328.862 175.806 331.186 173.034 329.365 171.506Z" fill="#311255"/>
<path d="M77.596 91.5139L32.657 66.8677C30.5373 65.7281 28.8401 68.8928 30.9193 70.033L75.8583 94.6793C77.9632 95.8209 79.6843 92.6591 77.596 91.5139Z" fill="#311255"/>
<path d="M90.741 80.8855C92.1779 80.8855 93.0574 79.2574 92.2203 78.0536L80.1413 60.6538C78.7941 58.7003 75.8149 60.744 77.1826 62.7108C89.5964 80.0791 88.9886 80.8855 90.741 80.8855Z" fill="#311255"/>
<path d="M105.098 72.1036L102.679 51.8062C102.4 49.4379 98.8189 49.8644 99.1004 52.2288L101.519 72.5263C101.798 74.9047 105.379 74.4643 105.098 72.1036Z" fill="#311255"/>
<path d="M190.998 276.313C192.134 278.117 192.036 280.657 190.749 282.367C189.608 283.912 187.654 284.762 185.306 285.786C167.046 293.579 138.691 312.555 132.613 331.199C131.873 333.464 135.298 334.589 136.042 332.317C138.563 324.587 144.368 318.387 149.14 313.855C160.232 303.336 172.875 295.009 187.029 288.97C189.331 287.969 191.932 286.833 193.642 284.522C195.816 281.634 195.985 277.468 194.05 274.388C192.772 272.369 189.729 274.292 190.998 276.313Z" fill="#311255"/>
</svg>
