<svg width="480" height="480" viewBox="0 0 480 480" fill="none" xmlns="http://www.w3.org/2000/svg">
<path d="M308.696 137.622C226.128 128.887 144.262 136.794 67.3053 159.683C57.6138 162.552 52.7043 173.327 56.0198 183.465C62.0128 202.083 67.8151 220.764 73.2983 239.509C73.3621 239.637 73.3621 239.828 73.426 239.956C76.6139 249.902 85.4127 256.086 93.5102 253.727C148.47 237.596 206.491 230.392 265.468 233.006C274.372 209.756 294.836 191.433 323.106 186.717C324.063 177.6 324.891 168.482 325.657 159.364C326.676 148.653 319.089 138.77 308.696 137.622ZM88.0269 211.264C80.1847 211.71 73.4259 205.653 72.9791 197.747C72.5969 189.904 78.5907 183.146 86.4968 182.7C94.4028 182.317 101.098 188.374 101.544 196.216C101.99 204.122 95.933 210.817 88.0269 211.264ZM147.323 195.069C139.416 195.515 132.658 189.458 132.275 181.615C131.829 173.709 137.886 166.951 145.729 166.569C153.635 166.122 160.393 172.179 160.775 180.021C161.222 187.927 155.165 194.686 147.323 195.069ZM208.276 187.991C200.37 188.438 193.611 182.381 193.229 174.475C192.782 166.633 198.839 159.874 206.682 159.427C214.588 159.045 221.346 165.103 221.729 172.945C222.176 180.851 216.118 187.545 208.276 187.991ZM266.488 190.032C258.582 190.479 251.823 184.421 251.44 176.579C250.994 168.673 257.052 161.915 264.894 161.532C272.8 161.085 279.559 167.142 279.941 174.985C280.387 182.891 274.33 189.649 266.488 190.032Z" fill="#FFB21E"/>
<path d="M334.072 187.801C293.878 181.935 256.609 209.77 250.803 249.966C245.001 290.133 272.864 327.433 313.032 333.234C353.2 339.037 390.435 311.238 396.301 271.069C402.103 230.901 374.24 193.603 334.072 187.801ZM378.958 265.905C375.324 290.708 352.307 307.922 327.505 304.287C302.639 300.717 285.424 277.7 289.059 252.834C292.629 228.032 315.71 210.817 340.512 214.388C365.314 218.022 382.529 241.039 378.958 265.905Z" fill="#F5F1F9"/>
<path d="M390.029 306.671C394.485 314.64 392.116 324.687 384.294 329.835C376.862 334.718 367.017 333.536 360.91 327.47C363.744 325.647 376.662 321.262 390.029 306.671Z" fill="#311255"/>
<path d="M409.122 270.265C416.548 218.892 371.108 174.679 319.089 185.063C321.87 164.111 322.112 142.798 319.77 121.588C341.016 123.182 362.282 125.584 383.549 128.824C395.089 130.608 403.122 141.958 401.465 154.2L398.723 174.156C398.288 177.198 402.985 177.99 403.442 174.794L406.183 154.837C408.16 140.045 398.341 126.273 384.314 124.105C272.353 107.018 160.329 112.693 51.4927 140.938C37.7212 144.454 30.8003 159.562 34.6595 173.073C39.1231 189.395 43.4591 205.717 47.6665 222.039C51.7874 237.633 65.2486 244.88 75.7845 241.932C136.738 226.311 199.604 218.596 262.789 219.043C263.937 217.385 265.085 215.855 266.36 214.325C201.581 213.559 137.12 221.274 74.6365 237.341C65.1365 239.764 55.3812 232.495 52.2571 220.828C48.0496 204.442 43.7144 188.119 39.2508 171.797C36.1108 160.566 41.7471 148.325 52.64 145.529C138.655 123.239 226.605 115.171 314.95 121.28C317.414 143.015 317.148 164.88 314.137 186.33C258.823 201.373 238.353 271.339 280.552 313.19C282.762 315.422 286.182 312.034 283.915 309.796C264.831 290.859 258.168 264.231 266.107 238.569C282.064 186.935 346.4 172.004 383.725 208.526C399.901 224.354 407.628 247.177 404.39 269.58C397.815 314.945 350.615 341.672 309.997 326.219C307.009 325.113 305.356 329.57 308.291 330.689C351.731 347.199 402.111 318.701 409.122 270.265Z" fill="#311255"/>
<path d="M327.158 306.655C353.455 310.491 377.519 292.228 381.322 266.252V266.245C385.07 240.166 366.92 215.839 340.856 212.022C314.692 208.23 290.446 226.421 286.692 252.488C282.872 278.623 300.91 302.885 327.158 306.655ZM291.424 253.176C294.816 229.628 316.778 213.373 340.165 216.754C363.626 220.191 379.964 242.087 376.589 265.567C373.132 289.118 351.325 305.359 327.849 301.923C304.28 298.539 287.979 276.773 291.424 253.176Z" fill="#311255"/>
<path d="M445.51 384.48C443.867 380.297 391.93 317.342 391.396 316.705C389.428 314.23 385.677 317.197 387.648 319.675C388.179 320.312 439.827 383.081 441.064 386.229C443.499 392.425 437.733 398.691 433.263 401.391C426.356 405.568 421.706 403.609 417.908 397.885C411.894 388.84 421.38 403.264 376.091 328.971C374.428 326.289 370.359 328.787 372.019 331.486C438.982 441.298 402.057 382.677 413.923 400.531C419.674 409.194 427.801 410.288 435.741 405.481C442.982 401.107 448.661 392.49 445.51 384.48Z" fill="#311255"/>
<path d="M269.133 338.64C276.25 345.219 285.465 349.509 295.079 350.723C298.236 351.118 298.801 346.373 295.677 345.978C287.047 344.889 278.772 341.035 272.383 335.129C270.077 332.993 266.806 336.478 269.133 338.64Z" fill="#311255"/>
<path d="M310.34 369.421C288.983 371.139 266.973 362.071 253.069 345.664C251.016 343.254 247.38 346.345 249.42 348.758C264.255 366.263 287.721 376.063 310.726 374.184C313.91 373.929 313.448 369.133 310.34 369.421Z" fill="#311255"/>
<path d="M54.4261 105.846L68.7594 114.04C71.5377 115.588 73.8667 111.451 71.1379 109.887L56.8046 101.693C54.034 100.136 51.6939 104.279 54.4261 105.846Z" fill="#311255"/>
<path d="M78.9523 101.481C79.9846 104.465 84.5043 102.916 83.4728 99.9181L74.2576 73.2937C73.234 70.3119 68.7037 71.8532 69.7372 74.8566L78.9523 101.481Z" fill="#311255"/>
<path d="M99.948 105.264L105.066 79.6666C105.678 76.5634 101.012 75.6341 100.371 78.7263L95.2533 104.323C94.6415 107.427 99.3196 108.363 99.948 105.264Z" fill="#311255"/>
<path d="M314.5 240.5L352.5 278.5M314.5 278.5L352.5 240.5" stroke="#311255" stroke-width="6" stroke-linecap="round" stroke-linejoin="round"/>
</svg>
