<svg width="360" height="360" viewBox="0 0 360 360" fill="none" xmlns="http://www.w3.org/2000/svg">
<path d="M329.669 259.949C319.456 263.496 366.659 247.102 229.822 294.626C235.445 292.423 220.429 260.001 217.895 255.38L317.549 217.529C329.813 214.74 341.981 257.16 329.669 259.949Z" fill="#FFB21E"/>
<path d="M285.661 81.5634C285.465 82.0599 282.823 88.7464 283.016 88.2488L272.195 115.038C271.858 115.952 270.896 116.481 269.934 116.337L171.483 99.7918C170.521 99.6474 169.847 98.8295 169.751 97.8679L167.443 62.4216C167.347 61.0753 168.597 59.9687 169.896 60.2569L205.246 67.0391C206.592 67.3274 207.795 66.1731 207.651 64.7781C206.881 57.3237 210.633 49.4835 217.125 45.6844C224.484 41.4038 234.632 42.6543 240.644 48.6663C246.079 54.0048 247.714 62.7098 244.973 69.7803C244.492 71.0302 245.261 72.377 246.56 72.5696C247.055 72.6509 286.525 79.1283 284.074 78.726C285.373 78.9667 286.142 80.3135 285.661 81.5634Z" fill="#F5F1F9"/>
<path d="M264.451 315.981C263.249 320.598 258.728 323.531 253.918 322.859L94.5297 297.993C89.5757 297.223 86.113 292.703 86.6419 287.7C111.679 55.8279 109.653 71.6702 110.353 68.8661C111.7 64.3936 116.173 61.6518 120.79 62.3734L160.172 68.6431L161.649 91.3229C161.743 93.1499 163.116 94.6717 164.885 94.9324L263.279 111.468C265.049 111.828 266.827 110.885 267.567 109.124L280.041 78.0648L284.074 78.726C285.372 78.9666 286.142 80.3135 285.661 81.5634L284.377 84.7883L284.362 84.786C284.169 85.2836 282.822 88.7463 283.016 88.2487L312.113 92.8657C317.568 93.7757 321.066 99.099 319.664 104.505C319.538 104.99 309.812 142.22 310.43 139.855C309.747 142.132 313.338 143.177 313.893 140.817L323.127 105.419C325.114 98.0695 320.285 90.5229 312.691 89.3066L290.591 85.7799C290.842 80.1168 286.825 75.2133 281.275 74.3085C281.374 72.2953 279.925 70.6571 278.017 70.3092L240.302 63.8088C243.39 56.0285 241.462 46.5456 235.614 40.7497C228.994 34.1859 217.945 32.7815 209.913 37.4901C202.858 41.6186 198.695 49.9931 199.237 58.6305L163.915 51.846C161.376 51.3915 159.166 53.4303 159.342 55.9017L159.932 64.9537L121.367 58.8143C115.251 57.8028 108.766 61.2999 106.805 68.2743L86.257 67.5674C79.8605 67.3273 74.6179 72.5214 74.7142 78.9184L78.4655 297.223C78.5617 303.187 83.3232 308.045 89.2869 308.237L148.473 310.055L253.389 326.417C259.754 327.398 266.22 323.459 267.914 316.847L278.11 277.841L274.07 279.284L264.451 315.981ZM198.531 62.1672C201.097 62.7122 203.413 60.5806 203.145 57.9565C202.438 51.1132 205.97 43.9764 211.736 40.604C218.405 36.7033 227.583 37.8588 233.073 43.3117C237.928 48.119 239.52 56.0002 236.941 62.4959C236.038 64.8464 237.538 67.3638 239.919 67.7118C278.676 74.2812 277.67 73.5628 277.705 74.2004C277.543 74.6851 277.525 74.7415 277.686 74.2568L263.932 107.921L165.249 91.1136L163.255 55.3919L198.531 62.1672Z" fill="#311255"/>
<path d="M245.655 152.924C243.745 152.791 242.108 154.274 242.053 156.188L241.082 189.829C241.032 191.571 242.32 193.065 244.051 193.271L272.187 196.631C273.89 196.834 275.474 195.725 275.866 194.055L283.968 159.515C284.442 157.494 282.993 155.529 280.923 155.384L245.655 152.924Z" fill="#311255"/>
<path d="M209.27 170.335L120.879 156.121C118.549 155.71 117.928 159.301 120.306 159.681L208.697 173.896C211.057 174.299 211.623 170.712 209.27 170.335Z" fill="#311255"/>
<path d="M135.098 186.589C132.743 186.184 132.116 189.718 134.459 190.14C181.69 198.596 181.381 198.608 181.864 198.608C184.046 198.608 184.337 195.417 182.181 195.029L135.098 186.589Z" fill="#311255"/>
<path d="M318.318 209.69C316.527 208.123 314.206 210.965 316.009 212.432C324.71 219.682 330.892 247.214 322.695 249.032L228.524 281.785C228.524 280.775 228.38 279.669 228.187 278.419C228.187 278.419 228.187 278.419 228.187 278.371C225.479 263.004 216.842 250.283 216.644 249.802C216.067 249.08 215.538 248.359 215.057 247.781L306.487 213.008C308.688 212.198 307.48 208.839 305.188 209.642L294.944 213.586L307.641 164.817C308.312 162.58 304.761 161.62 304.178 163.951L290.759 215.125L261.133 226.427L231.217 224.311C229.293 224.167 227.658 225.658 227.61 227.581L227.273 239.269L210.103 245.81C210.103 245.81 210.055 245.81 210.007 245.858C209.042 246.099 182.173 275.625 181.727 276.11C177.994 275.823 175.861 272.766 176.1 269.665C176.21 267.89 174.103 267.039 172.973 268.27C169.967 271.454 166.227 275.444 161.671 274.86C156.24 274.3 152.315 266.999 154.89 260.094C155.863 258.515 156.581 256.661 154.89 255.91C153.17 255.146 152.342 256.751 151.667 258.507C150.705 260.046 149.358 261.393 148.06 262.499C144.068 266.106 140.413 267.597 137.335 266.972C134.675 266.409 131.997 264.085 130.842 260.238C132.862 257.16 134.16 253.649 134.593 249.994C135.272 244.339 127.853 244.181 126.946 252.351C126.609 254.9 126.609 257.257 126.994 259.421C125.802 260.98 123.913 263.014 122.04 263.605C121.126 263.894 120.165 263.749 119.636 263.268C117.79 261.768 115.447 264.522 117.279 266.01C119.556 267.993 123.557 268.148 127.427 264.279C127.716 264.038 128.004 263.797 128.245 263.509C129.928 267.116 133.103 269.761 136.565 270.483C140.846 271.397 145.559 269.617 150.465 265.192C151.127 277.133 162.711 283.676 173.022 273.368C174.048 276.276 176.081 278.198 178.937 279.236C178.64 279.717 177.387 280.476 177.927 281.881C178.612 283.659 179.6 282.67 195.915 284.527C196.569 284.572 225.259 286.547 225.494 286.547C225.638 286.547 225.831 286.498 225.975 286.45C226.023 286.402 226.071 286.402 226.119 286.402L323.705 252.495C325.773 252.062 328.418 250.475 329.572 245.617C332.025 235.229 326.062 216.087 318.318 209.69ZM224.772 282.843C224.28 282.81 193.292 280.745 195.194 280.872L190.865 271.301C191.32 270.813 212.713 247.913 211.354 249.369C216.257 252.389 226.175 277.542 224.772 282.843Z" fill="#311255"/>
<path d="M229.978 271.045L312.887 240.734C315.124 239.919 313.893 236.532 311.647 237.347L228.739 267.658C226.525 268.465 227.709 271.879 229.978 271.045Z" fill="#311255"/>
<path d="M252.392 245.329L265.745 240.461C267.985 239.641 266.757 236.252 264.509 237.072L251.156 241.941C248.908 242.763 250.157 246.151 252.392 245.329Z" fill="#311255"/>
<path d="M220.002 66.2983C225.603 66.2983 230.162 61.7401 230.162 56.1391C230.162 50.5358 225.603 45.9775 220.002 45.9775C214.399 45.9775 209.841 50.5358 209.841 56.1391C209.841 61.74 214.399 66.2983 220.002 66.2983Z" fill="#311255"/>
<path d="M63.8778 71.3727L26.8034 75.2522C24.4183 75.5009 24.8197 79.1028 27.1792 78.8406L64.2536 74.9611C66.6343 74.7127 66.2432 71.1142 63.8778 71.3727Z" fill="#311255"/>
<path d="M52.2084 44.9905C50.2953 43.5599 48.144 46.4624 50.0573 47.8862L65.1458 59.0928C67.0598 60.5213 69.21 57.6207 67.297 56.1971L52.2084 44.9905Z" fill="#311255"/>
<path d="M81.3872 49.7817L80.5254 35.1229C80.3833 32.7189 76.7829 32.9652 76.9229 35.3343L77.7848 49.9931C77.9259 52.3925 81.5288 52.1769 81.3872 49.7817Z" fill="#311255"/>
</svg>
