<svg width="360" height="360" viewBox="0 0 360 360" fill="none" xmlns="http://www.w3.org/2000/svg">
<path d="M196.24 161.619C170.698 161.619 150.016 182.35 150.016 207.843C150.016 233.384 170.698 254.067 196.24 254.067C221.781 254.067 242.463 233.384 242.463 207.843C242.463 182.351 221.781 161.619 196.24 161.619ZM169.159 227.708L169.256 198.511C169.256 196.098 172.863 196.111 172.863 198.511L172.767 227.757C172.767 228.718 171.949 229.536 170.987 229.536C169.977 229.536 169.159 228.718 169.159 227.708ZM178.25 207.218C178.25 206.208 179.068 205.391 180.03 205.391C181.04 205.486 181.858 206.208 181.858 207.17L181.954 220.975C181.954 223.375 178.347 223.389 178.347 220.975L178.25 207.218ZM187.967 228.622V197.261C187.967 196.299 188.784 195.482 189.746 195.482C190.756 195.482 191.574 196.299 191.574 197.261V228.622C191.574 231.01 187.967 231.067 187.967 228.622ZM196.769 205.486C196.659 203.293 200.249 202.84 200.376 205.391L200.761 219.82C200.875 222.095 197.276 222.358 197.153 219.916L196.769 205.486ZM206.148 197.021C206.148 194.559 209.756 194.652 209.756 196.973L210.141 228.815C210.25 231.119 206.651 231.341 206.533 228.863L206.148 197.021ZM217.404 221.744C217.356 221.744 217.356 221.744 217.356 221.744C216.393 221.744 215.576 220.975 215.528 220.013L215.143 206.015C215.03 203.642 218.637 203.55 218.75 205.919L219.135 219.916C219.183 220.927 218.414 221.744 217.404 221.744Z" fill="#F5F1F9"/>
<path d="M248.187 174.366C237.172 157.338 218.029 146.083 196.239 146.083C162.136 146.083 134.431 173.74 134.431 207.843C134.431 230.306 146.408 249.93 164.301 260.753C118.232 261.165 91.7586 260.436 70.6024 259.599C61.9445 259.262 51.3624 260.176 43.3298 256.279C35.249 252.384 35.3451 240.839 34.7678 233.192C34.287 226.265 34.2388 219.243 34.0944 212.268C33.7184 192.715 33.5844 174.87 35.345 155.944C35.8262 150.797 36.1629 145.313 39.5296 141.08C44.4359 134.972 56.3164 135.79 63.6277 135.453C90.8116 134.21 206.279 133.016 233.565 137.04C236.451 137.473 238.952 137.906 241.068 140.119C242.992 142.138 244.099 144.832 244.868 147.478C247.37 156.232 248.043 165.275 248.187 174.366Z" fill="#F5F1F9"/>
<path d="M199.134 149.488C165.008 149.488 137.334 177.132 137.334 211.258C137.334 245.384 165.008 273.059 199.134 273.059C233.26 273.059 260.935 245.384 260.935 211.258C260.935 177.132 233.26 149.488 199.134 149.488ZM199.134 257.473C173.6 257.473 152.92 236.792 152.92 211.258C152.92 185.755 173.6 165.044 199.134 165.044C224.668 165.044 245.349 185.755 245.349 211.258C245.349 236.792 224.668 257.473 199.134 257.473Z" fill="#FFB31E"/>
<path d="M312.705 186.891C324.908 186.891 334.8 176.998 334.8 164.796C334.8 152.593 324.908 142.7 312.705 142.7C300.502 142.7 290.609 152.593 290.609 164.796C290.609 176.998 300.502 186.891 312.705 186.891Z" fill="#FFB31E"/>
<path d="M296.892 64.6077C303.286 64.6077 308.47 59.0429 308.47 52.1784C308.47 45.3138 303.286 39.749 296.892 39.749C290.497 39.749 285.313 45.3138 285.313 52.1784C285.313 59.0429 290.497 64.6077 296.892 64.6077Z" fill="#FFB31E"/>
<path d="M196.282 159.817C196.267 159.817 196.253 159.815 196.239 159.815C169.756 159.815 148.212 181.362 148.212 207.845C148.212 231.32 165.528 251.701 189.018 255.266L189.019 255.292C195.479 255.923 197.861 256.419 206.563 254.723C206.601 254.721 206.638 254.72 206.676 254.719V254.693C228.743 249.781 244.266 229.929 244.266 207.845C244.266 207.845 244.266 207.845 244.266 207.845C244.266 181.62 222.808 159.848 196.282 159.817ZM206.116 251.117C204.753 251.167 202.395 251.351 189.349 251.671C167.74 248.284 151.819 229.505 151.819 207.845C151.819 183.349 171.745 163.423 196.239 163.423C196.254 163.423 196.268 163.425 196.283 163.425C217.143 163.442 235.259 178.202 239.637 198.447C239.54 204.665 239.676 209.942 238.904 220.085C234.59 235.096 222.23 247.44 206.116 251.117Z" fill="#311255"/>
<path d="M221.01 186.15H171.467C166.417 186.15 162.28 190.286 162.28 195.337V228.67C162.28 233.769 166.417 237.858 171.467 237.858H221.01C226.109 237.858 230.197 233.769 230.197 228.67V195.337C230.197 190.286 226.109 186.15 221.01 186.15ZM172.766 227.756C172.766 228.718 171.948 229.536 170.986 229.536C169.976 229.536 169.158 228.718 169.158 227.708L169.255 198.511C169.255 196.098 172.862 196.111 172.862 198.511L172.766 227.756ZM178.346 220.975L178.249 207.218C178.249 206.208 179.067 205.39 180.029 205.39C181.039 205.486 181.857 206.208 181.857 207.169L181.953 220.975C181.953 223.374 178.346 223.388 178.346 220.975ZM191.573 228.622C191.573 231.01 187.966 231.067 187.966 228.622V197.261C187.966 196.299 188.783 195.481 189.745 195.481C190.755 195.481 191.573 196.299 191.573 197.261V228.622ZM197.153 219.916L196.768 205.486C196.658 203.293 200.248 202.84 200.375 205.39L200.76 219.82C200.874 222.095 197.275 222.357 197.153 219.916ZM206.532 228.863L206.147 197.02C206.147 194.559 209.755 194.651 209.755 196.973L210.14 228.814C210.25 231.119 206.65 231.341 206.532 228.863ZM217.403 221.744C217.355 221.744 217.355 221.744 217.355 221.744C216.393 221.744 215.575 220.975 215.527 220.012L215.142 206.015C215.029 203.642 218.637 203.55 218.749 205.919L219.134 219.916C219.182 220.926 218.413 221.744 217.403 221.744Z" fill="#311255"/>
<path d="M94.1638 211.593L44.1334 211.104C44.1264 211.104 44.1193 211.104 44.1146 211.104C41.7355 211.104 41.7257 214.69 44.0958 214.712L94.1263 215.2C94.1334 215.2 94.1404 215.2 94.1451 215.2C96.5243 215.2 96.5341 211.615 94.1638 211.593Z" fill="#311255"/>
<path d="M68.5191 225.258H48.995C46.6092 225.258 46.6077 228.865 48.995 228.865H68.5191C70.9049 228.865 70.9064 225.258 68.5191 225.258Z" fill="#311255"/>
<path d="M298.21 137.114L281.273 107.079C293.735 100.173 293.714 82.5268 281.209 75.6641C281.527 75.183 290.898 61.0106 290.3 61.9152C299.305 65.4116 308.241 58.176 308.241 48.5891C308.241 40.74 302.238 34.3564 294.858 34.3564C281.901 34.3564 276.476 52.1294 287.147 60.182L277.826 74.2421C265.774 70.5665 254.594 79.711 254.594 91.3888C254.594 103.067 265.814 112.281 277.932 108.503L295.085 138.921C286.889 144.716 282.575 155.326 286.329 166.173C266.346 178.785 258.814 183.91 256.118 186.387C252.863 177.308 248.489 170.889 243.041 164.944C242.827 157.982 242.235 149.015 239.67 140.233C239.085 138.253 238.206 135.86 236.709 133.755C236.496 133.075 238.389 136.192 207.701 90.1365C205.296 86.5572 200.833 84.3354 196.054 84.3354H80.9031C78.5173 84.3354 78.5159 87.9429 80.9031 87.9429H121.253L106.613 125.962C58.4863 126.375 63.8542 126.863 53.0673 127.062C48.6277 127.149 43.5805 127.282 39.1916 128.493C69.8889 86.9688 65.0678 92.6919 67.206 90.7736C68.8215 92.0624 70.4697 93.313 72.1757 94.4908C74.1376 95.8479 76.1904 92.8747 74.2237 91.5221C67.0111 86.5431 60.6204 80.5118 55.2327 73.588C53.7623 71.6919 50.9224 73.932 52.3861 75.8051C55.9549 80.3873 59.988 84.5491 64.3515 88.3409C63.3246 89.3556 30.8092 133.752 31.1921 133.271C27.5938 137.792 27.1432 143.418 26.6217 149.045C24.2863 174.344 25.3673 217.134 26.0909 226.629C27.4145 248.626 30.2541 254.367 58.0558 254.616C76.5757 254.798 72.1688 255.928 142.145 255.965C142.217 256.245 142.219 256.519 142.306 256.8C142.362 256.98 142.463 257.153 142.525 257.333C123.097 270.753 115.23 279.561 108.894 285.298C104.061 289.944 99.0604 294.749 96.6766 301.518C93.7126 309.935 96.6813 320.011 103.732 325.474C117.585 336.203 132.064 325.68 141.852 311.072C157.23 286.852 155.534 286.936 162.699 272.997C163.51 273.069 163.334 273.142 164.348 273.142C168.883 273.142 172.735 271.323 175.676 268.016C224.434 284.687 271.729 239.487 257.314 190.008C257.684 189.829 258 189.57 258.171 189.22C260.094 187.364 274.39 177.994 287.79 169.519C291.804 177.09 299.674 182.315 308.823 182.315C322.002 182.315 332.723 171.596 332.723 158.416C332.723 141.135 314.526 128.944 298.21 137.114ZM285.083 48.5891C285.083 42.7316 289.468 37.9639 294.858 37.9639C300.248 37.9639 304.633 42.7316 304.633 48.5891C304.633 54.4466 300.249 59.2143 294.858 59.2143C289.468 59.2143 285.083 54.4465 285.083 48.5891ZM196.054 87.9427C199.647 87.9427 202.964 89.5539 204.704 92.1421L229.306 128.984C219.675 126.957 206.347 126.695 193.205 126.385C178.115 126.004 168.536 125.979 158.61 125.905L148.951 87.9427H196.054ZM141.635 252.359C67.7491 252.367 79.1444 251.212 58.0862 251.008C33.4128 250.802 30.9247 246.844 29.8204 228.466C27.781 187.155 28.9004 166.413 30.2925 148.537C31.6503 133.876 34.6654 131.021 53.1352 130.669C65.3314 130.451 59.467 129.979 106.443 129.571L116.548 164.661C117.139 166.713 119.894 167.074 120.994 165.242L131.877 147.112C132.738 145.677 134.753 145.512 135.837 146.787L147.975 161.075C149.29 162.624 151.81 161.986 152.231 159.998L158.679 129.512C171.688 129.635 199.171 129.76 217.624 130.951C220.071 131.111 222.589 131.539 226.419 132.139C231.067 132.833 233.934 133.582 236.211 141.252C238.195 148.05 238.934 155.011 239.259 161.015C227.666 150.356 212.43 144.281 196.239 144.281C144.781 144.281 114.938 202.298 144.001 244.063C142.371 246.636 141.572 249.436 141.635 252.359ZM138.858 309.066C130.422 321.642 119.017 332.758 105.94 322.618C100.082 318.08 97.616 309.71 100.077 302.72C102.177 296.754 106.654 292.452 111.395 287.9C119.318 280.726 124.998 273.902 144.051 260.664C147.113 266.052 152.477 270.458 158.987 272.298C152.4 285.38 153.327 286.266 138.858 309.066ZM231.401 256.504C192.342 284.702 136.234 257.286 136.234 207.845C136.234 174.786 163.152 147.889 196.24 147.889C216.696 147.889 235.549 158.153 246.672 175.349H246.674C263.853 201.769 257.431 237.686 231.401 256.504ZM308.823 178.708C297.634 178.708 288.533 169.604 288.533 158.416C288.533 147.227 297.634 138.123 308.823 138.123C320.012 138.123 329.115 147.227 329.115 158.416C329.115 169.604 320.012 178.708 308.823 178.708Z" fill="#311255"/>
<path d="M221.919 279.097L222.257 331.199C222.274 333.608 225.882 333.574 225.865 331.18L225.526 279.078C225.514 276.498 221.903 276.846 221.919 279.097Z" fill="#311255"/>
<path d="M239.53 271.709C237.819 270.048 235.302 272.627 237.012 274.292L249.528 286.472C251.24 288.139 253.753 285.551 252.046 283.889L239.53 271.709Z" fill="#311255"/>
<path d="M52.1321 72.8315C54.1697 72.8315 54.6364 69.9617 52.7005 69.318C51.1659 68.8023 50.4301 66.5915 51.0659 65.0482C51.7517 63.3853 53.8208 62.3613 55.8806 62.211C60.7113 62.2561 63.9188 66.8202 66.3578 70.9902C67.5632 73.0422 70.6776 71.2294 69.4721 69.1676C66.2731 63.708 62.2555 58.675 55.9182 58.6035C50.0752 58.7128 45.3808 63.8242 47.8953 69.3273C48.9435 71.6245 51.0559 72.8315 52.1321 72.8315Z" fill="#311255"/>
<path d="M76.0482 61.4778C77.4093 63.3834 80.3833 61.3429 78.984 59.3829C76.619 56.0666 74.8669 52.3981 73.7724 48.4759C73.1203 46.1421 69.6602 47.1663 70.2965 49.4435C71.5036 53.7743 73.4389 57.8234 76.0482 61.4778Z" fill="#311255"/>
<path d="M91.0917 68.6509C92.255 70.7135 95.3947 68.9397 94.2341 66.8753C88.8223 57.277 83.3771 37.5309 92.947 31.7492C95.8828 29.9784 99.9295 30.2695 102.569 32.4538C105.214 34.638 106.271 38.5555 105.085 41.7685C104.255 44.016 107.649 45.2471 108.467 43.0179C110.17 38.4099 108.655 32.7967 104.866 29.673C101.085 26.5494 95.2887 26.1219 91.0823 28.6584C79.4769 35.6837 84.4284 56.8216 91.0917 68.6509Z" fill="#311255"/>
</svg>
