<svg width="360" height="238" viewBox="0 0 360 238" fill="none" xmlns="http://www.w3.org/2000/svg">
<g clip-path="url(#clip0_1049_1551)">
<path d="M311.484 202.4C306.683 202.405 297.206 202.331 283.055 202.174" stroke="#F5F1F9" stroke-miterlimit="10"/>
<path d="M283.054 202.17C284.809 200.672 286.972 199.233 289.541 197.852C292.371 196.334 294.884 194.036 297.081 190.951C302.513 183.317 302.459 173.125 296.552 165.678C293.418 161.724 289.285 159.671 284.153 159.509C280.657 159.396 277.644 159.823 275.109 160.786" stroke="#F5F1F9" stroke-miterlimit="10"/>
<path d="M275.107 160.789C276.366 154.909 277.493 148.931 278.495 142.845C279.087 139.235 279.572 135.295 279.954 131.027C280.068 129.784 279.975 128.615 279.676 127.524C279.112 125.461 276.348 124.66 274.475 124.596C271.636 124.493 267.959 124.562 263.438 124.808C262.484 124.856 261.453 124.833 260.347 124.731" stroke="#F5F1F9" stroke-miterlimit="10"/>
<path d="M260.347 124.728C263.088 118.176 263.064 111.32 260.275 104.152C259.387 101.877 257.994 100.232 256.087 99.2044" stroke="#F5F1F9" stroke-miterlimit="10"/>
<path d="M256.085 99.2109C254.771 97.9777 253.311 96.9707 251.707 96.2005C251.169 95.9402 250.721 95.5369 250.668 94.9075C250.349 91.1204 248.869 87.7664 247.442 84.1948" stroke="#F5F1F9" stroke-miterlimit="10"/>
<path d="M247.445 84.1855C247.861 83.0913 248.067 82.045 248.052 81.057C248.027 78.9498 247.846 76.6154 247.405 74.3664C246.195 68.2511 245.022 62.8486 243.88 58.1569C243.474 56.4811 242.856 54.4489 242.018 52.0666C241.62 50.9306 241.121 49.8051 240.518 48.7005C239.886 47.5458 239.301 46.3723 238.758 45.178C237.158 41.6722 234.718 38.3061 231.434 35.0796C230.581 34.2396 229.256 33.2183 227.463 32.0094C226.849 31.603 226.252 31.3425 225.664 31.2382C225.079 31.1361 224.515 30.9631 223.966 30.7172C223.8 30.6442 223.629 30.6255 223.448 30.6588C223.188 30.7088 222.957 30.6546 222.755 30.5025C222.643 30.4087 222.51 30.3587 222.364 30.3503L219.564 30.1273" stroke="#F5F1F9" stroke-miterlimit="10"/>
<path d="M219.564 30.1317C210.354 28.2103 198.077 32.8024 192.582 40.4078C192.008 41.2032 191.444 42.1268 190.89 43.1726C190.366 44.1704 189.822 45.088 189.259 45.9375" stroke="#F5F1F9" stroke-miterlimit="10"/>
<path d="M189.257 45.9394C186.006 49.1718 183.953 52.9386 183.09 57.2378C182.241 61.4575 181.78 64.3394 181.718 65.8931C181.477 71.6399 180.712 77.3128 179.422 82.908C179.252 83.6451 179.03 84.3178 178.756 84.9222C178.35 85.8298 178.002 86.4494 177.716 86.7791C176.909 87.7113 176.152 88.7231 175.462 89.8145" stroke="#F5F1F9" stroke-miterlimit="10"/>
<path d="M175.462 89.8119C173.722 91.0262 172.697 91.9632 172.388 92.6211C171.335 94.8909 173.222 96.0596 175.086 96.5467C175.541 96.6651 175.541 96.797 175.096 96.9391C172.766 97.6867 170.702 99.0956 168.913 101.169C165.329 105.309 164.516 111.209 164.585 116.672C164.711 126.899 164.953 137.287 165.854 147.613C166.286 152.525 168.227 156.337 171.673 159.043C172.483 159.677 173.325 160.065 174.193 160.203C177.766 160.763 180.502 159.265 182.39 155.703C183.488 153.636 184.071 151.74 184.14 150.004" stroke="#F5F1F9" stroke-miterlimit="10"/>
<path d="M184.139 150.011C190.102 145.737 193.945 140.85 198.504 135.737C202.449 131.305 206.917 127.926 211.897 125.592C214.108 124.562 216.129 124.03 217.961 124.002C224.575 123.892 231.167 123.839 237.737 123.839C239.663 123.839 241.756 124.179 244.026 124.857C244.072 124.871 244.1 124.896 244.121 124.931C244.139 124.97 244.15 125.009 244.15 125.052C244.15 125.077 244.139 125.087 244.115 125.091L243.802 125.145" stroke="#F5F1F9" stroke-miterlimit="10"/>
<path d="M243.801 125.142C237.855 125.04 233.82 125.049 231.698 125.178C227.555 125.428 224.451 125.48 222.393 125.343C219.348 125.138 217.182 125.108 215.883 125.25C211.54 125.732 207.661 128.624 205.926 132.834C204.828 135.498 204.471 138.14 204.205 141.009C203.945 143.823 203.348 146.491 202.666 149.197C202.598 149.467 202.302 149.605 202.053 149.482C198.115 147.532 194.277 147.517 190.537 149.433C189.203 150.116 187.93 151.25 187.474 152.699C187.203 153.554 186.88 154.414 186.502 155.273C186.243 155.858 186.125 156.757 186.15 157.98C186.184 159.507 187.13 160.677 188.335 161.438C191.494 163.432 195.419 163.177 198.857 161.546C199.264 161.354 199.743 161.404 200.096 161.674C201.397 162.666 202.769 163.398 204.209 163.869C206.627 164.665 209.186 165.422 211.897 166.139C215.182 167.008 218.833 167.47 222.137 167.573C228.412 167.77 238.756 167.996 253.165 168.246" stroke="#F5F1F9" stroke-miterlimit="10"/>
<path d="M253.163 168.244L253.286 168.421C253.409 168.593 253.364 168.701 253.159 168.745C248.766 169.654 245.246 170.563 242.603 171.481C236.902 173.461 231.299 175.357 225.799 177.165C224.907 177.454 224.206 177.499 223.696 177.287C220.17 175.858 216.631 174.502 213.189 172.97C206.533 169.998 200.146 167.188 194.027 164.531C192.482 163.858 190.859 163.322 189.365 162.576C184.702 160.237 179.623 159.918 174.427 161.392C168.597 163.047 164.456 168.652 163.628 174.527C163.224 177.376 163.368 180.549 164.059 184.051C166.637 197.147 177.02 208.047 190.496 209.967C193.786 210.434 197.629 210.601 202.037 210.459C208.297 210.257 214.307 209.658 220.073 208.666" stroke="#F5F1F9" stroke-miterlimit="10"/>
<mask id="mask0_1049_1551" style="mask-type:luminance" maskUnits="userSpaceOnUse" x="-91" y="-149" width="430" height="504">
<path d="M-90.9409 -148.186H338.49V354.791H-90.9409V-148.186Z" fill="white"/>
</mask>
<g mask="url(#mask0_1049_1551)">
<path d="M37.2261 204.561C37.5205 204.561 37.8048 204.65 38.0401 204.817C41.202 207.032 45.6926 207.955 49.5506 208.54C50.987 208.756 53.7031 209.011 57.6984 209.311C62.1595 209.645 66.5764 209.822 70.9543 209.846M220.074 208.673C224.879 209.788 230.465 210.844 236.843 211.841C241.251 212.534 245.008 211.581 248.1 208.987C248.389 208.741 249.027 208.604 249.4 208.653C258.165 209.842 265.411 210.485 271.143 210.578C274.108 210.627 277.515 209.011 279.627 206.747C280.308 206.015 281.044 205.337 281.839 204.703C281.98 204.591 282.147 204.537 282.328 204.537" stroke="#F5F1F9" stroke-miterlimit="10"/>
</g>
<path d="M70.9539 209.841C76.92 210.961 82.6999 210.716 88.2984 209.105C89.6073 208.726 90.5485 207.857 91.1172 206.496" stroke="#F5F1F9" stroke-miterlimit="10"/>
<path d="M91.1165 206.504C93.1417 206.19 94.6118 206.101 95.5341 206.244C97.2447 206.508 98.9596 206.788 100.68 207.088C108.181 208.385 115.741 208.945 123.354 208.772C126.8 208.699 129.433 208.448 131.251 208.022C134.384 207.289 138.248 206.591 141.072 205.025C143.184 203.851 144.993 202.324 146.493 200.452" stroke="#F5F1F9" stroke-miterlimit="10"/>
<path d="M146.494 200.446C149.161 197.656 150.533 194.336 150.607 190.479C150.671 187.036 150.568 182.905 150.298 178.081" stroke="#F5F1F9" stroke-miterlimit="10"/>
<path d="M150.299 178.081C151.079 177.094 152.304 175.782 153.985 174.146C156.597 171.601 158.579 168.537 159.936 164.951C160.79 162.69 160.985 160.107 160.53 157.204C159.956 153.595 156.896 150.538 154.289 148.156C154.205 148.077 154.216 147.945 154.314 147.886C156.647 146.436 158.235 144.339 159.078 141.604C160.661 136.456 160.697 130.389 160.486 125.03C160.265 119.474 160.167 114.067 160.201 108.815C160.217 106.216 160.133 103.86 159.956 101.742" stroke="#F5F1F9" stroke-miterlimit="10"/>
<path d="M159.956 101.742C160.613 100.661 161.015 99.4924 161.162 98.2351C161.284 97.1777 161.313 95.9511 161.25 94.5503C161.138 92.0699 160.284 89.9277 158.7 88.1152C157.338 86.5589 156.146 85.4537 155.126 84.8045C149.563 81.2838 143.622 78.4582 137.302 76.3366" stroke="#F5F1F9" stroke-miterlimit="10"/>
<path d="M137.302 76.3359C132.934 73.949 129.841 72.363 128.022 71.5761C127.262 71.247 126.11 71.0607 124.571 71.0172C124.302 71.0068 124.062 71.0904 123.855 71.2714C123.296 71.7589 122.639 72.0827 121.89 72.2394C121.615 72.2986 121.379 72.4797 121.257 72.7304L120.257 74.7499" stroke="#F5F1F9" stroke-miterlimit="10"/>
<path d="M120.257 74.7482C119.041 75.0386 117.841 75.4217 116.66 75.9079C115.439 76.4044 114.854 77.2342 113.841 77.9025C111.531 79.4247 109.427 80.8781 107.521 82.2594C105.599 83.6493 102.824 85.0495 99.1963 86.4531" stroke="#F5F1F9" stroke-miterlimit="10"/>
<path d="M99.1953 86.4557C96.3225 86.0126 93.6656 84.8734 91.2246 83.0416C88.6791 81.1348 88.8028 79.1356 88.4841 76.3304C88.2578 74.3172 86.8614 71.6742 84.7286 71.0008C82.8953 70.4269 80.4833 71.4876 79.0027 72.5238C77.1203 73.8409 75.3064 74.7306 73.5612 75.1912C69.9531 76.1437 66.5117 77.569 63.0652 79.0972C56.0647 82.206 50.1035 87.9821 48.368 95.4191C47.5003 99.1472 46.9464 103.5 46.7159 108.48C46.4414 114.443 46.0639 121.134 45.5835 128.551C45.3335 132.398 45.3286 136.205 45.5787 139.971C45.6325 140.793 45.7601 141.716 45.9659 142.743" stroke="#F5F1F9" stroke-miterlimit="10"/>
<path d="M125.536 42.8304C123.688 43.5952 122.683 44.8045 122.531 46.4607C122.325 48.6797 122.026 50.8665 121.634 53.0125C121.58 53.3218 121.909 53.5538 122.178 53.4013L123.845 52.4583L124.428 53.47C124.522 53.6311 124.659 53.7106 124.846 53.6999C125.345 53.6805 125.795 53.513 126.203 53.1951C129.384 50.7183 130.786 46.6562 127.596 43.4104C126.957 42.766 126.271 42.5705 125.536 42.8304ZM86.2442 52.6537C86.4843 52.6881 86.6119 52.5807 86.6168 52.3358C86.7 49.9514 86.548 47.7517 86.1707 45.7325C85.7246 43.3417 84.244 41.8766 81.7389 41.3461C81.5282 41.3031 81.3221 41.4406 81.2878 41.6554C80.7094 45.247 81.6703 48.553 84.1754 51.584C84.6754 52.1876 85.3668 52.542 86.2442 52.6537ZM104.285 28.5347C100.53 28.4961 97.3627 26.8549 93.784 26.0214C93.3477 25.9183 92.8966 26.1181 92.681 26.5112C91.5632 28.5111 90.8278 30.6871 90.4406 32.9362C89.6562 37.4945 89.362 42.1087 89.5533 46.7744C89.8817 54.7267 90.7836 63.1022 96.7058 68.8892C100.368 72.4701 104.55 73.1274 109.246 70.8633C111.898 69.5852 113.888 67.8431 115.212 65.6326C117.163 62.3847 118.389 58.5331 118.894 54.0779C118.967 53.4163 119.139 52.7762 119.399 52.1726C120.281 50.1147 120.693 48.031 120.629 45.9301C120.59 44.5876 120.83 43.3696 121.345 42.2655C121.688 41.533 121.923 40.7425 122.051 39.8875C122.659 35.7266 123.737 28.8011 119.158 26.2663C118.301 25.7894 117.149 25.7057 116.261 26.1396C112.874 27.785 108.878 28.5841 104.285 28.5347ZM90.9946 15.3475C89.2051 18.2152 88.107 21.1667 87.6903 24.2041C87.0677 28.8054 87.3275 33.4045 88.4747 37.9907C88.4895 38.0315 88.4944 38.0315 88.4991 37.9864C88.5825 37.1465 88.6709 36.3216 88.7639 35.5118C88.9944 33.5162 89.4993 31.207 90.2788 28.5798C91.1367 25.6971 93.1222 23.2654 96.4411 24.1397C97.5441 24.4297 98.7058 24.8078 99.9167 25.2739C103.873 26.7926 109.001 26.2212 113.192 25.3534C115.614 24.8464 117.825 22.5479 120.409 24.0173C125.783 27.0762 124.792 36.0166 123.286 40.8842C123.257 40.9723 123.355 41.0518 123.437 41.0067C124.365 40.4976 125.238 40.1968 126.066 40.1131C126.213 40.0937 126.336 39.9949 126.381 39.8531L128.023 34.4657C129.007 31.2628 129.541 28.5347 129.624 26.29C129.856 19.9681 123.864 17.966 118.703 15.7191C117.158 15.0467 114.285 13.3024 110.089 10.4927C107.001 8.42623 102.956 6.77003 99.5147 8.24793C96.0586 9.73658 93.0731 12.0995 90.9946 15.3475ZM123.223 56.2261L121.173 55.8179C120.811 55.7427 120.458 55.9747 120.374 56.3335C119.992 57.9188 119.575 59.4268 119.119 60.8531C117.173 66.9967 112.325 72.3519 105.908 74.0511C101.922 75.108 98.353 74.0661 95.191 70.9213C90.8475 66.61 88.8424 61.4266 88.1364 55.4785C88.112 55.2422 87.9797 55.109 87.7443 55.0747C86.8569 54.9522 86.146 55.036 85.6214 55.3174C80.876 53.0705 78.7827 49.3328 79.3466 44.1021C79.4102 43.4792 79.7927 42.1366 80.4938 40.083C80.7978 40.04 81.3221 39.8682 82.0674 39.5739C83.8763 38.8564 85.7048 40.8499 86.7343 42.1774C87.0139 42.5404 87.1168 42.4953 87.0383 42.0399C86.6657 39.8574 86.2687 37.5547 85.847 35.1337C85.504 33.1575 85.3813 30.2253 85.4793 26.3394C86.7393 17.1583 91.8035 9.46807 100.436 6.26523C104.804 4.6434 109.192 7.01492 112.913 9.47666C116.624 11.932 120.698 14.123 124.771 15.8329C129.193 17.6846 131.83 21.1087 131.429 26.1589C131.061 30.6979 129.341 35.7116 127.517 40.0443C127.472 40.1474 127.521 40.2656 127.631 40.3042C130.896 41.4255 132.062 45.4382 131.149 48.5186C130.017 52.3401 127.311 55.5365 123.223 56.2261Z" fill="#311255"/>
<path d="M128.023 34.4619C127.838 31.3575 127.454 29.0944 126.881 27.6681C125.66 24.662 123.414 21.9611 120.145 19.5634C117.252 17.4475 113.379 15.0498 108.521 12.3725C105.521 10.7178 102.741 10.0794 100.187 10.4466C97.2801 10.8651 94.2161 12.5006 90.9954 15.3445C93.074 12.097 96.0595 9.73565 99.5155 8.2475C102.957 6.7679 107.002 8.42259 110.09 10.4915C114.286 13.3012 117.159 15.0456 118.704 15.7181C123.866 17.9621 129.856 19.9669 129.625 26.2889C129.542 28.5328 129.007 31.2593 128.023 34.4619Z" fill="white"/>
<path d="M128.022 34.4617L126.38 39.8501C126.336 39.9939 126.214 40.0912 126.066 40.1102C125.239 40.1948 124.365 40.4951 123.438 41.0048C123.356 41.0492 123.257 40.9709 123.286 40.8821C124.791 36.0139 125.783 27.0748 120.41 24.0148C117.826 22.545 115.615 24.8437 113.193 25.3492C109.002 26.2204 103.874 26.7893 99.9176 25.2709C98.7066 24.8057 97.5447 24.4271 96.4417 24.1374C93.1228 23.2619 91.1374 25.6939 90.2795 28.5784C89.5 31.2049 88.995 33.5143 88.7647 35.5085C88.6714 36.3184 88.5832 37.1432 88.4998 37.9849C88.495 38.0293 88.4901 38.0293 88.4754 37.9891C87.3283 33.4001 87.0685 28.8026 87.6911 24.2009C88.1077 21.1641 89.2058 18.2119 90.9952 15.3442C94.2161 12.4999 97.28 10.8652 100.187 10.4465C102.741 10.0785 105.521 10.7171 108.521 12.373C113.379 15.0503 117.252 17.4463 120.144 19.5632C123.415 21.9613 125.661 24.6619 126.881 27.6691C127.455 29.0923 127.837 31.3572 128.022 34.4617Z" fill="#FFB31E"/>
<path d="M104.285 28.5411C108.878 28.5916 112.873 27.7901 116.262 26.1447C117.148 25.7127 118.301 25.7954 119.159 26.2719C123.737 28.8076 122.659 35.7324 122.05 39.8933C121.923 40.7493 121.688 41.5387 121.345 42.2716C120.829 43.3759 120.59 44.5953 120.63 45.9359C120.692 48.0375 120.281 50.121 119.399 52.1783C119.139 52.7839 118.968 53.4219 118.893 54.0841C118.389 58.5398 117.162 62.3918 115.212 65.6382C113.888 67.8489 111.897 69.5912 109.246 70.8691C104.549 73.1343 100.368 72.4762 96.7055 68.8947C90.7835 63.1085 89.8815 54.7322 89.553 46.7797C89.3618 42.1141 89.656 37.5009 90.4402 32.9423C90.8276 30.6932 91.5629 28.5169 92.6805 26.5182C92.8963 26.1245 93.3475 25.9246 93.7837 26.0276C97.3623 26.8614 100.529 28.5027 104.285 28.5411Z" fill="#FFB31E"/>
<path d="M85.4803 26.3355C85.3822 30.2205 85.5049 33.1543 85.8479 35.1291C86.2697 37.5491 86.6666 39.8542 87.0393 42.0345C87.1177 42.4919 87.0147 42.5362 86.7352 42.1715C85.7058 40.8456 83.8772 38.8508 82.0683 39.5681C81.3232 39.8643 80.7985 40.0356 80.4946 40.0799C80.676 37.0675 81.1711 34.4117 81.98 32.1025C82.6663 30.158 83.8331 28.2357 85.4803 26.3355Z" fill="#FFB31E"/>
<path d="M251.924 203.011C250.917 204.052 250.569 205.202 250.89 206.459C252.605 206.818 254.222 206.931 255.743 206.808C260.671 207.255 265.605 207.682 270.548 208.095C274.24 208.405 277.135 207.255 279.236 204.642C279.79 203.743 280.101 203.031 280.184 202.51C280.28 201.935 280.141 201.405 279.778 200.928C277.123 197.436 271.866 195.889 267.647 195.775C265.494 195.721 263.267 196.773 261.234 197.372C258.121 198.291 254.869 198.389 251.484 197.672C251.312 197.637 251.238 197.706 251.262 197.878L251.924 203.011ZM265.916 167.934C266.338 167.718 266.784 167.674 267.234 167.575C267.268 167.566 267.283 167.546 267.274 167.511L267.243 167.393C267.228 167.315 267.145 167.266 267.068 167.29C266.224 167.536 265.355 167.605 264.468 167.492C264.21 167.462 264.185 167.526 264.391 167.688C264.921 168.106 265.429 168.184 265.916 167.934ZM226.526 207.171C230.705 208.252 234.789 209.117 238.786 209.76C240.908 210.104 242.947 209.848 244.899 208.989C246.415 208.321 247.634 207.417 248.552 206.282C250.212 203.492 250.243 200.751 248.638 198.055C248.022 197.018 247.111 196.394 246.067 195.854C231.007 188.108 215.931 180.523 200.846 173.101C195.89 170.66 191.174 168.597 186.698 166.912C182.011 165.149 176.697 164.279 172.217 167.123C170.476 168.224 169.805 169.771 170.202 171.765C170.849 175.022 172.187 177.876 174.212 180.327C175.967 182.444 177.413 183.986 178.55 184.954C188.277 193.256 199.292 199.45 211.592 203.537C214.617 204.544 219.593 205.752 226.526 207.171ZM188.649 157.962C187.992 157.063 187.86 156.13 187.477 155.143C187.365 154.853 187.286 154.858 187.237 155.167C187.027 156.484 187.242 157.535 187.884 158.326C189.046 159.755 190.546 160.688 192.39 161.121C192.404 161.126 192.409 161.121 192.414 161.111L192.453 160.988C192.478 160.915 192.434 160.836 192.36 160.807C190.841 160.212 189.605 159.264 188.649 157.962ZM199.738 151.331C196.944 150.349 193.963 149.695 191.164 150.8C189.502 151.459 188.223 153.242 189.134 155.035C190.238 157.211 193.199 160.03 195.958 159.883C197.15 159.819 198.366 159.549 199.616 159.068C200.508 158.724 200.841 157.962 201.018 157.093C201.326 155.604 201.503 154.126 201.552 152.657C201.562 152.461 201.474 152.269 201.312 152.151C200.856 151.813 200.331 151.542 199.738 151.331ZM264.767 165.488L271.401 164.928C271.576 164.913 271.699 164.824 271.764 164.662L273.107 161.342C275.346 151.788 276.99 142.057 278.025 132.154C278.096 131.452 278.167 129.752 277.797 128.947C277.098 127.439 274.514 126.781 272.999 126.756C267.921 126.673 261.875 126.795 254.859 127.129C251.826 127.272 248.777 127.635 245.78 127.458C240.264 127.124 234.672 127.095 229.005 127.37C225.639 127.537 222.245 127.458 218.9 127.247C214.921 126.997 210.979 127.66 208.69 131.079C207.361 133.068 206.577 135.362 206.347 137.965C206.121 140.47 205.969 141.92 205.896 142.312C205.45 144.675 204.925 147.048 204.322 149.425C204.19 149.946 204.376 150.491 204.797 150.825C206.013 151.773 207.396 152.702 207.499 154.416C207.533 154.961 207.307 155.104 206.827 154.848L203.964 153.316C203.753 153.202 203.498 153.33 203.459 153.566C203.229 155.04 202.959 156.479 202.645 157.879C202.229 159.735 203.136 161.106 204.852 161.656C210.43 163.444 215.862 165.026 221.524 165.286C232.741 165.792 244.056 166.062 255.472 166.087C256.806 166.092 259.904 165.89 264.767 165.488ZM196.728 85.8728L194.684 88.4711C194.591 88.5893 194.615 88.6433 194.767 88.6284C196.282 88.5007 197.341 88.9772 197.944 90.0628C198.782 91.561 199.547 92.9511 200.238 94.233C202.474 97.9907 205.572 100.093 209.538 100.55C213.171 100.968 217.813 100.82 220.397 97.7305C223.394 94.1398 224.632 89.8563 224.117 84.8708C224.114 84.4039 224.016 84.0061 223.825 83.6818C223.695 83.4707 223.403 83.4411 223.236 83.6229C219.368 87.7835 213.563 91.1336 207.793 88.476C203.312 86.4131 201.184 82.616 199.204 78.2198C198.969 77.6989 198.831 77.7236 198.792 78.2933C198.611 80.774 197.924 83.3038 196.728 85.8728ZM191.904 61.3025C191.14 64.2449 191.483 67.0447 192.939 69.7022C193.62 70.9449 194.708 71.6571 196.209 71.8339C196.424 71.8586 196.606 71.662 196.557 71.451C195.89 68.5969 195.272 65.4632 194.699 62.0542C194.537 61.0815 193.762 60.3348 192.748 60.5165C192.336 60.5903 192.007 60.8998 191.904 61.3025ZM200.008 74.5307C202.121 79.4724 205.636 85.8678 211.479 86.9337C214.122 87.4101 216.455 86.9877 218.469 85.6614C221.771 83.4905 223.951 80.4401 225.013 76.5103C226.427 71.2985 231.065 50.2258 220.015 51.3456C216.298 51.724 212.577 52.9765 208.989 54.0374C202.807 55.8698 199.807 51.395 198.851 46.0666C198.826 45.9185 198.65 45.8506 198.527 45.9432C196.464 47.5682 196.561 53.5023 196.753 56.3315C197.194 62.7957 197.449 68.5379 200.008 74.5307ZM191.595 45.0791C189.08 50.2652 187.321 55.8748 186.325 61.9067C185.257 68.4006 184.605 74.7664 182.894 81.2258C182.036 84.4579 180.56 87.0812 178.467 89.0901C177.163 90.3426 175.805 91.5804 174.393 92.8086C174.124 93.0443 174.119 93.4668 174.388 93.7075C175.158 94.3904 176.021 94.8372 176.987 95.0535C183.384 96.4878 188.228 93.177 192.596 88.8543C196.733 84.7529 197.405 80.3664 197.081 74.9531C197.067 74.747 196.851 74.6192 196.665 74.7075C193.723 76.1418 190.679 71.9077 189.889 69.6334C188.468 65.5613 189.164 61.9508 191.983 58.8072C191.998 59.2837 192.076 59.5343 192.223 59.5488C192.983 59.6225 193.767 59.6963 194.576 59.775C194.743 59.7895 194.821 59.716 194.816 59.5438L194.473 53.2468C194.591 51.611 194.91 49.8721 195.424 48.0302C195.728 46.9495 197.459 42.8234 198.993 43.2801C199.719 43.4961 200.371 43.78 200.954 44.1349C201.121 44.2367 201.214 44.4311 201.189 44.6255C200.974 46.4042 201.523 48.1823 202.841 49.9557C204.298 51.9156 206.234 52.5787 208.661 51.9498C211.352 51.2524 214.009 50.5893 216.627 49.9557C219.02 49.3759 221.133 49.1698 222.959 49.3318C229.642 49.936 229.353 60.2659 228.814 64.8932C228.195 70.1984 227.259 75.7144 224.986 80.6413C224.912 80.7987 224.964 80.9851 225.112 81.0835C225.663 81.4322 225.974 81.9185 226.058 82.5376C226.221 83.7654 226.31 85.0526 226.335 86.3983C226.338 86.8306 226.624 87.2136 227.04 87.3413L233.27 89.262L241.173 91.8754L245.1 93.3242L247.625 94.4543C247.831 94.5474 248.072 94.4148 248.096 94.1889C248.306 92.3272 246.824 88.9525 245.928 87.1942C243.584 81.7417 241.653 76.0977 240.135 70.2623C238.638 64.5445 237.844 58.0361 236.319 51.9696C233.957 42.5641 228.435 35.2476 218.956 32.3345C217.333 31.8346 215.043 31.6525 212.087 31.7945C208.396 32.2728 205.106 33.1615 202.229 34.4638C197.39 36.6578 193.507 40.0368 191.595 45.0791ZM219.562 30.1343C230.8 32.5629 236.923 42.45 239.045 53.1682C240.246 59.2346 241.118 65.4826 242.907 71.392C244.228 75.749 245.743 80.0177 247.443 84.1928C248.869 87.7638 250.351 91.1188 250.668 94.906C250.723 95.5346 251.17 95.9376 251.709 96.1978C253.31 96.9692 254.773 97.9762 256.085 99.209C257.511 101.601 258.503 104.598 259.048 108.208C259.904 113.876 260.166 118.896 258.728 124.452C258.684 124.624 258.743 124.742 258.906 124.816C259.168 124.929 259.648 124.904 260.344 124.732C261.453 124.835 262.485 124.86 263.44 124.811C267.961 124.565 271.635 124.496 274.474 124.599C276.347 124.663 279.112 125.464 279.676 127.527C279.975 128.618 280.067 129.787 279.956 131.03C279.574 135.298 279.088 139.238 278.493 142.848C277.496 148.934 276.365 154.912 275.106 160.792L273.399 164.992C273.323 165.178 273.473 165.38 273.677 165.36C280.902 164.721 287.412 166.308 292.152 172.006C295.284 175.773 296.55 180.725 294.896 185.386C293.815 188.452 292.235 190.893 290.166 192.705C287.548 194.999 284.665 196.827 281.524 198.187C281.299 198.281 281.241 198.575 281.407 198.752C282.275 199.68 282.824 200.82 283.055 202.176C297.206 202.333 306.682 202.407 311.484 202.402C344.656 202.338 305.314 202.333 338.489 202.402V204.534H282.328C282.146 204.534 281.98 204.588 281.838 204.701C281.043 205.334 280.307 206.012 279.627 206.744C277.514 209.008 274.108 210.625 271.142 210.575C265.411 210.482 258.164 209.839 249.399 208.65C249.026 208.601 248.389 208.738 248.099 208.984C245.007 211.578 241.25 212.531 236.843 211.838C230.465 210.841 224.878 209.785 220.074 208.67C216.568 207.643 213.127 206.739 209.739 205.953C207.915 205.526 206.18 205.29 204.538 205.246C200.052 205.123 196.052 204.843 192.537 204.406C179.923 202.854 169.133 194.994 166.084 182.144C165.334 178.996 165.368 176.034 166.177 173.249C166.49 172.178 166.696 172.197 166.794 173.308C166.981 175.385 166.981 177.542 167.491 179.556C169.045 185.691 172.055 190.78 176.521 194.822C183.374 201.022 192.743 202.78 201.802 202.942C202.258 202.947 202.282 202.849 201.881 202.638C199.714 201.503 197.557 200.403 195.405 199.332C189.34 196.316 183.659 192.573 178.359 188.108C176.089 186.192 174.114 184.183 172.437 182.085C169.932 178.951 168.657 175.376 168.27 171.431C168 168.68 170.805 166.156 173.099 164.864C177.173 162.575 182.06 162.585 186.335 164.142C196.552 167.86 205.146 172.163 216.392 177.876C226.221 182.867 236.036 187.847 245.836 192.813C250.474 195.162 254.394 196.149 259.67 195.677C261.626 195.505 263.708 194.454 265.7 193.943C270.625 192.676 274.995 193.86 279.322 196.557C279.596 196.728 279.932 196.763 280.233 196.655C284.921 194.994 289.673 192.273 292.05 187.892C294.736 182.95 293.393 177.385 289.79 173.244C284.533 167.202 277.671 167.192 270.292 167.659C268.718 167.762 267.111 168.047 265.475 168.514C262.919 169.245 260.622 169.943 258.57 170.601C249.43 173.539 240.147 176.555 230.729 179.654C229.608 180.023 228.34 180.229 226.926 180.273C226.285 180.293 226.036 180.082 226.178 179.639C226.215 179.526 226.298 179.438 226.412 179.399C237.345 175.636 248.629 171.952 260.274 168.351C260.394 168.312 260.449 168.233 260.434 168.115C260.418 168.003 260.36 167.949 260.249 167.953L253.166 168.248C238.755 167.998 228.414 167.772 222.137 167.575C218.832 167.472 215.181 167.01 211.896 166.141C209.185 165.424 206.626 164.667 204.209 163.871C202.768 163.4 201.395 162.668 200.096 161.676C199.743 161.406 199.263 161.356 198.856 161.548C195.419 163.179 191.492 163.435 188.335 161.44C187.129 160.679 186.183 159.51 186.149 157.982C186.125 156.759 186.242 155.86 186.502 155.275C186.879 154.416 187.203 153.556 187.473 152.702C187.929 151.252 189.203 150.118 190.537 149.435C194.277 147.519 198.116 147.534 202.052 149.484C202.302 149.607 202.596 149.469 202.665 149.199C203.346 146.493 203.945 143.825 204.204 141.011C204.469 138.142 204.827 135.499 205.925 132.837C207.661 128.627 211.538 125.734 215.882 125.253C217.182 125.11 219.347 125.14 222.393 125.346C224.45 125.484 227.554 125.43 231.697 125.179C233.818 125.052 237.853 125.042 243.8 125.145C244.32 125.263 244.859 125.312 245.423 125.297C248.792 125.189 252.158 125.16 255.528 125.214C256.458 125.228 256.43 124.565 256.646 123.917C257.591 121.083 257.874 118.194 257.499 115.252C256.96 111.023 256.566 106.97 255.174 103.217C253.871 99.6953 249.873 97.6765 246.516 96.6597C242.596 95.4711 239.242 94.2676 236.452 93.0493C233.252 91.6492 229.839 90.5343 226.212 89.6992C226.014 89.6551 225.897 89.7289 225.857 89.9251C224.918 94.6604 222.661 98.3397 219.094 100.963C215.71 103.448 210.494 103.419 206.592 102.505C201.361 101.277 198.65 97.6518 196.645 92.8428C196.14 91.6347 195.306 91.0796 194.096 90.7358C193.453 90.554 192.821 90.7111 192.198 91.2172C190.145 92.8774 188.752 94.017 188.022 94.641C185.943 96.4141 183.977 97.1951 181.256 97.5636C180.379 97.6864 179.516 97.8336 178.678 98.0055C171.824 98.5998 167.981 102.594 166.956 109.067C166.692 110.762 166.549 112.034 166.535 112.884C166.344 123.175 166.706 134.099 167.618 145.667C167.991 150.388 169.393 154.239 173.418 157.157C175.472 158.645 178.222 158.576 180.011 156.749C181.526 155.197 182.296 153.256 182.33 150.928C182.207 144.567 181.967 138.181 181.61 131.781C181.467 129.222 181.08 126.967 180.443 125.022C178.688 119.653 177.339 115.134 176.398 111.455C176.266 110.929 176.462 110.629 176.996 110.546L177.825 110.418C178.198 110.359 178.55 110.6 178.634 110.969C179.452 114.662 180.487 118.219 181.747 121.633C182.659 124.103 183.512 127.37 183.659 129.939C183.953 135.043 184.115 141.733 184.139 150.01C184.07 151.744 183.487 153.64 182.389 155.708C180.501 159.269 177.766 160.767 174.192 160.207C173.324 160.07 172.481 159.681 171.672 159.048C168.226 156.341 166.285 152.53 165.853 147.618C164.951 137.292 164.711 126.903 164.583 116.676C164.515 111.214 165.329 105.315 168.912 101.174C170.702 99.101 172.765 97.6913 175.094 96.9446C175.54 96.802 175.54 96.6693 175.084 96.5517C173.222 96.0654 171.334 94.8962 172.388 92.6268C172.697 91.9686 173.721 91.0305 175.462 89.8171C178.006 88.2501 179.776 86.0644 180.781 83.2597C181.58 81.0147 182.114 78.9564 182.384 77.0852C183.036 72.561 183.732 67.9584 184.477 63.2771C185.345 57.8445 186.139 54.2439 186.865 52.4757C187.703 50.4174 188.502 48.2363 189.257 45.9432C189.821 45.0915 190.365 44.175 190.889 43.1783C191.444 42.1321 192.007 41.2064 192.581 40.4102C198.076 32.8067 210.352 28.2149 219.562 30.1343Z" fill="#311255"/>
<path d="M219.564 30.1273L222.364 30.3503C222.51 30.3587 222.643 30.4087 222.755 30.5025C222.957 30.6546 223.188 30.7088 223.448 30.6588C223.629 30.6255 223.8 30.6442 223.966 30.7172C224.515 30.9631 225.079 31.1361 225.664 31.2382C226.252 31.3425 226.849 31.603 227.463 32.0094C229.256 33.2183 230.581 34.2396 231.434 35.0796C234.718 38.3061 237.158 41.6722 238.758 45.178C239.301 46.3723 239.886 47.5458 240.518 48.7005C241.121 49.8051 241.62 50.9306 242.018 52.0666C242.856 54.4489 243.474 56.4811 243.88 58.1569C245.022 62.8486 246.195 68.2511 247.405 74.3664C247.846 76.6154 248.027 78.9498 248.052 81.057C248.067 82.045 247.861 83.0913 247.445 84.1855C245.743 80.0107 244.229 75.7421 242.91 71.3859C241.121 65.4749 240.248 59.2282 239.047 53.1608C236.923 42.4434 230.802 32.5555 219.564 30.1273Z" fill="#FFB21E"/>
<path d="M212.087 31.7938L212.495 32.1386C212.515 32.1564 212.524 32.1822 212.528 32.2119C212.538 32.3149 212.495 32.4081 212.402 32.5012C212.352 32.5448 212.293 32.5745 212.224 32.5844C209.73 32.8936 207.503 33.488 205.547 34.3678C200.247 36.7358 195.596 40.3066 191.595 45.0762C193.508 40.0371 197.39 36.6565 202.229 34.461C205.106 33.1591 208.395 32.2694 212.087 31.7938Z" fill="white"/>
<path d="M212.089 31.791C215.044 31.6501 217.334 31.8304 218.957 32.3318C228.437 35.2454 233.957 42.5582 236.321 51.966C237.845 58.0314 238.639 64.5402 240.135 70.2574C241.655 76.0948 243.586 81.7375 245.929 87.1895C246.101 89.5725 245.822 91.6157 245.1 93.3211L241.175 91.8706C241.572 91.6654 241.307 91.3504 240.37 90.9236C239.541 90.5444 237.58 89.8481 234.487 88.841C234.228 88.7581 233.953 88.6877 233.674 88.6441C233.517 88.6193 233.366 88.6939 233.281 88.8265C233.208 88.9384 233.209 89.0855 233.273 89.2575L227.041 87.3386C226.624 87.2102 226.34 86.8268 226.334 86.3937C226.309 85.0489 226.222 83.762 226.061 82.5332C225.976 81.9157 225.664 81.4287 225.114 81.0806C224.967 80.9811 224.913 80.7946 224.986 80.6371C227.261 75.7115 228.197 70.1953 228.816 64.8904C229.356 60.2632 229.643 49.9311 222.961 49.3281C221.133 49.1665 219.021 49.3716 216.629 49.9519C214.01 50.5859 211.353 51.249 208.662 51.9453C206.234 52.5753 204.298 51.9122 202.843 49.9519C201.523 48.178 200.975 46.4001 201.19 44.6221C201.215 44.4253 201.122 44.2346 200.954 44.131C200.371 43.7767 199.72 43.4928 198.994 43.2752C197.459 42.8193 195.73 46.9451 195.426 48.0268C194.911 49.869 194.593 51.6075 194.475 53.2425C193.838 55.6442 193.009 57.4968 191.983 58.8023C189.164 61.9479 188.469 65.5577 189.89 69.6295C190.68 71.9048 193.724 76.1384 196.665 74.7044C196.851 74.6153 197.068 74.7438 197.083 74.9489C197.405 80.3615 196.733 84.7484 192.597 88.8514C188.229 93.174 183.386 96.4833 176.987 95.0493C176.021 94.8338 175.159 94.3862 174.39 93.7045C174.121 93.462 174.125 93.0414 174.394 92.8052C175.806 91.5763 177.165 90.3392 178.468 89.0855C180.561 87.0776 182.037 84.4541 182.896 81.2215C184.606 74.7624 185.257 68.3966 186.327 61.9023C187.321 55.8701 189.081 50.2606 191.596 45.0739C195.598 40.3036 200.249 36.7332 205.55 34.3647C207.504 33.4861 209.731 32.8913 212.226 32.5826C212.294 32.5722 212.354 32.5432 212.401 32.4997C212.496 32.4064 212.54 32.3132 212.53 32.2096C212.525 32.1806 212.515 32.1557 212.496 32.135L212.089 31.791Z" fill="#FFB21E"/>
<path d="M86.2445 52.6535C85.3671 52.54 84.6757 52.1861 84.1757 51.5822C81.6707 48.5512 80.7099 45.2453 81.2882 41.6546C81.3225 41.4392 81.5285 41.3007 81.7392 41.345C84.2444 41.8758 85.7249 43.3393 86.1709 45.7318C86.5485 47.7512 86.7003 49.9514 86.617 52.3342C86.6122 52.5785 86.4848 52.6862 86.2445 52.6535Z" fill="#FFB31E"/>
<path d="M123.847 52.4524C124.189 50.5178 124.508 48.5085 124.797 46.4207C124.862 45.9686 125.076 45.2906 125.439 44.3865C125.502 44.239 125.533 44.0877 125.533 43.9249L125.537 42.8254C126.273 42.5649 126.959 42.7622 127.597 43.4058C130.788 46.6524 129.387 50.7132 126.204 53.1898C125.797 53.5097 125.345 53.6764 124.846 53.6955C124.659 53.7051 124.523 53.6266 124.43 53.4657L123.847 52.4524Z" fill="white"/>
<path d="M123.278 51.4571C123.287 51.4705 123.287 51.4858 123.278 51.5012C123.263 51.5145 123.268 51.5241 123.291 51.5241C123.297 51.5241 123.297 51.5241 123.297 51.5241C123.316 51.5203 123.326 51.5107 123.322 51.4897C123.238 50.8715 123.159 50.238 123.087 49.595C122.949 48.4294 122.768 48.4199 122.542 49.5701C122.434 50.1194 122.665 50.7299 123.238 51.3978C123.253 51.417 123.263 51.4361 123.278 51.4571ZM125.537 42.8257L125.532 43.9262C125.532 44.0888 125.503 44.24 125.44 44.3874C125.077 45.2907 124.861 45.9702 124.796 46.4218C124.508 48.5098 124.189 50.5174 123.847 52.4542L122.18 53.3959C121.91 53.549 121.582 53.3174 121.635 53.0093C122.027 50.8619 122.327 48.6763 122.533 46.4563C122.684 44.8008 123.688 43.5912 125.537 42.8257Z" fill="#FFB31E"/>
<path d="M200.008 74.527C197.449 68.5342 197.195 62.7928 196.754 56.3289C196.562 53.4998 196.463 47.5664 198.528 45.939C198.651 45.8459 198.827 45.9152 198.852 46.0617C199.807 51.3913 202.808 55.8676 208.988 54.0343C212.579 52.9731 216.299 51.7219 220.016 51.3438C231.065 50.2232 226.427 71.296 225.015 76.5067C223.952 80.4366 221.77 83.4874 218.471 85.6593C216.455 86.9857 214.122 87.4074 211.48 86.9303C205.635 85.8652 202.12 79.4685 200.008 74.527Z" fill="#FFB21E"/>
<path d="M189.257 45.9394C188.503 48.2339 187.703 50.4148 186.865 52.4725C186.139 54.2403 185.345 57.8404 184.477 63.2745C183.732 67.9546 183.036 72.557 182.383 77.0817C182.115 78.9537 181.58 81.0114 180.782 83.2567C179.776 86.0609 178.006 88.2475 175.462 89.8145C176.152 88.7231 176.909 87.7113 177.716 86.7791C178.002 86.4494 178.35 85.8298 178.756 84.9222C179.03 84.3178 179.252 83.6451 179.422 82.908C180.712 77.3128 181.477 71.6399 181.718 65.8931C181.78 64.3394 182.241 61.4575 183.09 57.2378C183.953 52.9386 186.006 49.1718 189.257 45.9394Z" fill="#FFB21E"/>
<path d="M123.239 51.4054C122.664 50.7363 122.434 50.1273 122.541 49.5785C122.768 48.4282 122.948 48.4376 123.087 49.6029C123.16 50.2457 123.239 50.8791 123.321 51.4975C123.327 51.5182 123.316 51.5276 123.297 51.5332C123.297 51.5332 123.297 51.5332 123.291 51.5332C123.267 51.5332 123.263 51.5219 123.278 51.5088C123.288 51.4937 123.288 51.4787 123.278 51.4637C123.263 51.4449 123.252 51.4242 123.239 51.4054Z" fill="#311255"/>
<path d="M194.473 53.246L194.816 59.5433C194.822 59.7153 194.742 59.7893 194.576 59.7745C193.767 59.695 192.983 59.6228 192.222 59.5488C192.076 59.534 191.997 59.2824 191.982 58.807C193.007 57.4991 193.836 55.6473 194.473 53.246Z" fill="white"/>
<path d="M123.222 56.231C122.576 56.0839 121.928 56.231 121.851 56.9668C121.698 58.3519 121.702 59.7039 121.091 60.986C120.158 62.9211 120.713 64.7827 120.041 66.7325C118.276 71.8646 114.664 77.5872 109.413 79.0036C105.387 80.0833 101.677 79.3806 98.2752 76.8955C95.0148 74.5171 92.3624 71.6494 90.3083 68.285C87.6513 63.9365 86.0874 59.6156 85.6218 55.3223C86.1463 55.0409 86.8572 54.9581 87.7444 55.0814C87.9798 55.1145 88.1121 55.2487 88.1367 55.4842C88.8426 61.433 90.8477 66.6148 95.191 70.9265C98.3523 74.0701 101.921 75.1131 105.909 74.0554C112.325 72.3557 117.173 67.0029 119.119 60.8573C119.576 59.4335 119.993 57.9252 120.375 56.3377C120.457 55.979 120.81 55.7491 121.173 55.8227L123.222 56.231Z" fill="#FFB31E"/>
<path d="M191.903 61.3014C192.006 60.8985 192.336 60.5878 192.747 60.5155C193.762 60.3331 194.536 61.0792 194.698 62.0529C195.271 65.4617 195.89 68.5959 196.557 71.4483C196.605 71.6596 196.423 71.8565 196.209 71.8331C194.709 71.656 193.62 70.9425 192.938 69.6996C191.482 67.0423 191.139 64.2423 191.903 61.3014Z" fill="#FFB21E"/>
<path d="M77.0027 195.439C76.5125 195.036 75.8017 195.547 76.0271 196.141L77.7576 200.739C77.8213 200.906 77.9488 201.034 78.1107 201.102L81.3904 202.389C81.8168 202.556 82.2727 202.222 82.2384 201.766L82.1011 199.865C82.0864 199.698 82.0081 199.535 81.8756 199.427L77.0027 195.439ZM103.867 204.713C103.545 204.727 103.299 204.791 103.137 204.899C102.813 205.111 102.838 205.253 103.216 205.327C104.554 205.607 105.961 205.803 107.427 205.921C114.24 206.471 121.049 206.958 127.777 206.609C131.301 206.432 135.438 205.617 138.483 204.619C139.89 204.158 143.105 202.606 144.199 201.063C144.984 200.199 144.429 198.696 143.831 197.836C142.292 195.625 139.247 194.746 136.684 194.962C135.095 195.095 133.517 194.854 131.914 194.967C128.703 195.193 126.536 195.459 125.423 195.763C123.198 196.372 120.677 197.173 117.868 198.165C116.521 198.641 114.869 199.373 112.908 200.356C109.917 201.854 106.637 202.802 103.867 204.713ZM58.418 207.193C59.5013 207.537 60.3151 207.704 60.8494 207.699C63.3841 207.68 65.9135 207.645 68.4482 207.591C68.6932 207.586 68.904 207.606 69.0806 207.65C69.2717 207.694 69.4629 207.709 69.6541 207.689C72.1837 207.405 74.6202 206.928 76.9635 206.255C77.8164 206.014 78.5813 205.631 79.2528 205.116C79.4146 204.993 79.4 204.747 79.2285 204.644C78.1056 203.981 76.8263 203.372 75.9291 202.399C74.7722 201.137 74.1644 199.56 74.1055 197.659C74.0858 196.942 73.9584 196.269 73.7181 195.635C73.625 195.375 73.4387 195.247 73.1641 195.252C72.4534 195.267 71.767 195.179 71.1053 194.992C70.6345 194.859 70.1786 194.869 69.7423 195.011C64.1488 196.863 58.8787 196.893 53.9323 195.1C53.2068 194.835 52.5401 194.908 51.7901 194.997C50.8929 194.977 50.2017 194.619 49.329 194.751C45.7945 195.291 42.7108 196.578 40.0684 198.607C37.3673 200.675 38.5685 202.817 41.1716 203.907C44.2453 205.194 47.5004 206.029 50.942 206.417C53.4371 206.697 55.9276 206.953 58.418 207.193ZM50.226 189.588C51.5057 190.34 52.7558 191.185 53.9763 192.123C55.0206 192.929 55.9422 193.444 56.7316 193.67C58.668 194.225 60.5602 194.442 62.4183 194.309C64.5409 194.157 66.6979 193.842 68.8795 193.366C69.0217 193.336 69.0658 193.15 68.9482 193.056C67.4579 191.863 65.8646 190.787 64.1636 189.839C59.6975 187.354 55.653 184.952 52.0253 182.638C44.8924 178.084 38.5439 172.484 32.9698 165.828L32.0972 164.33C31.9797 164.129 31.9012 164.143 31.8571 164.375C31.3668 167.097 31.7394 169.794 32.9798 172.459C35.0388 176.906 38.0144 180.565 41.9019 183.448C44.613 185.457 47.3877 187.506 50.226 189.588ZM62.3938 156.841C61.1191 156.216 59.8396 156.211 58.5552 156.825C58.3003 156.947 58.2757 157.301 58.516 157.458C60.5407 158.78 64.884 161.457 67.2176 161.045C67.3156 161.024 67.355 160.912 67.2961 160.837C65.9087 159.095 64.2714 157.758 62.3938 156.841ZM113.437 163.348C100.755 163.707 86.616 163.745 71.0219 163.472C68.9383 163.431 67.3108 163.315 66.1489 163.117C59.4425 162.568 54.9275 158.466 49.9859 153.957C48.9073 152.969 47.6475 152.364 46.2014 152.134C41.3627 151.373 37.4016 152.851 34.318 156.57C31.1119 160.431 35.676 165.558 38.3036 168.241C43.5737 173.62 49.3731 178.222 55.7021 182.044C59.369 184.259 62.7907 186.253 65.9626 188.031C69.0854 189.775 71.8259 192.025 75.2917 193.4C75.4437 193.459 75.6105 193.385 75.6742 193.238C77.9587 187.864 81.5472 184.043 87.4692 182.623C91.606 181.631 95.5687 178.836 99.0578 176.163C103.47 172.789 107.589 169.808 111.413 167.219C113.3 165.947 115.3 164.576 117.418 163.107C117.647 162.945 117.628 162.882 117.35 162.917L113.437 163.348ZM78.591 195.046C79.2823 195.547 80.1794 196.087 81.2824 196.662C81.9639 197.02 82.4785 197.546 82.8168 198.229C83.9452 199.742 84.0967 201.328 83.2732 202.989C83.2 203.131 83.2923 203.303 83.449 203.318L87.7983 203.804C91.2595 204.212 94.7295 204.217 98.2151 203.824C101.053 203.318 103.559 202.659 105.735 201.839C108.888 200.655 112.555 199.049 116.732 197.03C117.585 196.618 118.319 195.856 118.932 194.741C119.03 194.569 119.178 194.496 119.373 194.53C119.825 194.613 120.247 194.584 120.633 194.451C123.894 193.346 126.316 192.393 127.888 191.602C134.527 188.257 140.597 184.347 146.091 179.863C147.39 178.806 148.792 177.48 150.303 175.889C152.998 173.408 155.136 170.863 156.71 168.266C159.588 163.51 159.446 157.872 155.989 153.456C155.547 152.891 155.053 152.282 154.504 151.623C154.086 150.989 153.362 150.332 152.337 149.648C151.969 149.404 151.583 149.363 151.165 149.526C148.263 150.665 146.189 149.648 143.391 149.025C142.198 148.755 141.067 148.917 139.992 149.512C135.826 151.801 131.085 154.595 125.766 157.896C124.511 158.678 123.854 160.071 122.599 160.891C120.153 162.509 117.644 164.527 115.476 166.006C109.666 169.979 103.966 174.096 98.3614 178.354C95.5234 180.516 92.2781 182.756 89.367 183.748C87.5667 184.362 85.7925 185.025 84.0479 185.737C80.2578 187.285 78.5322 190.492 76.7478 193.936C76.6743 194.083 76.7037 194.206 76.836 194.304C77.4341 194.727 78.0175 194.972 78.591 195.046ZM136.134 135.241C133.723 136.288 130.38 138.204 130.199 140.247C129.908 143.563 129.473 147.026 128.898 150.627L127.286 155.134C127.197 155.38 127.256 155.426 127.462 155.264C128.017 154.82 128.555 154.388 129.163 154.02C132.168 152.198 135.14 150.41 138.081 148.666C141.787 146.461 145.616 147.267 149.601 148.111C149.802 148.155 149.955 147.94 149.852 147.762C149.537 147.237 149.14 146.799 148.659 146.441C147.004 145.208 145.66 144.064 144.631 143.008C143.44 141.783 142.252 140.103 141.072 137.958C140.414 136.764 139.576 135.899 138.561 135.364C137.591 134.854 136.782 134.814 136.134 135.241ZM79.1548 74.5438C77.5958 75.5835 75.9831 76.3598 74.321 76.871C72.4974 77.431 70.8356 78.0311 69.3306 78.6644C66.5166 79.514 63.7321 80.634 60.977 82.0243C55.1187 84.9761 51.437 89.6026 49.9369 95.9056C49.481 97.8368 49.0985 100.818 48.7947 104.855C48.7505 105.283 48.7212 105.699 48.7064 106.113C48.427 112.676 48.0053 120.205 47.4367 128.708C47.2112 132.087 47.2847 135.875 47.6572 140.065C47.9172 142.949 48.7604 145.381 50.1919 147.364C50.2751 147.483 50.3831 147.575 50.5055 147.645C50.6183 147.699 50.7261 147.762 50.8292 147.827C50.9566 147.9 51.1183 147.827 51.1478 147.683C52.1184 142.575 50.9566 137.511 50.182 132.466C49.4271 127.545 49.1279 121.929 52.1724 118.133C53.5303 116.442 55.2804 115.471 57.4179 115.214C58.9327 115.033 61.482 114.832 65.0655 114.611C71.8259 115.347 78.4734 115.622 85.0177 115.43C86.2626 115.628 87.2776 115.717 88.0576 115.701C94.8513 115.554 100.505 115.495 105.011 115.53C112.104 115.579 117.304 115.75 120.609 116.05C123.53 116.31 125.864 116.61 127.615 116.948C128.158 117.051 129.135 117.494 130.537 118.285C131.552 124.193 131.635 130.266 130.782 136.494C130.761 136.621 130.904 136.705 131.012 136.637L135.864 133.532C137.144 133.253 138.218 132.825 139.085 132.244C139.268 132.127 139.395 132.166 139.479 132.363C139.714 132.918 140.041 133.41 140.459 133.832C141.018 134.397 141.204 134.294 141.013 133.521C140.821 132.755 140.797 131.99 140.94 131.219C141.199 129.79 141.302 128.394 141.242 127.033C141.027 122.166 140.684 117.381 140.214 112.69C139.743 107.98 140.659 103.072 142.968 97.9642C143.154 97.5507 143.454 97.2716 143.866 97.1233C143.92 97.1041 143.978 97.0989 144.037 97.1094C144.307 97.1582 144.41 97.3152 144.336 97.5804C143.837 99.4278 143.316 101.26 142.773 103.072C141.969 105.754 141.714 109.04 142.047 111.718C142.836 117.971 143.125 123.787 142.924 129.165C142.86 130.913 142.463 132.574 141.742 134.146C141.679 134.289 141.693 134.422 141.796 134.538L143.556 136.632C144.504 138.896 145.94 140.793 147.876 142.319L152.572 146.269C152.734 146.401 152.911 146.431 153.101 146.352C155.391 145.43 156.872 143.818 157.543 141.518C158.425 138.498 158.808 134.987 158.685 130.992C158.47 123.595 158.317 116.331 158.225 109.202C158.176 104.925 157.666 101.132 156.832 97.0361C156.019 93.0376 154.013 89.9219 150.822 87.6924C148.243 85.8902 145.371 84.062 142.209 82.211C136.782 79.022 132.678 76.7244 129.908 75.3149C128.177 74.3763 125.144 72.9667 123.08 73.265C122.912 73.2912 122.785 73.3784 122.698 73.5215L122.064 74.5577C121.687 75.6044 121.319 76.6651 120.952 77.745C120.496 79.0674 120.06 80.1036 119.639 80.8555C116.899 85.7228 112.697 88.4739 107.044 89.1176C102.832 89.5991 98.2935 89.0531 93.4202 87.4865C92.1109 86.7294 90.779 85.9286 89.4296 85.0895C86.1303 83.0414 86.9294 79.7059 86.233 76.5168C85.9492 75.2154 84.2186 72.8341 82.7825 72.9126C81.6207 72.9807 80.4148 73.5267 79.1548 74.5438ZM99.1954 86.4555C105.78 88.1494 114.237 87.2702 117.987 80.9392C119.119 79.0185 119.879 76.9547 120.255 74.7496L121.257 72.7312C121.378 72.48 121.614 72.2986 121.889 72.2392C122.639 72.0822 123.295 71.7578 123.854 71.271C124.06 71.0896 124.3 71.0058 124.57 71.0163C126.109 71.0599 127.262 71.2466 128.021 71.5763C129.84 72.3614 132.934 73.9489 137.301 76.3354C141.209 78.797 145.12 81.1346 149.048 83.345C153.871 86.0612 157.259 89.1752 158.455 94.7612C158.603 95.459 158.765 96.1813 158.941 96.9227C159.278 98.3707 159.616 99.9774 159.956 101.741C160.131 103.859 160.215 106.216 160.199 108.815C160.166 114.066 160.264 119.474 160.485 125.029C160.696 130.388 160.661 136.454 159.078 141.602C158.234 144.339 156.646 146.436 154.313 147.886C154.215 147.943 154.205 148.076 154.288 148.155C156.897 150.538 159.956 153.592 160.528 157.203C160.985 160.106 160.788 162.69 159.935 164.949C158.578 168.536 156.597 171.601 153.984 174.145C152.302 175.781 151.078 177.093 150.298 178.08C145.303 182.628 140.807 186.052 136.801 188.351C134.522 189.662 132.243 190.984 129.972 192.315C129.821 192.403 129.722 192.506 129.678 192.624C129.614 192.786 129.737 192.963 129.913 192.958C132.929 192.899 135.894 192.909 138.807 192.993C140.414 193.037 142.493 193.44 143.826 194.25C145.816 195.463 146.704 197.531 146.494 200.444C144.993 202.316 143.184 203.843 141.072 205.017C138.248 206.584 134.384 207.282 131.252 208.014C129.433 208.441 126.8 208.692 123.355 208.765C115.741 208.937 108.181 208.377 100.681 207.08C98.9603 206.781 97.2436 206.501 95.5339 206.236C94.6111 206.093 93.1416 206.181 91.1167 206.496C87.9497 206.501 84.8314 206.167 81.7629 205.484C81.5373 205.435 81.2971 205.479 81.101 205.607C80.2923 206.127 79.6745 206.746 78.7382 207.164C76.2968 208.259 73.7035 209.148 70.9533 209.841C66.5755 209.816 62.1584 209.64 57.6974 209.306C53.7019 209.006 50.986 208.75 49.5496 208.534C45.6914 207.95 41.201 207.026 38.039 204.811C37.8036 204.644 37.5193 204.556 37.2252 204.556H2.42749V202.35H36.2643C36.4652 202.35 36.5829 202.247 36.6123 202.046C36.6614 201.672 36.5829 201.269 36.6907 200.886C37.2938 198.745 40.1272 196.564 41.9019 195.596C44.3875 194.235 47.0691 193.282 49.9417 192.732C50.2065 192.678 50.2261 192.58 50.0006 192.433C46.3189 189.972 42.5883 187.172 38.8185 184.038C34.0093 180.034 29.499 174.066 29.7932 167.435C29.8275 166.664 30.0678 165.509 30.5139 163.977C30.8619 162.769 31.1265 161.61 31.3031 160.499C32.9307 153.386 39.294 148.544 46.5543 149.726C47.471 149.875 48.3241 150.394 49.1525 150.808C50.2948 151.377 51.7704 151.452 52.6185 152.399C53.7214 153.632 54.8392 154.836 55.9619 156C56.0942 156.138 56.2413 156.162 56.403 156.068L57.2511 155.597C59.8347 153.854 62.4624 153.854 65.1342 155.597C67.3156 157.017 69.0069 158.84 70.2178 161.059C70.311 161.237 70.4581 161.324 70.659 161.324C81.2727 161.467 91.9298 161.532 102.627 161.526C106.623 161.526 110.206 161.378 113.368 161.078C114.545 160.966 117.182 160.553 121.281 159.831C121.427 159.806 121.554 159.738 121.659 159.625C123.252 157.95 124.532 156.422 125.501 155.042C126.085 154.212 126.516 153.083 126.786 151.647C127.526 147.778 128.08 144.196 128.453 140.909C128.463 140.817 128.364 140.747 128.282 140.793C126.992 141.485 126.011 142.364 125.331 143.425C124.929 143.036 124.694 142.638 124.619 142.241C124.586 142.078 124.619 141.927 124.713 141.789C125.507 140.606 127.202 139.373 128.35 138.396C128.493 138.272 128.585 138.101 128.614 137.914C129.163 134.43 129.403 131.159 129.33 128.094C129.267 125.535 129.06 123.202 128.722 121.09C128.477 119.572 126.595 119.096 125.193 118.893C121.473 118.354 117.633 118.03 113.672 117.922C102.549 117.627 91.3762 117.824 80.3412 117.794C74.0907 117.779 67.8942 117.337 61.5897 117.091C57.1679 116.915 52.8734 117.725 51.9518 122.489C51.4909 124.882 51.437 127.328 51.7949 129.818C52.1724 133.439 52.643 137.068 53.197 140.704C53.295 141.337 53.3537 141.942 53.3734 142.516C53.398 143.165 53.4126 143.769 53.4176 144.329L53.2802 146.766C53.0793 148.317 52.3193 150.611 50.5692 150.946C50.3977 150.979 50.236 150.946 50.0937 150.843C47.1132 148.725 46.7357 146.009 45.966 142.743C45.7602 141.715 45.6325 140.793 45.5787 139.971C45.3287 136.204 45.3336 132.398 45.5836 128.551C46.064 121.133 46.4414 114.443 46.716 108.48C46.9465 103.5 47.5004 99.147 48.3681 95.4189C50.1036 87.9819 56.0647 82.2058 63.0653 79.097C66.5118 77.5688 69.9532 76.1435 73.5612 75.191C75.3065 74.7304 77.1204 73.8407 79.0028 72.5236C80.4834 71.4873 82.8953 70.4267 84.7287 71.0006C86.8615 71.674 88.2579 74.317 88.4842 76.3302C88.8028 79.1354 88.6792 81.1346 91.2247 83.0414C93.6657 84.8732 96.3226 86.0124 99.1954 86.4555Z" fill="#311255"/>
<path d="M93.4208 87.4902C89.6522 86.3451 86.593 84.2486 84.2349 81.1973C82.5292 78.9918 80.8372 76.7725 79.1558 74.5463C80.4157 73.5292 81.6217 72.9843 82.783 72.9151C84.2193 72.8373 85.9509 75.2192 86.234 76.5217C86.9314 79.7097 86.1321 83.0447 89.4312 85.0928C90.7794 85.9334 92.1122 86.7343 93.4208 87.4902Z" fill="white"/>
<path d="M129.911 75.3103C129.65 75.7374 129.15 75.8065 128.42 75.5264C126.101 74.6429 123.984 74.3179 122.067 74.5547L122.7 73.5174C122.788 73.3756 122.916 73.2874 123.081 73.2615C125.145 72.9624 128.18 74.3715 129.911 75.3103Z" fill="white"/>
<path d="M129.91 75.3142C132.68 76.7234 136.782 79.0221 142.209 82.2105C145.372 84.0619 148.245 85.8892 150.822 87.6924C154.015 89.9224 156.019 93.0367 156.833 97.0355C157.665 101.131 158.176 104.923 158.225 109.202C158.318 116.329 158.471 123.594 158.686 130.992C158.809 134.986 158.426 138.498 157.544 141.519C156.872 143.818 155.392 145.429 153.103 146.352C152.91 146.43 152.734 146.401 152.572 146.268L147.876 142.319C148.557 141.347 149.057 140.335 149.387 139.279C149.807 137.908 149.435 136.911 148.274 136.287C147.371 135.802 146.297 135.702 145.058 135.993C144.268 136.175 143.768 136.39 143.557 136.631L141.797 134.539C141.695 134.42 141.68 134.287 141.743 134.146C142.465 132.574 142.861 130.913 142.925 129.165C143.126 123.786 142.837 117.971 142.047 111.718C141.714 109.04 141.968 105.754 142.774 103.072C143.316 101.26 143.837 99.4272 144.336 97.5792C144.41 97.3143 144.307 97.1577 144.038 97.1078C143.979 97.0992 143.921 97.1043 143.866 97.1233C143.454 97.2712 143.155 97.55 142.969 97.9629C140.66 103.072 139.743 107.979 140.213 112.69C140.684 117.38 141.027 122.165 141.244 127.033C141.302 128.394 141.199 129.788 140.94 131.218C140.797 131.989 140.821 132.756 141.014 133.522C141.204 134.293 141.019 134.396 140.459 133.831C140.042 133.408 139.714 132.918 139.478 132.362C139.396 132.166 139.267 132.126 139.087 132.245C138.218 132.825 137.145 133.252 135.865 133.532C134.998 128.448 134.134 123.972 133.288 120.106C133.193 119.679 133.003 119.261 132.718 118.85C132.625 118.717 132.498 118.623 132.345 118.569C131.507 118.284 130.904 118.191 130.537 118.284C129.135 117.494 128.158 117.052 127.616 116.948C125.864 116.61 123.53 116.31 120.609 116.049C117.305 115.749 112.104 115.577 105.01 115.529C100.506 115.495 94.8526 115.553 88.0575 115.701C87.2779 115.715 86.263 115.627 85.018 115.431C85.3666 115.5 85.5521 115.489 85.5864 115.396C85.7101 115.057 85.5967 114.87 85.2395 114.827C78.2483 114.025 71.5223 113.956 65.066 114.61C61.4823 114.83 58.9331 115.033 57.4183 115.214C55.2809 115.47 53.5307 116.443 52.1729 118.132C49.1286 121.93 49.4275 127.544 50.1824 132.465C50.9571 137.51 52.119 142.574 51.1482 147.683C51.1188 147.825 50.9571 147.899 50.8297 147.825C50.7266 147.762 50.6188 147.698 50.5059 147.643C50.3835 147.574 50.2757 147.481 50.1922 147.364C48.7607 145.379 47.9176 142.947 47.6578 140.065C47.2851 135.874 47.2116 132.087 47.4371 128.707C48.0058 120.206 48.4274 112.674 48.7068 106.112C48.7216 105.699 48.7509 105.283 48.7951 104.854L48.8588 105.15C48.9029 105.331 49.1627 105.326 49.1923 105.14C50.1335 99.3085 52.5062 94.1414 56.3054 89.6368C59.0361 86.4054 61.7569 83.9001 64.4777 82.1176C66.7573 80.624 68.3749 79.4747 69.3309 78.6642C70.8361 78.0293 72.4979 77.4305 74.3216 76.8713C75.9835 76.3603 77.5963 75.5843 79.1552 74.5416C80.8366 76.7681 82.528 78.9877 84.2332 81.1936C86.5927 84.2443 89.6511 86.3417 93.4204 87.486C98.2939 89.0535 102.834 89.5972 107.045 89.1171C112.696 88.4736 116.898 85.7223 119.639 80.8546C120.06 80.1027 120.496 79.0669 120.953 77.7454C121.32 76.6649 121.688 75.6032 122.066 74.5571C123.982 74.3214 126.099 74.6448 128.419 75.5292C129.149 75.8097 129.649 75.7409 129.91 75.3142Z" fill="#F5F1F9"/>
<path d="M120.257 74.7494C119.88 76.9553 119.12 79.0186 117.987 80.9394C114.237 87.2703 105.78 88.1499 99.1963 86.4543C102.824 85.0506 105.599 83.6504 107.521 82.2606C109.427 80.8793 111.531 79.4258 113.841 77.9036C114.854 77.2353 115.439 76.4055 116.66 75.909C117.841 75.4228 119.041 75.0397 120.257 74.7494Z" fill="#F5F1F9"/>
<path d="M137.302 76.3366C143.622 78.4582 149.563 81.2838 155.126 84.8045C156.146 85.4537 157.338 86.5589 158.7 88.1152C160.284 89.9277 161.138 92.0699 161.25 94.5503C161.313 95.9511 161.284 97.1777 161.162 98.2351C161.015 99.4924 160.613 100.661 159.956 101.742C159.617 99.9775 159.279 98.3717 158.94 96.9231C158.765 96.1817 158.603 95.4591 158.456 94.7621C157.259 89.176 153.871 86.0618 149.048 83.3456C145.122 81.1351 141.209 78.7982 137.302 76.3366Z" fill="#F5F1F9"/>
<path d="M224.117 84.8697C224.132 86.3884 223.976 87.3706 223.647 87.8181C222.574 89.2768 221.598 90.8827 220.152 91.8997C217.084 94.0654 213.656 94.8325 209.876 94.1971C209.694 93.7109 209.304 93.339 208.701 93.0736C208.067 92.7985 207.517 92.4983 207.048 92.1786C205.174 90.902 203.156 89.2613 200.992 87.2524C199.651 86.0049 198.278 86.216 196.728 85.8712C197.924 83.3025 198.611 80.7726 198.792 78.293C198.831 77.7235 198.968 77.6983 199.204 78.2194C201.184 82.6148 203.312 86.4117 207.794 88.4748C213.563 91.1326 219.367 87.7832 223.235 83.6222C223.402 83.4401 223.696 83.4711 223.823 83.6822C224.015 84.0057 224.113 84.4028 224.117 84.8697Z" fill="#FFB21E"/>
<path d="M69.3314 78.6695C68.3755 79.4792 66.7577 80.6295 64.478 82.1219C61.7573 83.9057 59.0365 86.4111 56.3058 89.6433C52.5065 94.1476 50.1337 99.3143 49.1925 105.145C49.1631 105.331 48.9033 105.337 48.8591 105.155L48.7954 104.86C49.0994 100.824 49.4818 97.8405 49.9378 95.9111C51.4379 89.6094 55.1195 84.9814 60.9779 82.0287C63.733 80.6396 66.5175 79.5199 69.3314 78.6695Z" fill="white"/>
<path d="M224.119 84.8687C224.634 89.8551 223.393 94.1372 220.399 97.7286C217.814 100.817 213.172 100.965 209.54 100.548C205.574 100.092 202.476 97.9886 200.239 94.2304L209.879 94.1974C213.659 94.8299 217.084 94.0635 220.153 91.8982C221.6 90.8815 222.576 89.275 223.648 87.8159C223.978 87.3696 224.134 86.3859 224.119 84.8687Z" fill="#F5F1F9"/>
<path d="M196.729 85.8696C198.278 86.2136 199.651 86.0028 200.995 87.2494C203.156 89.258 205.176 90.9003 207.049 92.1765C207.52 92.4965 208.068 92.7961 208.701 93.0698C209.303 93.3362 209.696 93.7098 209.877 94.1962L200.24 94.2295C199.547 92.9478 198.783 91.5569 197.945 90.0588C197.342 88.9731 196.282 88.4978 194.769 88.6254C194.615 88.6402 194.591 88.5866 194.685 88.4682L196.729 85.8696Z" fill="white"/>
<path d="M245.93 87.1895C246.827 88.9478 248.307 92.3226 248.097 94.1852C248.072 94.4105 247.832 94.5439 247.626 94.4501L245.101 93.3196C245.821 91.6155 246.1 89.5715 245.93 87.1895Z" fill="white"/>
<path d="M241.173 91.8701L233.271 89.2574C233.207 89.0857 233.207 88.9385 233.281 88.8261C233.364 88.6932 233.515 88.6196 233.673 88.6441C233.952 88.6871 234.227 88.7566 234.487 88.8404C237.58 89.8462 239.54 90.5454 240.369 90.9236C241.305 91.3509 241.571 91.6636 241.173 91.8701Z" fill="#F5F1F9"/>
<path d="M243.801 125.14L244.115 125.086C244.139 125.082 244.15 125.071 244.15 125.048C244.15 125.003 244.139 124.964 244.12 124.923C244.1 124.889 244.07 124.865 244.026 124.85C241.757 124.173 239.663 123.834 237.737 123.834C231.168 123.834 224.574 123.887 217.96 123.995C216.128 124.025 214.108 124.556 211.897 125.588C206.916 127.919 202.449 131.299 198.503 135.73C193.944 140.844 190.102 145.732 184.139 150.005C184.115 141.728 183.953 135.037 183.659 129.935C183.512 127.366 182.66 124.1 181.748 121.627C180.487 118.215 179.454 114.657 178.634 110.964C178.55 110.595 178.197 110.355 177.825 110.413L176.996 110.542C176.461 110.625 176.267 110.925 176.399 111.451C177.339 115.129 178.687 119.648 180.442 125.018C181.08 126.963 181.468 129.217 181.609 131.775C181.968 138.177 182.208 144.562 182.33 150.924C180.933 152.034 179.424 152.682 177.801 152.864C177.54 152.893 177.296 152.731 177.213 152.481C174.541 144.307 173.546 135.783 172.217 127.188C171.639 123.45 170.845 119.757 170.432 115.978C170.158 113.435 170.139 111.367 170.368 109.77C170.766 107.048 172.153 104.584 174.52 102.377C175.948 101.052 177.429 99.7736 178.972 98.5512C179.036 98.5018 179.075 98.4289 179.081 98.3539C179.115 97.9464 178.976 97.8285 178.679 98C179.516 97.8285 180.38 97.6805 181.258 97.5582C183.978 97.1894 185.943 96.4087 188.021 94.6352C188.753 94.0111 190.145 92.8723 192.199 91.2124C192.822 90.7063 193.453 90.5497 194.096 90.7299C195.307 91.0751 196.14 91.6306 196.645 92.838C198.65 97.6462 201.362 101.273 206.593 102.499C210.495 103.413 215.711 103.443 219.093 100.957C222.663 98.3346 224.917 94.6566 225.858 89.9214C225.897 89.7241 226.015 89.6511 226.211 89.694C229.839 90.5304 233.251 91.6435 236.453 93.0439C239.242 94.262 242.596 95.4651 246.517 96.6554C249.875 97.6719 253.871 99.69 255.175 103.214C256.566 106.964 256.96 111.018 257.499 115.247C257.876 118.189 257.591 121.078 256.645 123.911C256.429 124.561 256.459 125.223 255.528 125.208C252.159 125.155 248.792 125.185 245.423 125.292C244.86 125.307 244.321 125.258 243.801 125.14Z" fill="#F5F1F9"/>
<path d="M178.678 98.0007C178.977 97.8293 179.114 97.9469 179.081 98.3535C179.076 98.4275 179.035 98.5014 178.972 98.5501C177.429 99.7733 175.948 101.05 174.521 102.378C172.153 104.582 170.765 107.049 170.369 109.77C170.138 111.367 170.158 113.435 170.433 115.979C170.844 119.756 171.639 123.451 172.217 127.187C173.545 135.783 174.541 144.307 177.213 152.48C177.296 152.732 177.541 152.893 177.801 152.863C179.423 152.681 180.934 152.033 182.33 150.924C182.297 153.251 181.527 155.191 180.011 156.744C178.222 158.572 175.472 158.641 173.418 157.152C169.393 154.234 167.991 150.383 167.619 145.663C166.707 134.095 166.343 123.17 166.534 112.879C166.549 112.029 166.692 110.757 166.957 109.063C167.981 102.588 171.825 98.5955 178.678 98.0007Z" fill="white"/>
<path d="M256.087 99.2004C257.994 100.228 259.387 101.873 260.275 104.148C263.064 111.315 263.088 118.172 260.347 124.724C259.652 124.895 259.172 124.922 258.907 124.808C258.746 124.734 258.685 124.617 258.731 124.445C260.167 118.888 259.906 113.869 259.048 108.201C258.505 104.59 257.514 101.593 256.087 99.2004Z" fill="#F5F1F9"/>
<path d="M85.0191 115.427C78.4735 115.619 71.8262 115.344 65.0669 114.607C71.5225 113.954 78.2494 114.023 85.2388 114.823C85.5971 114.867 85.7106 115.055 85.5868 115.393C85.5529 115.486 85.3671 115.496 85.0191 115.427Z" fill="white"/>
<path d="M135.866 133.531L131.013 136.634C130.906 136.704 130.762 136.62 130.783 136.492C131.636 130.263 131.552 124.192 130.538 118.283C130.906 118.19 131.508 118.283 132.347 118.569C132.498 118.622 132.625 118.715 132.719 118.847C133.003 119.261 133.195 119.678 133.287 120.106C134.136 123.971 134.998 128.446 135.866 133.531Z" fill="white"/>
<path d="M238.971 151.784C242.38 151.838 245.369 148.286 245.874 145.143C246.3 142.485 245.756 139.666 242.717 139.135C238.339 138.369 233.3 143.856 233.8 148.07C234.059 150.241 237.139 151.749 238.971 151.784ZM273.106 161.338C270.106 162.522 267.327 163.907 264.767 165.484C259.905 165.886 256.807 166.088 255.473 166.083C244.056 166.058 232.74 165.788 221.525 165.282C215.863 165.022 210.43 163.44 204.851 161.652C203.135 161.102 202.229 159.732 202.645 157.875C202.958 156.475 203.23 155.036 203.459 153.562C203.499 153.326 203.753 153.198 203.964 153.311L206.826 154.844C207.306 155.099 207.533 154.957 207.499 154.412C207.395 152.698 206.013 151.769 204.797 150.821C204.376 150.487 204.19 149.942 204.321 149.421C204.924 147.044 205.449 144.671 205.896 142.308C205.97 141.916 206.122 140.466 206.346 137.961C206.577 135.358 207.361 133.064 208.69 131.075C210.98 127.656 214.921 126.993 218.902 127.243C222.245 127.454 225.638 127.533 229.006 127.365C234.672 127.091 240.266 127.12 245.781 127.454C248.775 127.631 251.826 127.268 254.861 127.125C261.875 126.791 267.92 126.669 273 126.753C274.513 126.775 277.097 127.436 277.799 128.943C278.166 129.748 278.098 131.448 278.023 132.15C276.991 142.053 275.346 151.784 273.106 161.338Z" fill="white"/>
<path d="M87.8281 142.749C88.5092 144.262 90.7792 146.478 92.4644 144.975C93.8429 143.747 94.5241 142.189 94.5091 140.309C94.4454 133.363 84.9692 136.388 87.8281 142.749ZM88.5472 147.101C85.7983 146.05 84.6653 142.317 86.0208 138.762C87.3763 135.209 90.7005 133.181 93.4522 134.233C96.2011 135.283 97.3327 139.016 95.9772 142.571C94.6218 146.124 91.2989 148.153 88.5472 147.101Z" fill="#311255"/>
<path d="M128.899 150.626C130.012 148.539 130.983 146.447 131.806 144.339C132.615 142.271 133.277 140.729 133.792 139.707C134.528 138.259 135.307 136.77 136.135 135.243C136.782 134.815 137.591 134.855 138.562 135.364C139.576 135.9 140.414 136.765 141.072 137.958C142.253 140.106 143.44 141.785 144.63 143.009C145.661 144.065 147.004 145.208 148.66 146.442C149.14 146.801 149.538 147.237 149.851 147.763C149.955 147.94 149.803 148.156 149.602 148.111C145.616 147.267 141.788 146.461 138.082 148.667C135.14 150.41 132.169 152.198 129.165 154.021C128.556 154.389 128.018 154.821 127.463 155.264C127.256 155.426 127.199 155.381 127.286 155.137L128.899 150.626Z" fill="#F5F1F9"/>
<path d="M136.135 135.24C135.306 136.767 134.527 138.256 133.792 139.705C133.277 140.727 132.616 142.269 131.807 144.338C130.984 146.445 130.013 148.538 128.899 150.625C129.473 147.024 129.909 143.561 130.199 140.245C130.38 138.203 133.723 136.286 136.135 135.24Z" fill="white"/>
<path d="M147.877 142.316C145.94 140.789 144.504 138.893 143.557 136.628C143.768 136.386 144.268 136.17 145.058 135.99C146.298 135.7 147.372 135.797 148.273 136.284C149.435 136.907 149.808 137.905 149.387 139.276C149.057 140.331 148.558 141.344 147.877 142.316Z" fill="white"/>
<path d="M87.8281 142.751C84.9702 136.391 94.4454 133.365 94.5091 140.31C94.524 142.191 93.8434 143.748 92.4647 144.976C90.7795 146.48 88.5087 144.264 87.8281 142.751Z" fill="#F5F1F9"/>
<path d="M236.153 147.705C237.335 148.884 239.824 150.21 241.355 149.326C242.878 148.447 243.805 147.141 244.145 145.411C244.507 143.539 242.816 141.673 241.163 141.217C240.114 140.927 239.139 141.153 238.233 141.899C236.987 142.921 234.549 146.104 236.153 147.705ZM238.971 151.782C237.138 151.747 234.059 150.239 233.8 148.068C233.299 143.854 238.34 138.366 242.717 139.133C245.757 139.664 246.301 142.484 245.875 145.14C245.37 148.284 242.38 151.836 238.971 151.782Z" fill="#311255"/>
<path d="M241.356 149.327C239.824 150.211 237.336 148.885 236.154 147.706C234.551 146.104 236.986 142.922 238.231 141.901C239.139 141.154 240.114 140.927 241.164 141.218C242.815 141.674 244.507 143.54 244.145 145.413C243.805 147.141 242.879 148.449 241.356 149.327Z" fill="white"/>
<path d="M45.9669 142.742C46.7368 146.008 47.1146 148.725 50.0955 150.843C50.237 150.945 50.3993 150.979 50.5707 150.945C52.3208 150.611 53.0804 148.317 53.2816 146.764C54.8162 149.599 56.1392 152.541 57.2518 155.597L56.404 156.068C56.2431 156.162 56.095 156.137 55.9626 155.999C54.8409 154.835 53.723 153.632 52.6195 152.398C51.7717 151.451 50.2955 151.377 49.1543 150.807C48.3246 150.395 47.4716 149.875 46.555 149.726C39.2949 148.543 32.9317 153.386 31.3041 160.499C30.2648 158.933 30.2991 157.056 31.4071 154.86C32.9268 151.839 35.1623 149.241 38.1135 147.065C40.7269 145.139 43.3443 143.699 45.9669 142.742Z" fill="#F5F1F9"/>
<path d="M154.505 151.626C154.579 152.76 154.618 153.841 154.627 154.857C154.638 155.947 154.51 156.989 154.24 157.986C153.138 162.137 151.946 166.174 151.216 170.463C150.907 172.261 150.604 174.069 150.304 175.891C148.794 177.483 147.392 178.808 146.093 179.865C140.597 184.35 134.529 188.259 127.89 191.605C126.317 192.395 123.895 193.349 120.634 194.453C120.247 194.586 119.827 194.616 119.375 194.533C119.179 194.498 119.032 194.572 118.935 194.743C118.321 195.859 117.586 196.62 116.733 197.032C112.555 199.051 108.889 200.658 105.736 201.841C103.56 202.661 101.056 203.32 98.2165 203.826C97.3982 203.546 96.5588 203.365 95.7014 203.287C94.4913 203.173 93.6579 203.036 93.2058 202.883C91.6717 202.367 90.3335 201.626 89.1822 200.649C87.4115 199.149 85.8186 197.961 84.402 197.091C83.5536 196.572 81.6171 195.888 78.5926 195.048C78.0184 194.974 77.4352 194.729 76.837 194.307C76.7043 194.209 76.6757 194.085 76.7496 193.938C78.5338 190.494 80.2593 187.287 84.0494 185.739C85.7945 185.028 87.5682 184.365 89.3675 183.75C92.2805 182.758 95.525 180.518 98.3642 178.357C103.967 174.099 109.668 169.983 115.477 166.008C117.645 164.53 120.155 162.511 122.601 160.894C123.856 160.074 124.513 158.679 125.767 157.898C131.087 154.597 135.828 151.802 139.995 149.513C141.068 148.918 142.201 148.757 143.391 149.027C146.191 149.651 148.265 150.667 151.167 149.528C151.583 149.365 151.971 149.405 152.338 149.651C153.363 150.333 154.089 150.992 154.505 151.626Z" fill="#F5F1F9"/>
<path d="M199.739 151.328C200.331 151.538 200.857 151.808 201.313 152.148C201.474 152.265 201.562 152.457 201.553 152.653C201.503 154.122 201.327 155.601 201.018 157.088C200.841 157.958 200.509 158.719 199.617 159.063C198.366 159.545 197.151 159.814 195.959 159.879C193.198 160.027 190.238 157.207 189.135 155.031C188.223 153.238 189.503 151.455 191.165 150.797C193.963 149.691 196.944 150.344 199.739 151.328Z" fill="white"/>
<path d="M154.504 151.623C155.053 152.28 155.548 152.89 155.989 153.456C159.446 157.871 159.588 163.51 156.71 168.265C155.137 170.864 152.999 173.409 150.302 175.889C150.602 174.066 150.906 172.258 151.214 170.46C151.946 166.172 153.136 162.134 154.239 157.985C154.508 156.986 154.636 155.945 154.627 154.854C154.618 153.838 154.578 152.758 154.504 151.623Z" fill="white"/>
<path d="M66.1495 163.116L66.042 163.363C65.9486 163.569 66.0074 163.628 66.2186 163.543C66.307 163.51 66.3953 163.505 66.4785 163.534C66.5617 163.564 66.6347 163.613 66.6987 163.677C67.8507 164.89 68.958 166.112 70.302 167.145C73.0132 169.223 75.8024 171.059 78.4892 173.142C81.4257 175.416 84.3468 178.147 87.7299 179.591C88.3469 179.852 89.0586 179.705 89.5233 179.223C90.6561 178.05 91.8965 176.959 93.2495 175.961C96.8874 173.274 100.353 170.877 103.647 168.77C106.364 167.032 109.702 165.381 113.668 163.814C113.82 163.755 113.86 163.652 113.796 163.505C113.732 163.363 113.614 163.313 113.437 163.347L117.349 162.915C117.629 162.88 117.649 162.944 117.418 163.107C115.301 164.576 113.3 165.946 111.413 167.218C107.589 169.806 103.471 172.788 99.0584 176.163C95.569 178.836 91.6072 181.631 87.4701 182.622C81.5473 184.042 77.9593 187.864 75.6744 193.238C75.6104 193.384 75.444 193.459 75.2929 193.4C71.8265 192.025 69.086 189.775 65.9626 188.031C62.7919 186.253 59.3691 184.259 55.703 182.042C49.3731 178.221 43.5745 173.618 38.3045 168.24C35.6766 165.558 31.1124 160.429 34.3186 156.569C37.4021 152.85 41.3639 151.372 46.2025 152.133C47.6476 152.364 48.9085 152.968 49.9863 153.956C54.9286 158.464 59.4433 162.566 66.1495 163.116Z" fill="#F5F1F9"/>
<path d="M188.65 157.96C189.606 159.262 190.841 160.21 192.361 160.804C192.436 160.834 192.479 160.912 192.455 160.986L192.415 161.109C192.411 161.118 192.406 161.123 192.39 161.118C190.547 160.686 189.048 159.754 187.886 158.323C187.243 157.532 187.027 156.481 187.239 155.165C187.288 154.855 187.366 154.85 187.479 155.141C187.862 156.127 187.994 157.061 188.65 157.96Z" fill="white"/>
<path d="M62.3947 156.841C64.2723 157.76 65.9097 159.096 67.297 160.84C67.3559 160.913 67.3167 161.026 67.2186 161.046C64.8851 161.459 60.5416 158.782 58.5169 157.46C58.2767 157.303 58.3012 156.949 58.5562 156.827C59.8406 156.213 61.1201 156.218 62.3947 156.841Z" fill="white"/>
<path d="M283.054 202.17C282.825 200.814 282.275 199.675 281.408 198.746C281.241 198.57 281.299 198.275 281.526 198.181C284.667 196.821 287.55 194.994 290.169 192.7C292.238 190.887 293.817 188.446 294.898 185.381C296.552 180.719 295.287 175.767 292.154 172C287.414 166.302 280.903 164.715 273.678 165.354C273.475 165.374 273.325 165.172 273.403 164.985L275.109 160.786C277.644 159.823 280.657 159.396 284.153 159.509C289.285 159.671 293.419 161.724 296.552 165.678C302.46 173.125 302.513 183.317 297.081 190.951C294.884 194.036 292.371 196.334 289.541 197.852C286.973 199.233 284.81 200.672 283.054 202.17Z" fill="#F5F1F9"/>
<path d="M253.165 168.244L260.248 167.949C260.362 167.944 260.421 167.998 260.435 168.111C260.449 168.229 260.397 168.308 260.274 168.347C248.631 171.948 237.345 175.632 226.412 179.394C226.301 179.434 226.218 179.522 226.178 179.635C226.036 180.077 226.286 180.288 226.928 180.269C228.341 180.225 229.609 180.018 230.731 179.65C240.149 176.55 249.428 173.534 258.572 170.597C260.622 169.939 262.92 169.241 265.476 168.509C267.113 168.043 268.72 167.758 270.294 167.655C277.672 167.188 284.535 167.198 289.791 173.24C293.393 177.38 294.737 182.946 292.051 187.887C289.673 192.269 284.923 194.99 280.235 196.651C279.932 196.759 279.599 196.724 279.324 196.552C274.996 193.856 270.627 192.672 265.7 193.939C263.71 194.45 261.628 195.501 259.671 195.673C254.396 196.145 250.474 195.157 245.836 192.809C236.036 187.843 226.223 182.862 216.392 177.872C205.147 172.159 196.552 167.856 186.335 164.137C182.062 162.58 177.175 162.571 173.1 164.86C170.807 166.151 168.002 168.676 168.272 171.427C168.658 175.371 169.933 178.947 172.437 182.081C174.115 184.179 176.091 186.188 178.36 188.103C183.659 192.569 189.341 196.312 195.406 199.328C197.557 200.398 199.716 201.499 201.881 202.634C202.283 202.845 202.26 202.943 201.803 202.938C192.744 202.776 183.375 201.017 176.522 194.818C172.056 190.776 169.046 185.687 167.491 179.552C166.982 177.538 166.982 175.381 166.795 173.303C166.698 172.193 166.492 172.174 166.178 173.244C165.368 176.03 165.335 178.992 166.085 182.14C169.133 194.99 179.925 202.85 192.538 204.402C196.052 204.839 200.054 205.119 204.538 205.242C206.181 205.286 207.915 205.522 209.74 205.949C213.126 206.735 216.57 207.639 220.074 208.666C214.31 209.658 208.299 210.257 202.039 210.458C197.631 210.601 193.788 210.434 190.498 209.967C177.021 208.047 166.639 197.147 164.06 184.051C163.369 180.549 163.227 177.375 163.629 174.527C164.457 168.652 168.599 163.047 174.427 161.392C179.624 159.918 184.703 160.237 189.367 162.575C190.86 163.322 192.484 163.858 194.029 164.531C200.146 167.188 206.533 169.998 213.19 172.969C216.634 174.502 220.171 175.858 223.698 177.287C224.206 177.498 224.907 177.454 225.799 177.164C231.301 175.357 236.905 173.461 242.606 171.481C245.247 170.563 248.768 169.654 253.16 168.745C253.366 168.701 253.411 168.593 253.288 168.421L253.165 168.244Z" fill="#F5F1F9"/>
<path d="M273.108 161.342L271.766 164.663C271.701 164.825 271.578 164.914 271.401 164.928L264.769 165.488C267.329 163.911 270.108 162.526 273.108 161.342Z" fill="#F5F1F9"/>
<path d="M66.1493 163.118C67.3106 163.314 68.9381 163.433 71.0219 163.472C86.6163 163.746 100.755 163.707 113.438 163.348C113.614 163.314 113.732 163.363 113.795 163.506C113.859 163.653 113.82 163.756 113.668 163.815C109.701 165.382 106.363 167.033 103.647 168.772C100.353 170.879 96.8869 173.275 93.2497 175.963C91.8962 176.96 90.6557 178.051 89.5233 179.224C89.0583 179.705 88.3469 179.853 87.7298 179.593C84.3465 178.149 81.4245 175.417 78.4886 173.143C75.8015 171.06 73.0127 169.223 70.3018 167.146C68.9582 166.114 67.8497 164.891 66.6985 163.678C66.6344 163.614 66.5615 163.565 66.4773 163.536C66.3944 163.506 66.3064 163.511 66.2184 163.545C66.0073 163.629 65.9482 163.57 66.0412 163.363L66.1493 163.118Z" fill="#F5F1F9"/>
<path d="M32.9706 165.829C32.9853 167.912 33.5441 169.896 34.6374 171.787C37.9562 177.505 42.8488 181.769 48.0159 185.816C48.7022 186.352 49.1385 187.069 49.3199 187.958C49.3542 188.12 49.4277 188.258 49.5405 188.381C49.8886 188.759 50.119 189.162 50.2268 189.589C47.3884 187.506 44.6136 185.458 41.9026 183.449C38.0151 180.565 35.0393 176.906 32.9804 172.46C31.7401 169.793 31.3675 167.096 31.8577 164.375C31.9018 164.144 31.9803 164.13 32.0979 164.331L32.9706 165.829Z" fill="white"/>
<path d="M248.551 206.282C247.948 206.395 247.326 206.567 246.688 206.803C246.022 207.053 245.398 207.181 244.825 207.191C238.85 207.304 232.747 207.299 226.525 207.171C219.594 205.752 214.617 204.543 211.592 203.536C199.293 199.449 188.277 193.255 178.55 184.954C177.414 183.986 175.967 182.444 174.213 180.327C172.188 177.876 170.848 175.022 170.201 171.765C169.806 169.771 170.476 168.223 172.218 167.123C176.698 164.279 182.011 165.148 186.698 166.912C191.174 168.597 195.891 170.66 200.846 173.101C215.932 180.523 231.005 188.107 246.066 195.854C247.111 196.394 248.021 197.018 248.639 198.054C250.243 200.751 250.213 203.492 248.551 206.282Z" fill="#F5F1F9"/>
<path d="M32.9707 165.831C38.5447 172.486 44.8932 178.086 52.0261 182.64C55.6539 184.953 59.6983 187.355 64.1644 189.841C65.8655 190.789 67.4587 191.865 68.949 193.058C69.0667 193.151 69.0226 193.338 68.8804 193.368C66.6989 193.844 64.5418 194.158 62.4191 194.311C60.5611 194.443 58.6688 194.227 56.7324 193.672C55.9431 193.446 55.0215 192.93 53.9773 192.125C52.7566 191.187 51.5065 190.342 50.227 189.59C50.1191 189.163 49.8887 188.76 49.5406 188.382C49.4279 188.259 49.3544 188.122 49.32 187.959C49.1387 187.07 48.7023 186.353 48.016 185.818C42.8489 181.77 37.9564 177.507 34.6375 171.789C33.5443 169.898 32.9854 167.913 32.9707 165.831Z" fill="#F5F1F9"/>
<path d="M265.916 167.93C265.431 168.18 264.921 168.102 264.391 167.684C264.184 167.521 264.211 167.458 264.47 167.487C265.356 167.6 266.224 167.531 267.068 167.285C267.147 167.261 267.229 167.31 267.244 167.389L267.275 167.507C267.283 167.541 267.268 167.561 267.235 167.571C266.785 167.669 266.338 167.713 265.916 167.93Z" fill="#F5F1F9"/>
<path d="M150.298 178.081C150.568 182.905 150.671 187.036 150.607 190.479C150.533 194.336 149.161 197.656 146.494 200.446C146.704 197.533 145.818 195.465 143.827 194.251C142.494 193.442 140.415 193.039 138.806 192.995C135.895 192.911 132.929 192.901 129.914 192.96C129.737 192.965 129.616 192.788 129.679 192.626C129.722 192.509 129.822 192.405 129.973 192.317C132.243 190.986 134.522 189.664 136.802 188.352C140.807 186.054 145.302 182.63 150.298 178.081Z" fill="#F5F1F9"/>
<path d="M51.791 194.998C52.1047 194.958 52.3989 194.968 52.6685 195.027C52.8205 195.062 52.894 195.15 52.8989 195.302C52.9038 195.366 52.8793 195.42 52.8352 195.464C52.7519 195.558 52.644 195.617 52.5215 195.646C50.2075 196.255 48.1093 197.12 46.2268 198.245C45.9915 198.382 45.967 198.711 46.1729 198.888C48.1633 200.548 50.1781 202.508 52.3401 203.712C54.2324 204.768 56.3992 205.667 58.8406 206.399C59.0563 206.462 59.1445 206.595 59.1053 206.806C59.071 206.978 58.9729 207.081 58.8014 207.116L58.419 207.194C55.9286 206.954 53.4382 206.698 50.9429 206.418C47.5014 206.03 44.2463 205.195 41.1725 203.908C38.5694 202.818 37.3683 200.676 40.0695 198.608C42.7118 196.579 45.7954 195.292 49.33 194.752C50.2026 194.619 50.8939 194.978 51.791 194.998Z" fill="white"/>
<path d="M58.4188 207.191L58.8012 207.113C58.9728 207.078 59.0708 206.975 59.1051 206.803C59.1444 206.592 59.0561 206.459 58.8404 206.395C56.3991 205.664 54.2322 204.765 52.3399 203.709C50.178 202.505 48.1631 200.545 46.1728 198.885C45.9669 198.708 45.9914 198.379 46.2267 198.241C48.1092 197.117 50.2074 196.252 52.5213 195.643C52.6439 195.613 52.7517 195.554 52.835 195.461C52.8792 195.417 52.9037 195.363 52.8988 195.299C52.8939 195.147 52.8203 195.058 52.6684 195.024C52.3987 194.965 52.1046 194.955 51.7908 194.995C52.5409 194.906 53.2076 194.832 53.9332 195.098C58.8796 196.891 64.1497 196.861 69.7432 195.009C70.1796 194.867 70.6355 194.857 71.1061 194.99C71.7679 195.176 72.4542 195.265 73.1651 195.25C73.4396 195.245 73.6259 195.373 73.7191 195.633C73.9593 196.267 74.0867 196.94 74.1063 197.657C74.1652 199.558 74.7731 201.135 75.93 202.397C76.8272 203.37 78.1067 203.979 79.2293 204.642C79.4009 204.745 79.4156 204.991 79.2538 205.113C78.5822 205.629 77.8174 206.012 76.9644 206.253C74.6211 206.926 72.1846 207.402 69.655 207.687C69.4638 207.707 69.2726 207.692 69.0814 207.648C68.9049 207.604 68.6941 207.584 68.449 207.589C65.9145 207.643 63.3849 207.678 60.8504 207.697C60.316 207.702 59.5022 207.535 58.4188 207.191Z" fill="#FFB21E"/>
<path d="M144.2 201.063C144.157 200.9 144.108 200.822 144.063 200.826C141.872 201.264 139.666 201.622 137.449 201.902C128.136 203.082 118.801 204.029 109.443 204.751C106.909 204.947 105.05 204.933 103.869 204.712C106.638 202.802 109.919 201.853 112.908 200.355C114.87 199.373 116.522 198.64 117.87 198.164C120.679 197.172 123.199 196.371 125.424 195.762C126.538 195.457 128.705 195.192 131.915 194.967C133.519 194.854 135.097 195.095 136.685 194.961C139.249 194.745 142.294 195.624 143.833 197.835C144.431 198.695 144.985 200.198 144.2 201.063Z" fill="#FFB21E"/>
<path d="M98.2162 203.824C94.7306 204.217 91.2597 204.212 87.7987 203.804C87.1614 201.54 85.4995 199.683 82.8179 198.229C82.4796 197.546 81.9649 197.021 81.2834 196.662C80.1804 196.087 79.2833 195.547 78.592 195.046C81.6168 195.886 83.5532 196.569 84.4013 197.089C85.8181 197.959 87.4114 199.147 89.1811 200.646C90.3332 201.623 91.6715 202.365 93.206 202.881C93.657 203.033 94.4904 203.17 95.7012 203.283C96.5592 203.362 97.3975 203.544 98.2162 203.824Z" fill="white"/>
<path d="M77.0034 195.438L81.8764 199.427C82.0087 199.535 82.0872 199.697 82.1019 199.864L82.2392 201.765C82.2735 202.222 81.8176 202.556 81.391 202.389L78.1114 201.102C77.9496 201.033 77.8221 200.905 77.7584 200.738L76.0279 196.141C75.8024 195.546 76.5132 195.036 77.0034 195.438Z" fill="#FFB21E"/>
<path d="M279.237 204.638C278.854 204.594 278.442 204.668 278.005 204.86C276.349 205.601 274.212 205.773 272.499 205.872C268.372 206.112 263.156 206.318 256.858 206.495C256.509 206.505 256.373 206.407 256.063 206.363C255.901 206.338 255.808 206.407 255.783 206.569L255.744 206.805C254.225 206.928 252.607 206.815 250.89 206.456L251.468 206.372C251.642 206.348 251.728 206.25 251.74 206.078L251.924 203.008L251.263 197.875C251.238 197.703 251.311 197.634 251.484 197.668C254.871 198.385 258.122 198.287 261.236 197.369C263.27 196.769 265.495 195.718 267.648 195.772C271.868 195.885 277.123 197.432 279.779 200.925C280.144 201.401 280.28 201.932 280.187 202.507C280.105 203.027 279.791 203.74 279.237 204.638Z" fill="#FFB31E"/>
<path d="M82.8176 198.225C85.4992 199.679 87.1611 201.535 87.7984 203.8L83.45 203.314C83.2932 203.299 83.2 203.127 83.2735 202.984C84.0971 201.324 83.9452 199.738 82.8176 198.225Z" fill="#FFB21E"/>
<path d="M144.2 201.058C143.106 202.601 139.891 204.154 138.485 204.615C135.44 205.612 131.302 206.428 127.778 206.604C121.051 206.953 114.242 206.467 107.428 205.917C105.962 205.799 104.555 205.602 103.216 205.322C102.84 205.248 102.815 205.106 103.138 204.895C103.3 204.787 103.545 204.723 103.868 204.709C105.05 204.93 106.909 204.944 109.442 204.748C118.801 204.026 128.136 203.078 137.45 201.898C139.665 201.619 141.871 201.261 144.063 200.822C144.106 200.818 144.155 200.896 144.2 201.058Z" fill="white"/>
<path d="M251.925 203.009L251.738 206.079C251.729 206.251 251.641 206.349 251.468 206.374L250.889 206.457C250.571 205.199 250.919 204.05 251.925 203.009Z" fill="#FFB21E"/>
<path d="M279.235 204.64C277.137 207.253 274.241 208.403 270.547 208.093C265.607 207.681 260.669 207.253 255.742 206.806L255.783 206.571C255.806 206.409 255.899 206.34 256.063 206.364C256.372 206.409 256.508 206.507 256.855 206.497C263.156 206.32 268.371 206.114 272.498 205.873C274.211 205.775 276.348 205.603 278.004 204.861C278.44 204.67 278.854 204.596 279.235 204.64Z" fill="white"/>
<path d="M91.1172 206.496C90.5485 207.857 89.6073 208.726 88.2984 209.105C82.6999 210.716 76.92 210.961 70.9539 209.841C73.7041 209.149 76.2974 208.26 78.7388 207.164C79.6751 206.747 80.2928 206.128 81.1017 205.607C81.2978 205.479 81.538 205.435 81.7635 205.484C84.8324 206.167 87.9503 206.501 91.1172 206.496Z" fill="#FFB21E"/>
<path d="M248.552 206.276C247.635 207.41 246.415 208.314 244.9 208.982C242.948 209.842 240.909 210.097 238.786 209.754C234.791 209.11 230.708 208.246 226.525 207.165C232.747 207.292 238.851 207.297 244.825 207.185C245.4 207.175 246.023 207.047 246.69 206.797C247.327 206.561 247.95 206.389 248.552 206.276Z" fill="white"/>
</g>
<defs>
<clipPath id="clip0_1049_1551">
<rect width="360" height="237.584" fill="white"/>
</clipPath>
</defs>
</svg>
