<svg width="360" height="360" viewBox="0 0 360 360" fill="none" xmlns="http://www.w3.org/2000/svg">
<path d="M118.829 277.362C97.4446 213.907 84.3243 161.629 83.4114 95.253C83.3227 87.554 83.1126 69.5322 96.0034 65.7224C103.65 63.3844 112.639 66.359 125.641 68.9065C173.42 78.3085 219.278 94.9343 260.034 115.278C262.128 116.33 260.596 119.528 258.428 118.49C219.112 98.8552 173.039 81.829 124.95 72.4269C101.368 67.8011 86.5918 60.7614 86.9971 95.2109C87.9111 161.102 100.881 212.877 122.228 276.218C127.222 291.093 142.503 336.206 157.483 330.736C161.465 329.266 163.646 324.345 165.373 319.849C175.421 293.572 184.623 267.506 192.733 242.378C205.665 202.166 214.681 199.772 257.065 191.375C272.834 188.249 328.333 177.877 325.856 161.873C325.291 158.156 321.692 155.439 318.358 153.184C307.409 145.905 296.186 139.005 285.013 132.674C282.941 131.509 284.723 128.382 286.778 129.555C298.025 135.923 309.324 142.875 320.356 150.205C324.329 152.895 328.62 156.186 329.404 161.327C332.405 180.75 279.597 190.566 257.765 194.891C216.379 203.089 208.601 204.741 196.146 243.48C188.017 268.668 178.792 294.795 168.721 321.132C166.709 326.366 164.113 332.109 158.725 334.098C140.318 340.929 125.115 296.08 118.829 277.362Z" fill="#311255"/>
<path d="M155.44 225.849C188.934 225.849 216.086 197.506 216.086 162.543C216.086 127.58 188.934 99.2363 155.44 99.2363C121.946 99.2363 94.7942 127.58 94.7942 162.543C94.7942 197.506 121.946 225.849 155.44 225.849Z" fill="#F5F1F9"/>
<path d="M30.4993 95.929C29.981 87.1422 37.0871 78.6823 46.3407 77.0715C54.0117 75.7222 62.4997 78.6635 69.6991 85.0786C71.4683 86.6686 69.085 89.3226 67.3086 87.7585C60.9309 82.0671 53.5308 79.462 46.957 80.6011C40.3739 81.7497 33.6274 88.0994 34.0756 95.7142C34.2212 98.0877 30.6398 98.3172 30.4993 95.929Z" fill="#311255"/>
<path d="M68.6346 55.1709L45.9626 35.94C44.151 34.4079 46.4757 31.67 48.2784 33.204L70.9504 52.435C72.7621 53.9672 70.4446 56.7045 68.6346 55.1709Z" fill="#311255"/>
<path d="M96.7271 49.6007C91.9472 41.7562 95.4873 29.7944 103.964 26.2424C112.504 22.6449 123.052 28.795 124.824 37.9052C125.268 40.214 121.768 40.9498 121.304 38.5868C119.246 27.9941 103.165 23.9111 98.8701 37.1395C97.6702 40.8512 98.011 44.8151 99.7898 47.7331C101.024 49.7758 97.9556 51.6141 96.7271 49.6007Z" fill="#311255"/>
<path d="M145.741 218.745C143.5 217.938 144.739 214.547 146.955 215.374C184.368 228.873 224.593 199.562 224.593 157.097C224.593 123.197 198.196 95.613 165.752 95.613C133.308 95.613 106.91 123.197 106.91 157.097C106.91 174.708 114.161 191.511 126.809 203.198C128.546 204.812 126.118 207.442 124.372 205.831C110.995 193.468 103.324 175.707 103.324 157.097C103.324 121.217 131.328 92.0273 165.752 92.0273C200.175 92.0273 228.179 121.217 228.179 157.097C228.179 202.122 185.39 233.081 145.741 218.745Z" fill="#311255"/>
<path d="M189.321 124.524L193.749 128.611C195.373 130.109 195.523 132.561 194.088 134.117L176.623 153.04C175.231 154.548 175.333 156.955 176.91 158.455L194.943 175.883C196.521 177.383 196.623 179.79 195.231 181.298L192.73 184.008C191.294 185.564 188.838 185.609 187.214 184.111L168.076 166.447C166.452 164.948 164.017 164.97 162.581 166.526L143.938 186.282C142.478 187.814 140.044 187.836 138.445 186.361L134.607 182.819C132.983 181.32 132.851 178.798 134.312 177.266L153.046 157.856C154.506 156.323 154.398 153.824 152.75 152.302L131.201 132.414C129.577 130.915 129.427 128.463 130.862 126.908L133.059 124.528C134.473 122.996 136.929 122.95 138.552 124.449L160.175 144.406C161.774 145.881 164.277 145.835 165.691 144.303L183.83 124.649C185.266 123.094 187.722 123.048 189.321 124.524Z" fill="#311255"/>
<path d="M137.23 187.68L133.392 184.136C131.089 182.011 130.809 178.347 133.014 176.031L151.759 156.613C152.476 155.857 152.485 154.498 151.53 153.62L129.988 133.731C127.644 131.574 127.448 127.969 129.545 125.696L131.744 123.31C133.891 120.996 137.48 121.014 139.769 123.132L161.391 143.092C162.187 143.811 163.575 143.95 164.374 143.087L182.513 123.436C184.609 121.158 188.218 121.064 190.534 123.207H190.539L194.965 127.297C197.308 129.459 197.5 133.068 195.404 135.337L177.942 154.255C177.204 155.054 177.298 156.351 178.143 157.159L196.188 174.597C198.438 176.731 198.602 180.289 196.548 182.516L194.045 185.228C191.881 187.569 188.276 187.534 186.001 185.429L166.863 167.767C166.044 167.017 164.752 166.835 163.898 167.744L145.241 187.516C143.101 189.765 139.574 189.841 137.23 187.68ZM134.377 125.747L132.178 128.128C131.412 128.959 131.515 130.262 132.416 131.098L153.963 150.987C156.383 153.215 156.464 156.862 154.35 159.092L135.6 178.515C134.824 179.334 134.961 180.711 135.824 181.503L139.662 185.046C140.544 185.863 141.852 185.873 142.641 185.046L161.279 165.297C163.409 162.991 166.982 163.007 169.291 165.134L188.428 182.796C189.231 183.531 190.586 183.686 191.412 182.796L193.914 180.083C194.647 179.29 194.554 177.992 193.709 177.184L175.664 159.746C173.413 157.607 173.25 154.05 175.309 151.823L192.77 132.905C193.527 132.083 193.419 130.752 192.532 129.93L188.106 125.841C188.101 125.841 188.101 125.841 188.101 125.841C187.224 125.033 185.898 125.051 185.146 125.869L167.008 145.52C164.944 147.764 161.31 147.895 158.958 145.725L137.337 125.766C136.404 124.912 135.097 124.97 134.377 125.747Z" fill="#311255"/>
<path d="M223.244 332.658C221.799 271.398 265.892 225.044 287.408 220.428C289.733 219.904 290.479 223.438 288.164 223.929C281.376 225.391 275.418 229.924 270.983 233.711C242.452 258.092 225.942 295.05 226.83 332.574C226.886 334.957 223.301 335.048 223.244 332.658Z" fill="#311255"/>
<path d="M271.581 299.139C266.115 286.421 270.663 270.108 284.798 260.312C286.765 258.967 288.783 261.914 286.843 263.263C274.249 271.98 270.011 286.416 274.877 297.719C275.816 299.898 272.526 301.315 271.581 299.139Z" fill="#311255"/>
</svg>
