<svg width="168" height="168" viewBox="0 0 168 168" fill="none" xmlns="http://www.w3.org/2000/svg">
<path d="M147.388 108.143C147.093 107.958 147.889 107.984 136.714 107.141C76.3711 103.111 68.9917 105.877 65.6603 103.938C65.1436 103.663 64.8238 103.212 64.3813 102.862C56.7514 96.4816 31.6456 77.2464 31.0064 77.0099C30.4407 76.7844 29.6535 76.9347 29.1371 77.2103C27.6861 77.9862 27.7354 80.2884 27.4895 81.69C24.7753 96.6842 20.1823 124.679 19.4716 129.589C19.2254 131.366 19.9141 133.143 21.3162 134.295C55.9434 158.477 55.3766 160.602 58.8475 160.671C81.3759 161.172 103.88 162.474 126.261 164.526C128.647 164.751 130.885 163.25 131.598 160.922C131.808 160.496 137.898 139.538 147.855 109.143C147.973 108.743 147.703 108.334 147.388 108.143Z" fill="#311255"/>
<path d="M147.388 108.143C147.093 107.958 147.889 107.984 136.714 107.141C76.3711 103.111 68.9917 105.877 65.6603 103.938C65.1436 103.663 64.8238 103.212 64.3813 102.862C56.7514 96.4816 31.6456 77.2464 31.0064 77.0099C30.4407 76.7844 29.6535 76.9347 29.1371 77.2103C27.6861 77.9862 27.7354 80.2884 27.4895 81.69C24.7753 96.6842 20.1823 124.679 19.4716 129.589C19.2254 131.366 19.9141 133.143 21.3162 134.295C55.9434 158.477 55.3766 160.603 58.8475 160.671C81.3759 161.172 103.88 162.474 126.261 164.526C128.647 164.751 130.885 163.25 131.598 160.922C131.808 160.496 137.898 139.538 147.855 109.143C147.973 108.743 147.703 108.334 147.388 108.143ZM116.153 131.016C114.944 136.026 109.479 141.684 105.798 144.605C104.274 145.806 101.544 148.434 99.4531 147.258C98.2008 146.563 94.2338 143.485 91.1645 139.901C87.904 136.072 85.2904 131.482 86.1963 126.461C86.6392 124.034 88.0409 121.732 90.1563 120.505C95.1383 117.638 101.77 121.285 102.232 127.988C102.109 125.16 104.2 122.207 106.758 121.106C109.316 120.03 112.488 120.706 114.382 122.732C116.374 124.885 116.841 128.163 116.153 131.016Z" fill="#F5F1F9"/>
<path d="M113.005 45.4273C110.988 59.1916 98.2234 68.6765 84.4748 66.5992C70.7189 64.5223 61.2041 51.6592 63.2254 37.8945C65.242 24.1051 78.0311 14.6202 91.7547 16.6975C105.503 18.7743 115.021 31.638 113.005 45.4273Z" fill="#FFB21E"/>
<path d="M89.2265 70.293L89.2264 70.293C76.0158 68.2984 66.8757 55.9431 68.8171 42.7224L68.8171 42.7218C70.7538 29.4789 83.0336 20.3748 96.2073 22.3689L96.2076 22.3689C109.41 24.3632 118.555 36.7188 116.618 49.9652C114.681 63.1829 102.425 72.2873 89.2265 70.293Z" stroke="#311255" stroke-width="2"/>
<path d="M150.245 80.7319C120.909 78.5885 102.1 77.8213 72.3252 77.886C69.0745 77.886 71.7138 78.5651 49.2802 59.5417C46.1487 56.8867 35.0826 47.6356 31.7196 45.2771C41.9493 44.9457 51.3557 44.7266 63.1515 44.7266C63.0777 44.1009 63.0284 43.4753 62.9792 42.8496C51.4148 42.8496 41.6659 43.0763 31.6704 43.4001C30.4577 43.4001 29.6605 44.5637 29.9672 45.6595C29.7518 46.4815 27.8254 58.7699 27.7857 59.023C26.5567 66.8474 26.3754 66.8574 26.6998 68.2678C26.4531 68.8794 27.2082 66.2043 22.3504 90.6428C20.1504 101.689 17.8783 113.112 16.1682 124.003C15.8728 126.087 16.7062 128.218 18.4043 129.607C53.7966 154.294 52.5158 156.055 56.4417 156.155C78.8266 156.649 101.485 157.942 123.789 159.997C126.648 160.258 129.239 158.496 130.103 155.722C132.375 148.141 134.462 140.23 136.482 132.578C145.952 96.6726 145.164 103.48 145.28 101.537C145.828 101.033 146.297 100.434 146.563 99.7C148.692 93.812 149.662 87.4347 151.825 81.6319C152.196 80.6352 150.899 79.8763 150.245 80.7319ZM28.4223 66.7801C29.5416 59.8463 30.3313 54.5302 31.5401 47.352C34.9073 50.0492 42.2965 56.0722 48.0994 60.9934C68.6826 78.3338 67.4854 78.6175 70.0982 79.4855C67.4742 85.8838 66.1592 92.2472 65.1 98.2733C64.7902 98.1566 64.5001 97.9874 64.2453 97.7668C29.7655 68.2436 27.8867 70.0575 28.4223 66.7801ZM128.342 155.165C127.744 157.089 125.955 158.262 123.954 158.13C81.08 154.172 58.9369 154.674 55.8993 154.156C57.9013 137.972 59.2272 125.054 65.0067 109.969C65.4497 108.816 63.728 108.127 63.2869 109.29C57.4937 124.41 56.1358 137.214 54.1315 153.415C51.0568 151.214 38.9954 141.691 19.5043 128.101C18.3515 127.158 17.787 125.726 17.9912 124.286C20.6744 107.183 24.7568 88.8433 28.0893 70.6745C29.2435 71.7499 43.2981 82.2844 63.0539 99.2014C63.9018 99.9321 64.9826 100.335 66.1042 100.335C72.2406 100.415 100.932 99.8383 141.819 102.816C142.389 102.854 142.476 102.799 143.031 102.688C137.384 120.246 133.47 138.054 128.342 155.165ZM144.833 99.0523C144.399 100.257 143.248 101.042 141.949 100.944C117.103 99.133 91.8442 98.2917 66.9404 98.4603C68.0026 92.4396 69.3236 86.0884 71.9794 79.7617C100.221 79.6219 121.598 80.5243 149.584 82.5698C147.622 88.4285 146.673 93.9572 144.833 99.0523Z" fill="#311255"/>
<path d="M59.8091 18.0086C66.5718 19.6796 66.4295 19.6876 66.6759 19.6876C67.7653 19.6876 67.9448 18.0969 66.8945 17.8375L60.2463 16.1854C59.0775 15.8808 58.6133 17.7132 59.8091 18.0086Z" fill="#311255"/>
<path d="M69.277 14.5873C69.8793 15.6663 71.4862 14.7545 70.8863 13.6684L65.6983 4.2617C65.0939 3.17809 63.4932 4.10192 64.0891 5.18062L69.277 14.5873Z" fill="#311255"/>
<path d="M77.4864 13.0793L78.4592 4.4986C78.6001 3.28825 76.7716 3.01405 76.629 4.28352L75.6563 12.8642C75.5122 14.1014 77.3506 14.3103 77.4864 13.0793Z" fill="#311255"/>
<path d="M145.933 147.711L139.422 152.309C138.419 153.013 139.476 154.561 140.474 153.848L146.985 149.251C147.982 148.552 146.944 147.001 145.933 147.711Z" fill="#311255"/>
<path d="M139.96 157.712C139.126 156.805 137.779 158.083 138.61 158.993C142.371 162.942 142.29 163.348 143.005 163.348C143.805 163.348 144.231 162.372 143.68 161.769L139.96 157.712Z" fill="#311255"/>
</svg> 