<svg version="1.1" id="Layer_1" xmlns="http://www.w3.org/2000/svg" xmlns:xlink="http://www.w3.org/1999/xlink" x="0px" y="0px"
	 width="100%" viewBox="0 0 1297 906" enable-background="new 0 0 1297 906" xml:space="preserve">
<path fill="#899199" opacity="1.000000" stroke-width="30" stroke="#899199"
	d="
M641.126770,37.791817
	C607.958252,40.722336 575.332581,46.145447 543.560547,56.639095
	C512.059875,67.043121 482.244904,80.723709 454.169983,98.385506
	C435.629333,110.049316 418.186707,123.067879 401.885895,137.697098
	C384.250336,153.524155 368.050598,170.616165 353.311157,189.205551
	C334.990723,212.311279 319.573517,237.153671 306.935760,263.725769
	C293.690735,291.574646 284.176117,320.678192 277.870453,350.894226
	C274.121033,368.861115 270.705475,386.824371 269.635834,405.965118
	C269.205627,423.383606 269.092865,440.042053 269.038910,456.700653
	C269.036560,457.434662 269.571899,458.170410 269.856781,458.905365
	C270.805084,470.482605 271.753387,482.059875 272.731476,494.000793
	C300.377686,492.810059 321.867889,503.287323 338.062592,524.754089
	C349.112061,518.937500 359.803650,513.300232 370.503510,507.678741
	C390.567596,497.137421 410.637482,486.607056 430.703003,476.068420
	C442.457764,469.894653 454.209839,463.715820 465.961151,457.535522
	C484.697876,447.681396 503.441528,437.840424 522.165771,427.962585
	C534.624939,421.389893 547.058655,414.768982 559.497925,408.158539
	C586.930237,393.580658 614.324402,378.930450 641.798523,364.431763
	C670.040283,349.528015 698.353638,334.759796 726.644958,319.950134
	C752.233337,306.555420 777.854553,293.223267 803.424194,279.792725
	C829.856201,265.909210 856.224304,251.903976 882.656677,238.020920
	C902.661682,227.513672 922.737976,217.142105 942.756470,206.660355
	C964.012146,195.530807 985.197815,184.267014 1006.486145,173.200623
	C1028.414185,161.801712 1050.420410,150.553009 1072.426514,139.305191
	C1073.837646,138.583923 1075.857788,137.690643 1077.037720,138.190933
	C1078.943726,138.999054 1081.471191,140.738037 1081.716431,142.384735
	C1081.956543,143.996857 1080.084717,146.639648 1078.420410,147.688309
	C1072.906494,151.162704 1067.104980,154.191116 1061.347290,157.266052
	C1044.280151,166.380890 1027.190918,175.454605 1010.092468,184.510452
	C980.159302,200.363861 950.221497,216.208542 920.268433,232.024429
	C903.105896,241.086655 885.891357,250.050552 868.732849,259.120392
	C844.238892,272.067719 819.791199,285.102722 795.292419,298.040924
	C777.401001,307.489685 759.440430,316.807495 741.544373,326.247406
	C717.071838,339.156433 692.640808,352.144379 668.173523,365.063354
	C650.277832,374.512512 632.340088,383.882019 614.442810,393.328247
	C583.078369,409.882385 551.738403,426.482758 520.372986,443.035034
	C503.068176,452.167206 485.713165,461.204285 468.415375,470.349701
	C444.074463,483.218811 419.757202,496.132690 395.446198,509.058228
	C378.551147,518.040833 361.683563,527.075134 344.449219,536.275635
	C349.104919,555.587341 350.909607,574.855164 340.982025,593.254089
	C332.828796,608.364624 321.013184,620.394531 304.744202,625.447632
	C276.554779,634.202942 247.457901,631.175659 223.111115,599.953735
	C205.298981,609.348206 187.462601,618.835876 169.551971,628.181274
	C147.864349,639.497375 126.144409,650.752502 104.377304,661.914795
	C94.044907,667.213379 83.579140,672.252625 73.150917,677.362610
	C71.691109,678.078064 70.119751,678.924011 68.565102,679.000488
	C66.429466,679.105652 64.260551,678.534241 62.105904,678.252686
	C62.598999,675.274780 60.409801,671.859436 64.713249,669.600525
	C84.531883,659.197693 104.193871,648.496643 123.927475,637.931458
	C144.231216,627.061096 164.544357,616.208252 184.870605,605.380066
	C194.214584,600.402283 203.528275,595.357971 213.006180,590.646545
	C216.163620,589.076965 216.629120,586.606140 215.790756,584.124084
	C212.777054,575.201660 212.846069,566.031860 213.033737,556.843750
	C213.350449,541.336304 220.007141,528.434326 229.686447,516.767395
	C237.006714,507.943939 246.502029,502.352844 256.852722,497.942963
	C258.189087,497.373596 259.457428,496.644562 260.235168,496.252594
	C259.468719,486.145630 258.370178,476.529846 258.084991,466.890045
	C257.480713,446.465363 256.790771,426.019135 257.150635,405.599609
	C257.345520,394.540558 259.024719,383.403412 261.102417,372.505157
	C264.605591,354.129730 268.215027,335.713745 273.127686,317.682037
	C280.536804,290.487122 291.276947,264.466125 304.783142,239.700623
	C315.455811,220.130829 327.958923,201.763992 341.312653,183.856659
	C355.841919,164.372879 372.546967,146.981689 390.119263,130.494598
	C410.120758,111.728363 432.400208,95.757233 456.130188,81.828415
	C484.463043,65.197815 514.190002,51.741898 545.775879,42.831516
	C563.961975,37.701214 582.590149,34.116634 601.058838,30.014214
	C623.023560,25.135242 645.358704,25.837477 667.636475,26.044472
	C680.913269,26.167835 694.247375,25.942141 707.445251,27.115698
	C720.482727,28.275002 733.567993,30.209810 746.295776,33.224827
	C764.133240,37.450249 781.904785,42.264053 799.263184,48.131721
	C828.054626,57.864101 855.689758,70.364815 880.938721,87.515442
	C896.293091,97.945007 911.390137,108.770073 926.313599,119.808342
	C931.566833,123.693893 936.044983,128.657410 940.697693,133.308121
	C942.246521,134.856262 945.785583,136.355331 943.173828,139.225632
	C940.853333,141.775726 937.780151,144.545425 933.838928,142.239304
	C930.747742,140.430557 927.856445,138.183411 925.163086,135.806107
	C897.642029,111.514893 867.255249,91.565979 834.126282,75.821289
	C809.718079,64.221184 784.365479,55.194668 758.040466,49.013439
	C736.628540,43.985840 715.109680,39.583626 693.007935,38.946663
	C691.234802,38.895561 689.475647,38.358009 686.865234,38.075111
	C685.089050,37.817360 684.155334,37.274689 683.226624,37.283096
	C669.192932,37.410084 655.159912,37.609432 641.126770,37.791817
M234.119003,593.243713
	C242.400085,603.246643 251.502716,611.447998 264.636871,615.533142
	C274.136963,618.487976 283.327820,618.680603 292.162292,616.592346
	C311.836151,611.941833 325.642761,599.196899 332.469879,580.299927
	C335.116730,572.973572 334.858765,564.384888 334.882172,556.368286
	C334.929535,540.154114 326.146454,527.861877 314.289215,518.391541
	C302.246796,508.773315 287.872742,504.315979 272.104858,507.062347
	C262.209564,508.785858 253.195541,512.636475 245.514572,519.263367
	C234.456863,528.803589 226.881378,540.282349 225.385513,555.210388
	C224.038849,568.649170 226.038361,581.267029 234.119003,593.243713
z"/>
<path fill="#899199" opacity="1.000000" stroke-width="30" stroke="#899199"
	d="
M686.882080,828.190613
	C704.845215,827.176392 722.519409,824.301208 740.246582,821.201965
	C765.678589,816.755676 790.091553,809.128784 813.796936,799.432007
	C848.816162,785.107117 881.484619,766.299622 910.757874,742.255371
	C925.951721,729.775635 940.527283,716.321045 953.973877,701.985901
	C976.659180,677.801636 996.072571,651.045166 1011.720276,621.664368
	C1023.983887,598.637512 1034.206299,574.767639 1042.016602,549.883545
	C1047.842773,531.320801 1052.745239,512.517273 1054.980347,493.138092
	C1056.166626,482.853516 1057.168823,472.537506 1057.867676,462.209534
	C1058.759155,449.034851 1059.485474,435.839813 1059.839111,422.641632
	C1060.029053,415.553711 1059.460938,408.425049 1058.806274,401.354462
	C1058.692993,400.131744 1056.502319,398.249847 1055.156494,398.145172
	C1050.186646,397.758453 1045.144775,397.675110 1040.173462,398.050873
	C1028.092773,398.963959 1017.875000,394.278870 1008.320923,387.747528
	C1002.375916,383.683411 996.785339,379.100861 990.491150,374.338959
	C971.924500,384.133636 952.633423,394.331573 933.322754,404.492035
	C912.121765,415.647064 890.900452,426.763580 869.691956,437.904388
	C851.482910,447.469543 833.271851,457.030884 815.075317,466.619812
	C790.319275,479.665375 765.584351,492.750916 740.825073,505.790253
	C721.913574,515.749939 702.966431,525.641968 684.056641,535.604736
	C659.270142,548.663574 634.512146,561.776367 609.727966,574.839600
	C591.550903,584.420349 573.343384,593.943176 555.164307,603.520142
	C535.977234,613.628174 516.822571,623.798035 497.626465,633.889038
	C478.119049,644.143616 458.574188,654.326904 439.053223,664.555786
	C411.581970,678.950562 384.131012,693.384216 356.646088,707.752808
	C334.521729,719.318970 312.374695,730.841980 290.208954,742.328674
	C277.276917,749.030273 264.287933,755.622070 251.325867,762.265869
	C250.448303,762.715759 249.618881,763.285767 248.703156,763.629761
	C246.353317,764.512573 243.098099,765.288208 242.421539,762.534241
	C241.767593,759.872375 240.046555,756.072388 244.367584,753.834412
	C253.898087,748.898315 263.264954,743.647522 272.745697,738.613892
	C306.015808,720.949707 339.297791,703.307678 372.590729,685.686401
	C404.534607,668.779114 436.488647,651.891052 468.455322,635.026794
	C492.255066,622.471130 516.095337,609.992371 539.893555,597.433899
	C570.472778,581.296997 601.013916,565.088135 631.597778,548.960022
	C655.996826,536.093384 680.454285,523.337708 704.851074,510.466736
	C735.434326,494.331940 765.966431,478.100464 796.549744,461.965912
	C820.205566,449.486023 843.911377,437.100830 867.585693,424.655914
	C898.490173,408.410309 929.397461,392.170044 960.275330,375.874115
	C967.153198,372.244293 973.822693,368.210510 980.770325,364.725983
	C983.844055,363.184387 984.468628,361.557648 982.933044,358.648865
	C976.753174,346.943298 977.391052,334.176422 978.187683,321.697540
	C978.912415,310.345123 983.786377,299.998718 990.630188,290.966766
	C1003.422668,274.084381 1019.688904,263.579132 1041.845093,263.912842
	C1053.353882,264.086151 1064.610107,264.332336 1075.167969,269.873260
	C1083.178955,274.077698 1090.527954,278.913666 1096.058838,286.214325
	C1098.807861,289.843018 1101.517944,293.535706 1104.645752,296.818268
	C1105.396851,297.606659 1108.020874,297.423584 1109.309448,296.762695
	C1124.557251,288.942230 1139.705322,280.927368 1154.899170,273.001343
	C1171.141479,264.528320 1187.381104,256.049561 1203.665894,247.658493
	C1218.725586,239.898560 1233.836792,232.238327 1248.944580,224.572357
	C1250.674927,223.694321 1252.495117,222.579559 1254.336426,222.447235
	C1256.281982,222.307388 1259.878296,222.955750 1260.000610,223.707626
	C1260.395630,226.135559 1260.417114,229.653030 1258.950195,231.134369
	C1256.161255,233.950974 1252.358765,235.868790 1248.772095,237.773422
	C1231.476440,246.957657 1214.074097,255.940659 1196.781616,265.130890
	C1169.324707,279.723114 1141.943848,294.458496 1114.485596,309.048187
	C1108.956421,311.986084 1111.943848,316.858032 1112.384766,320.296448
	C1114.801636,339.143555 1111.177490,356.234009 1099.911255,371.673401
	C1093.475098,380.493744 1085.130615,386.967041 1075.645630,392.069794
	C1072.459595,393.783875 1071.430420,395.480347 1071.748901,399.569366
	C1072.510254,409.341858 1071.980225,419.214111 1071.991211,429.046082
	C1072.000854,437.712311 1072.632690,446.427307 1071.928223,455.033844
	C1070.737915,469.572632 1068.896606,484.067474 1066.989990,498.536102
	C1063.941650,521.669006 1057.653809,544.015137 1050.064941,566.030762
	C1037.569336,602.281189 1020.543945,636.275452 998.555237,667.656006
	C990.790771,678.736816 981.882568,689.056946 973.032043,699.323914
	C964.942810,708.707947 956.624451,717.964844 947.707764,726.551575
	C925.061035,748.360413 900.479004,767.853699 873.374146,783.818726
	C838.650757,804.271118 801.814575,819.897644 762.409180,828.929871
	C747.598755,832.324646 732.735046,835.757507 717.712463,837.870667
	C705.513977,839.586670 693.048096,839.651062 680.689392,839.913635
	C665.529907,840.235718 650.323547,840.641235 635.202881,839.815002
	C622.021790,839.094666 608.904419,836.902954 595.806824,835.026733
	C570.060181,831.338623 545.285034,823.846252 520.906250,815.038208
	C499.094269,807.157471 478.010986,797.573608 458.435944,785.079102
	C442.031525,774.608337 426.055817,763.464783 409.936005,752.551575
	C408.748566,751.747681 407.931213,750.397217 406.975677,749.338440
	C411.269043,743.003723 415.576233,741.835999 421.482269,745.833069
	C432.797577,753.491211 443.887512,761.482422 455.207642,769.133179
	C459.057404,771.735046 463.284668,773.791382 467.397705,775.987854
	C477.448547,781.355164 487.455475,786.814148 497.638733,791.919861
	C502.434967,794.324585 507.585022,796.029907 512.594421,798.002197
	C523.674072,802.364380 534.586975,807.248047 545.893860,810.913086
	C564.404663,816.913147 583.262512,821.755554 602.671814,823.973206
	C615.182922,825.402710 627.715332,826.644897 641.075806,827.816833
	C642.669312,827.984558 643.427002,828.590942 644.180908,828.586182
	C658.414917,828.497498 672.648438,828.336487 686.882080,828.190613
M990.414734,321.174469
	C990.272766,324.980469 989.942200,328.790405 990.020874,332.591827
	C990.398926,350.878143 998.014099,365.526581 1012.865601,376.135712
	C1030.434937,388.686310 1049.505127,390.436401 1068.834717,381.273499
	C1089.163330,371.636993 1104.785889,348.128448 1100.156006,322.012848
	C1096.636597,302.161530 1085.181763,288.265472 1067.845703,280.397156
	C1049.272583,271.967316 1030.298340,273.585785 1013.164612,286.083282
	C1001.346313,294.703735 993.526245,305.886047 990.414734,321.174469
z"/>

</svg>