<svg width="36" height="36" viewBox="0 0 36 36" fill="none" xmlns="http://www.w3.org/2000/svg">
<path d="M28.905 7.995C26.91 7.065 24.75 6.39 22.5 6C22.4604 6.00056 22.4227 6.01674 22.395 6.045C22.125 6.54 21.81 7.185 21.6 7.68C19.2135 7.32023 16.7865 7.32023 14.4 7.68C14.19 7.17 13.875 6.54 13.59 6.045C13.575 6.015 13.53 6 13.485 6C11.235 6.39 9.08999 7.065 7.07999 7.995C7.06499 7.995 7.04999 8.01 7.03499 8.025C2.95499 14.13 1.82999 20.07 2.38499 25.95C2.38499 25.98 2.39999 26.01 2.42999 26.025C5.12999 28.005 7.72499 29.205 10.29 30C10.335 30.015 10.38 30 10.395 29.97C10.995 29.145 11.535 28.275 12 27.36C12.03 27.3 12 27.24 11.94 27.225C11.085 26.895 10.275 26.505 9.47999 26.055C9.41999 26.025 9.41999 25.935 9.46499 25.89C9.62999 25.77 9.79499 25.635 9.95999 25.515C9.98999 25.485 10.035 25.485 10.065 25.5C15.225 27.855 20.79 27.855 25.89 25.5C25.92 25.485 25.965 25.485 25.995 25.515C26.16 25.65 26.325 25.77 26.49 25.905C26.55 25.95 26.55 26.04 26.475 26.07C25.695 26.535 24.87 26.91 24.015 27.24C23.955 27.255 23.94 27.33 23.955 27.375C24.435 28.29 24.975 29.16 25.56 29.985C25.605 30 25.65 30.015 25.695 30C28.275 29.205 30.87 28.005 33.57 26.025C33.6 26.01 33.615 25.98 33.615 25.95C34.275 19.155 32.52 13.26 28.965 8.025C28.95 8.01 28.935 7.995 28.905 7.995ZM12.78 22.365C11.235 22.365 9.94499 20.94 9.94499 19.185C9.94499 17.43 11.205 16.005 12.78 16.005C14.37 16.005 15.63 17.445 15.615 19.185C15.615 20.94 14.355 22.365 12.78 22.365ZM23.235 22.365C21.69 22.365 20.4 20.94 20.4 19.185C20.4 17.43 21.66 16.005 23.235 16.005C24.825 16.005 26.085 17.445 26.07 19.185C26.07 20.94 24.825 22.365 23.235 22.365Z" fill="white"/>
</svg>
