<!--?xml version="1.0" standalone="no"?--><!doctype html>
<svg
  version="1.0"
  xmlns="http://www.w3.org/2000/svg"
  width="1100.000000pt"
  height="1100.000000pt"
  viewBox="0 0 1100.000000 1100.000000"
  preserveAspectRatio="xMidYMid meet"
>
  <g
    transform="translate(0.000000,1100.000000) scale(0.100000,-0.100000)"
    fill="#000000"
    stroke="none"
  >
    <path
      d="M5080 10136 c-148 -33 -257 -144 -289 -294 -6 -30 -11 -150 -11 -282
l0 -228 -392 -449 c-216 -247 -462 -529 -547 -626 l-154 -177 -1307 0 c-719 0
-1322 -3 -1339 -6 l-32 -7 6 -101 c31 -524 90 -862 221 -1254 333 -1002 1075
-1748 2209 -2222 l160 -67 3 -412 2 -411 430 0 430 0 -2 -372 -3 -372 -325
-178 c-179 -98 -603 -330 -942 -515 l-618 -338 0 -482 0 -483 2925 0 2925 0 0
484 0 484 -452 247 c-249 136 -675 369 -945 517 l-493 270 0 374 0 374 430 0
430 0 0 409 0 408 108 43 c809 325 1447 812 1858 1420 377 556 593 1262 621
2028 l6 162 -1334 0 -1334 0 -550 629 -550 629 -5 268 c-5 266 -5 270 -32 326
-35 75 -104 142 -186 181 l-67 32 -400 2 c-290 1 -415 -2 -455 -11z m740 -501
l0 -165 -312 2 -313 3 -3 150 c-1 82 0 155 2 162 4 10 71 13 316 13 l310 0 0
-165z m360 -807 c439 -506 620 -717 620 -722 0 -3 -247 -6 -550 -6 l-550 0 0
505 0 505 118 0 117 0 245 -282z m-870 -228 l0 -500 -556 0 c-535 0 -555 1
-542 18 7 10 202 235 433 500 l419 482 123 0 123 0 0 -500z m-2584 -886 c-3
-8 -214 -312 -468 -676 -425 -608 -463 -659 -476 -642 -23 31 -137 272 -176
371 -99 254 -173 581 -201 891 l-7 72 667 0 c600 0 667 -2 661 -16z m6884 -14
c0 -65 -42 -351 -71 -483 -35 -161 -100 -370 -160 -512 -46 -113 -144 -311
-157 -319 -9 -6 -22 12 -569 791 -205 293 -373 537 -373 543 0 7 213 10 665
10 l665 0 0 -30z m-4547 -92 c-344 -498 -755 -1083 -760 -1083 -8 0 -25 23
-470 658 -200 285 -363 523 -363 528 0 5 339 9 836 9 l835 0 -78 -112z m2480
98 c-20 -35 -829 -1185 -833 -1185 -4 0 -813 1150 -833 1185 -7 12 119 14 833
14 714 0 840 -2 833 -14z m-4078 -646 c186 -267 368 -528 406 -582 37 -53 65
-99 62 -102 -11 -11 -1685 -7 -1681 4 2 5 191 280 422 610 414 594 418 600
435 577 10 -12 170 -240 356 -507z m2479 -100 c217 -311 396 -568 396 -572 0
-5 -376 -8 -835 -8 -617 0 -835 3 -835 11 0 7 187 279 416 606 l416 595 23
-34 c13 -18 201 -287 419 -598z m2399 17 c230 -328 417 -599 417 -602 0 -3
-380 -5 -845 -5 -465 0 -845 2 -845 5 0 4 125 185 278 403 153 218 343 490
422 605 79 114 147 204 150 200 4 -5 194 -277 423 -606z m-4427 -982 c-11 -31
-729 -975 -740 -975 -16 0 -203 105 -310 174 -307 198 -597 473 -817 774 l-31
42 952 0 c852 0 952 -2 946 -15z m5068 3 c-68 -117 -419 -491 -584 -622 -180
-143 -561 -380 -579 -360 -12 13 -726 967 -735 982 -6 9 187 12 949 12 762 0
955 -3 949 -12z m-2711 -111 c-245 -355 -759 -1086 -763 -1087 -9 0 -840 1183
-840 1195 0 3 378 5 841 5 l840 0 -78 -113z m-1549 -625 c229 -327 416 -598
416 -603 0 -12 -586 -11 -735 2 -161 13 -306 35 -445 65 -131 29 -420 122
-420 135 0 19 752 1011 760 1003 5 -5 196 -276 424 -602z m2372 106 c336 -449
374 -503 359 -514 -35 -26 -330 -115 -473 -144 -248 -49 -326 -55 -729 -55
-204 0 -374 3 -378 7 -7 7 825 1207 838 1208 4 0 176 -226 383 -502z m-76
-1228 l0 -180 -402 0 c-222 0 -408 -4 -414 -8 -7 -4 -17 -68 -23 -157 -7 -82
-14 -156 -16 -163 -4 -10 -141 -12 -662 -10 l-658 3 -6 55 c-4 30 -10 103 -14
162 l-7 108 -416 2 -417 3 -3 183 -2 182 1520 0 1520 0 0 -180z m-852 -1042
l-3 -153 -657 -3 -658 -2 0 155 0 155 660 0 661 0 -3 -152z m-1274 -544 c9 -8
16 -18 16 -22 -1 -4 -145 -180 -320 -391 l-320 -385 0 -279 0 -280 -157 6
c-87 4 -386 7 -665 7 l-508 0 0 203 0 202 98 54 c53 29 354 193 667 363 314
171 644 351 735 401 91 51 194 102 230 114 80 28 200 31 224 7z m1074 -436
l382 -453 0 -227 0 -228 -845 0 -845 0 0 228 1 227 382 453 381 452 82 0 81 0
381 -452z m361 433 c33 -10 158 -73 278 -139 120 -66 495 -271 833 -456 l615
-335 3 -205 2 -206 -660 0 -660 0 0 276 0 275 -307 372 c-367 442 -338 404
-323 422 18 22 144 19 219 -4z"
    ></path>
    <path d="M2563 915 c0 -38 2 -53 4 -32 2 20 2 52 0 70 -2 17 -4 1 -4 -38z"
    ></path>
  </g>
</svg>
