<svg width="36" height="36" viewBox="0 0 36 36" fill="none" xmlns="http://www.w3.org/2000/svg">
<path d="M24.3352 24.1345V21.4843C29.9402 19.3991 32.8748 15.565 33 9.6861H24.0848C22.847 8.3139 21.6231 6.96861 20.4131 5.62332V4.23767C20.4131 3.55157 19.8428 3 19.1335 3H16.9221C16.8665 3 16.8108 3 16.7552 3.01345C16.1015 3.06726 15.5869 3.59193 15.5869 4.23767V5.63677C14.3769 6.96861 13.1669 8.3139 11.9291 9.6861H3.15299C3.15299 9.6861 3.15299 9.6861 3.15299 9.69955H3C3.12517 15.5785 6.05981 19.4126 11.6648 21.4978V24.148H14.5438V26.5426C12.4437 27.6592 10.3296 28.7758 8.21558 29.8924V33H27.6871H27.7844V29.8789C25.6704 28.7623 23.5563 27.6457 21.4562 26.5291V24.1345H24.3352ZM6.37969 16.3856C8.52156 16.3856 10.58 16.3856 12.7357 16.3856C11.8734 17.5022 11.0668 18.5381 10.2462 19.5874C8.68846 18.8206 7.42281 17.7982 6.37969 16.3856ZM25.7538 19.6009C24.9332 18.5381 24.1266 17.5022 23.2643 16.3856C25.4339 16.3856 27.4784 16.3856 29.6342 16.3856C28.5911 17.7982 27.3255 18.8206 25.7538 19.6009ZM27.242 10.843C28.7997 10.843 30.2323 10.843 31.7065 10.843C31.5814 12.4036 31.2058 13.8161 30.3992 15.1883C29.3282 13.722 28.3129 12.3229 27.242 10.843ZM28.8693 15.1883C26.9499 15.1883 25.1419 15.1883 23.2225 15.1883C24.1822 13.87 25.0862 12.6188 26.0459 11.2735C27.0056 12.6054 27.9096 13.8565 28.8693 15.1883ZM22.0264 14.7309C21.0807 13.426 20.1766 12.1749 19.217 10.8565C21.1085 10.8565 22.9026 10.8565 24.8359 10.8565C23.8762 12.1749 22.9722 13.426 22.0264 14.7309ZM15.1836 15.1614C16.1293 13.843 17.0334 12.6054 17.993 11.2735C18.9527 12.6054 19.8567 13.843 20.8025 15.1614C18.911 15.1614 17.1029 15.1614 15.1836 15.1614ZM15.1975 16.3991C17.1168 16.3991 18.9249 16.3991 20.8303 16.3991C19.8846 17.7175 18.9805 18.9552 18.0209 20.287C17.0334 18.9552 16.1433 17.7175 15.1975 16.3991ZM18.6606 9.61883C18.6606 8.48879 18.6606 7.45291 18.6606 6.37668C18.911 6.37668 19.1474 6.37668 19.4395 6.37668C20.3853 7.42601 21.331 8.47534 22.3463 9.61883C21.0529 9.61883 19.8707 9.61883 18.6606 9.61883ZM19.0501 5.17937C18.3547 5.17937 17.6732 5.17937 16.9638 5.17937C16.9638 4.78924 16.9638 4.49327 16.9638 4.15695C17.6732 4.15695 18.3408 4.15695 19.0501 4.15695C19.0501 4.49327 19.0501 4.80269 19.0501 5.17937ZM16.8108 20.7444C16.6996 20.7444 16.5883 20.7578 16.4771 20.7578C14.7107 20.7982 13.0834 20.7444 11.4284 20.0852C12.2768 18.9955 13.0834 17.9462 13.9597 16.8161C14.9332 18.148 15.8373 19.4126 16.8108 20.7444ZM19.2031 20.7309C20.1627 19.3991 21.0668 18.148 22.0403 16.8027C22.9165 17.9462 23.7371 18.9821 24.5716 20.0852C23.4729 20.5291 22.388 20.704 21.2615 20.7578C20.5939 20.7848 19.9124 20.7578 19.2031 20.7309ZM17.3394 6.39013C17.3394 7.45291 17.3394 8.50224 17.3394 9.61883C16.1433 9.61883 14.9611 9.61883 13.6398 9.61883C14.669 8.47534 15.6147 7.42601 16.5466 6.39013C16.8108 6.39013 17.0612 6.39013 17.3394 6.39013ZM16.783 10.8565C15.8234 12.1883 14.9332 13.426 13.9875 14.7309C13.0417 13.426 12.1377 12.1883 11.1919 10.87C13.1113 10.8565 14.9054 10.8565 16.783 10.8565ZM12.7775 15.1883C10.8581 15.1883 9.05007 15.1883 7.13074 15.1883C8.0904 13.8565 8.99444 12.6054 9.9541 11.2735C10.9277 12.6188 11.8317 13.87 12.7775 15.1883ZM8.758 10.843C7.68707 12.3229 6.67177 13.7354 5.61474 15.1883C4.80807 13.8161 4.43255 12.4036 4.30737 10.843C5.76773 10.843 7.21419 10.843 8.758 10.843ZM20.2045 26.2735C18.7302 26.2735 17.2976 26.2735 15.8095 26.2735C15.8095 25.9372 15.8095 25.6278 15.8095 25.278C17.2976 25.278 18.7441 25.278 20.2045 25.278C20.2045 25.6278 20.2045 25.9372 20.2045 26.2735ZM9.46732 31.87C9.46732 31.4529 9.46732 31.0359 9.46732 30.5516C11.0668 29.704 12.7079 28.8431 14.3491 27.9821C14.8359 27.7265 15.2809 27.3767 15.9624 27.5112C15.9764 27.5381 15.9903 27.565 16.0181 27.6054C15.3227 28.426 14.6134 29.2332 13.8762 30.1076C13.8762 30.6861 13.8762 31.2915 13.8762 31.8834C12.4019 31.87 10.9555 31.87 9.46732 31.87ZM15.1975 31.87C15.1975 31.4126 15.1975 30.9283 15.1975 30.4036C16.0042 29.4753 16.8665 28.4798 17.7288 27.4978C17.9096 27.4978 18.0904 27.4978 18.2851 27.4978C19.1474 28.4798 20.0097 29.4753 20.8164 30.4036C20.8164 30.9417 20.8164 31.4126 20.8164 31.87C18.9388 31.87 17.1029 31.87 15.1975 31.87ZM19.9819 27.5785C19.9958 27.5516 20.0097 27.5247 20.0236 27.5112C20.7051 27.3632 21.1641 27.7265 21.6509 27.9821C23.2921 28.843 24.9332 29.7175 26.5327 30.5516C26.5327 31.0359 26.5327 31.4529 26.5327 31.87C25.0445 31.87 23.5981 31.87 22.1238 31.87C22.1238 31.278 22.1238 30.6592 22.1238 30.0807C21.3866 29.2197 20.6912 28.3991 19.9819 27.5785ZM20.2879 23.0314C20.2601 23.4215 20.2323 23.7309 20.2045 24.0673C18.7441 24.0673 17.2837 24.0673 15.7955 24.0673C15.7677 23.7309 15.7538 23.4215 15.7121 23.0314C15.6704 23.0314 15.6287 23.0045 15.6008 23.0045C15.6008 23.0179 15.6704 23.0045 15.6008 23.0045C14.669 23.0045 13.8067 23.0045 12.9305 23.0045C12.9305 22.5471 12.9305 22.1569 12.9305 21.8206C16.3241 21.8206 19.6759 21.8206 23.0556 21.8206C23.0556 22.1569 23.0556 22.5336 23.0556 22.991C22.1794 22.991 21.3171 22.991 20.3853 22.991" fill="white"/>
</svg>
