<?xml version="1.0" encoding="UTF-8"?>
<svg version="1.1" xmlns="http://www.w3.org/2000/svg" width="512" height="512" fill="currentColor">
<path d="M0 0 C0.75155365 -0.00067474 1.5031073 -0.00134949 2.2774353 -0.00204468 C47.13018751 0.06164886 90.09455806 14.51931723 126.75 40.25 C125.61909474 43.64271578 125.32324586 43.78434529 122.33520508 45.35058594 C121.61387894 45.73398132 120.8925528 46.11737671 120.14936829 46.51239014 C119.36402206 46.91564514 118.57867584 47.31890015 117.76953125 47.734375 C116.96392258 48.15422668 116.1583139 48.57407837 115.32829285 49.00665283 C113.62016636 49.89248641 111.90932864 50.77310837 110.19604492 51.64892578 C107.58073323 52.9906459 104.98085348 54.35935211 102.38085938 55.73046875 C100.71962092 56.58762752 99.05753725 57.44315057 97.39453125 58.296875 C96.61930618 58.70822693 95.84408112 59.11957886 95.04536438 59.543396 C90.54707426 61.80623128 87.77932644 62.82847327 82.75 61.25 C80.59673863 60.29021296 78.47372177 59.26132151 76.375 58.1875 C34.63891236 37.90578691 -13.66391353 35.94223378 -57.421875 50.625 C-80.90778907 58.85300053 -102.21977 72.13337331 -120.25 89.25 C-120.99419189 89.94536865 -120.99419189 89.94536865 -121.75341797 90.65478516 C-150.49629046 117.64601445 -167.78600728 154.41224174 -173.25 193.25 C-173.34716309 193.91765381 -173.44432617 194.58530762 -173.54443359 195.27319336 C-174.43030071 202.11004919 -174.39763461 208.92780611 -174.375 215.8125 C-174.37886719 216.99263672 -174.38273437 218.17277344 -174.38671875 219.38867188 C-174.37994868 225.43772949 -174.18125906 231.27072557 -173.25 237.25 C-155.72328124 228.58062973 -155.72328124 228.58062973 -138.375 219.5625 C-129.09111985 214.60983543 -119.66858371 209.93928576 -110.25 205.25 C-100.29959884 200.29588397 -90.36771375 195.33065992 -80.56640625 190.0859375 C-71.79023908 185.42112792 -62.86752574 181.04387809 -53.97064209 176.615448 C-45.85347495 172.57349483 -37.74717872 168.52616498 -29.75 164.25 C-20.2566475 159.17381714 -10.60767073 154.41228179 -0.97119141 149.61572266 C7.14615883 145.57367787 15.25264075 141.52626151 23.25 137.25 C31.99541418 132.57374664 40.87270155 128.16868154 49.75 123.75 C63.00384063 117.16076539 63.00384063 117.16076539 76.125 110.3125 C86.0328779 105.01206626 96.11193321 100.05284982 106.16973877 95.04525757 C115.35983519 90.46794951 124.520212 85.85806929 133.57421875 81.015625 C141.92727018 76.57476221 150.41553876 72.40201487 158.88439941 68.18792725 C166.71698144 64.28877043 174.53159491 60.37216847 182.25 56.25 C191.36242902 51.3833252 200.6131065 46.80111468 209.86114502 42.19955444 C220.29430459 37.00608176 230.64558071 31.68200948 240.93603516 26.21044922 C243.55030962 24.82625598 246.17643763 23.46719819 248.8125 22.125 C249.54597656 21.75117187 250.27945312 21.37734375 251.03515625 20.9921875 C252.75 20.25 252.75 20.25 254.75 20.25 C254.75 35.1 254.75 49.95 254.75 65.25 C222.65670972 81.84059921 222.65670972 81.84059921 206.875 89.6875 C198.68200474 93.7612551 190.54176887 97.90577315 182.46923828 102.21264648 C174.30376068 106.53918287 166.02215355 110.63258372 157.75 114.75 C144.43405384 121.37120647 144.43405384 121.37120647 131.25 128.25 C121.7566475 133.32618286 112.10767073 138.08771821 102.47119141 142.88427734 C94.35384117 146.92632213 86.24735925 150.97373849 78.25 155.25 C68.75730959 160.32582883 59.10902065 165.08706094 49.47320557 169.88327026 C40.60228621 174.30053662 31.76786736 178.76221521 23.02734375 183.43359375 C14.63877955 187.8895512 6.11742067 192.08157409 -2.38586426 196.31280518 C-10.17628829 200.19099482 -17.94934056 204.08523881 -25.625 208.1875 C-34.41289301 212.88307178 -43.33099678 217.31058247 -52.25 221.75 C-65.56594415 228.37121028 -65.56594415 228.37121028 -78.75 235.25 C-88.2433525 240.32618286 -97.89232927 245.08771821 -107.52880859 249.88427734 C-115.64615883 253.92632213 -123.75264075 257.97373849 -131.75 262.25 C-141.24269041 267.32582883 -150.89097935 272.08706094 -160.52679443 276.88327026 C-169.39771379 281.30053662 -178.23213264 285.76221521 -186.97265625 290.43359375 C-195.35281984 294.88508885 -203.86499818 299.07453179 -212.36068726 303.29971313 C-221.41320031 307.80333475 -230.4309764 312.35381771 -239.33007812 317.15625 C-242.83293922 319.03533584 -246.35530857 320.77345526 -249.99438477 322.37597656 C-250.79441422 322.7290387 -251.59444366 323.08210083 -252.41871643 323.44586182 C-253.02304001 323.71122742 -253.62736359 323.97659302 -254.25 324.25 C-254.50407499 317.9520513 -254.67886704 311.65542634 -254.79931641 305.35351562 C-254.84953209 303.21141184 -254.91772347 301.06964961 -255.00439453 298.92871094 C-255.70538514 281.16478432 -255.70538514 281.16478432 -252.24755859 276.61547852 C-249.60338419 275.00743921 -247.21774352 274.10039656 -244.25 273.25 C-242.91040865 272.60527689 -241.58287325 271.9344225 -240.2734375 271.23046875 C-239.66927002 270.935354 -239.06510254 270.64023926 -238.44262695 270.33618164 C-227.96671053 265.1566184 -221.07472285 258.55129972 -217.25 247.25 C-216.44175133 244.43330451 -216.12216845 241.92928726 -216.1081543 239.00170898 C-216.1009285 238.16722229 -216.0937027 237.3327356 -216.08625793 236.47296143 C-216.08029854 235.12316193 -216.08029854 235.12316193 -216.07421875 233.74609375 C-216.05447027 231.80166336 -216.03342336 229.85724582 -216.01123047 227.9128418 C-216.00009216 226.8960434 -215.98895386 225.879245 -215.97747803 224.83163452 C-215.23766706 166.64804365 -199.1813898 114.13794089 -159.3984375 70.62109375 C-157.48772896 68.51236633 -155.64699852 66.36219895 -153.8125 64.1875 C-140.96013948 49.55737533 -124.01741073 37.96175632 -107.25 28.25 C-106.59628418 27.8689209 -105.94256836 27.4878418 -105.26904297 27.09521484 C-81.01749822 13.14121251 -53.94847436 4.7960814 -26.25 1.25 C-25.18048096 1.10860596 -25.18048096 1.10860596 -24.08935547 0.96435547 C-16.08171274 0.0284842 -8.0510891 0.0065225 0 0 Z " transform="translate(256.25,36.75)"/>
<path d="M0 0 C0 14.85 0 29.7 0 45 C-6.6 48.3 -13.2 51.6 -20 55 C-29.63065951 61.38311154 -35.14850411 68.77267892 -38 80 C-38.39564741 83.47997195 -38.41779686 86.92202076 -38.40625 90.421875 C-38.42250427 91.89288666 -38.42250427 91.89288666 -38.43908691 93.39361572 C-38.4730904 96.51247706 -38.48885891 99.63097871 -38.5 102.75 C-38.56900556 121.67252458 -39.64909425 140.12713293 -44.25 158.5625 C-44.46197021 159.42069336 -44.67394043 160.27888672 -44.89233398 161.16308594 C-52.53155996 191.06355797 -66.42324946 219.13725765 -86 243 C-86.46664063 243.56960449 -86.93328125 244.13920898 -87.4140625 244.72607422 C-111.61796947 274.05066071 -142.29703661 296.61425874 -178 310 C-178.72719238 310.27537598 -179.45438477 310.55075195 -180.20361328 310.83447266 C-204.04336728 319.71217229 -228.78458047 323.42076889 -254.125 323.3125 C-255.03240936 323.31034485 -255.93981873 323.3081897 -256.87472534 323.30596924 C-270.13119318 323.25542834 -283.01337817 322.88678053 -296 320 C-296.93440918 319.80132324 -297.86881836 319.60264648 -298.83154297 319.39794922 C-319.32134952 314.95810313 -338.57383789 307.99805209 -357 298 C-357.61987793 297.66468262 -358.23975586 297.32936523 -358.87841797 296.98388672 C-374.7640802 288.31633716 -374.7640802 288.31633716 -381 283 C-381 282.34 -381 281.68 -381 281 C-374.34018231 277.50552153 -367.67251841 274.02650405 -360.99755859 270.56103516 C-358.34357344 269.17892235 -355.69652879 267.78450323 -353.05078125 266.38671875 C-351.63841306 265.65289044 -350.22568168 264.91976049 -348.8125 264.1875 C-347.8534375 263.67316406 -347.8534375 263.67316406 -346.875 263.1484375 C-342.51849632 260.91798355 -342.51849632 260.91798355 -340.07226562 261.30493164 C-337.88515958 262.03851917 -335.84861263 262.90718646 -333.76171875 263.890625 C-332.54319214 264.45680542 -332.54319214 264.45680542 -331.30004883 265.03442383 C-330.43790771 265.43556396 -329.5757666 265.8367041 -328.6875 266.25 C-305.19948824 276.96327352 -280.9473035 282.44490834 -255.125 282.375 C-254.36364746 282.37445618 -253.60229492 282.37391235 -252.81787109 282.37335205 C-206.00723413 282.22055986 -163.4138798 263.46327156 -130 231 C-129.44892578 230.47229004 -128.89785156 229.94458008 -128.33007812 229.40087891 C-100.28371234 202.08891355 -81.43482003 159.90956079 -79.91358948 120.77716064 C-79.88579183 118.52650571 -79.88711609 116.27811083 -79.90234375 114.02734375 C-79.9037587 113.21882462 -79.90517365 112.41030548 -79.90663147 111.57728577 C-79.91216586 109.03065058 -79.9247054 106.48410797 -79.9375 103.9375 C-79.9425235 102.19596482 -79.94708491 100.45442825 -79.95117188 98.71289062 C-79.96211366 94.47522552 -79.97933174 90.23762837 -80 86 C-86.77435429 89.37430236 -93.54701283 92.75199103 -100.31860352 96.13183594 C-102.61347871 97.27678799 -104.90871503 98.42101656 -107.2043457 99.56445312 C-118.98942446 105.4351063 -130.74693108 111.33921854 -142.37739563 117.51132202 C-149.48417581 121.27677101 -156.66860408 124.87597004 -163.87481689 128.44656372 C-174.22122618 133.57519611 -184.53754899 138.74015654 -194.72265625 144.18359375 C-203.11122045 148.6395512 -211.63257933 152.83157409 -220.13586426 157.06280518 C-227.92628829 160.94099482 -235.69934056 164.83523881 -243.375 168.9375 C-252.16289301 173.63307178 -261.08099678 178.06058247 -270 182.5 C-283.31594415 189.12121028 -283.31594415 189.12121028 -296.5 196 C-305.99269041 201.07582883 -315.64097935 205.83706094 -325.27679443 210.63327026 C-334.14771379 215.05053662 -342.98213264 219.51221521 -351.72265625 224.18359375 C-360.11122045 228.6395512 -368.63257933 232.83157409 -377.13586426 237.06280518 C-384.92628829 240.94099482 -392.69934056 244.83523881 -400.375 248.9375 C-409.16289301 253.63307178 -418.08099678 258.06058247 -427 262.5 C-440.31589073 269.12131346 -440.31589073 269.12131346 -453.5 276 C-466.45745141 282.92492737 -479.6650011 289.37428666 -492.81811523 295.91699219 C-498.2151091 298.60524904 -503.60709594 301.30354797 -509 304 C-509 288.82 -509 273.64 -509 258 C-489.1875 248.125 -489.1875 248.125 -483.06713867 245.07861328 C-473.57296747 240.34356882 -464.13277955 235.52511212 -454.7585907 230.55667114 C-447.88638561 226.92064966 -440.94737201 223.43076923 -433.98022461 219.98095703 C-424.76868073 215.41777329 -415.56836072 210.84313924 -406.5 206 C-398.08069894 201.50350404 -389.54453748 197.25174426 -381 193 C-372.53884399 188.78971833 -364.08449641 184.58262143 -355.75 180.125 C-346.59363264 175.23019427 -337.29345323 170.62704008 -328 166 C-314.18059181 159.1354763 -314.18059181 159.1354763 -300.5 152 C-290.63336135 146.71766956 -280.59326639 141.78057493 -270.57568359 136.79296875 C-257.97481822 130.51943294 -257.97481822 130.51943294 -245.5 124 C-235.63336135 118.71766956 -225.59326639 113.78057493 -215.57568359 108.79296875 C-202.97481822 102.51943294 -202.97481822 102.51943294 -190.5 96 C-180.63402315 90.71802387 -170.59461581 85.78123343 -160.57769775 80.79397583 C-151.4352908 76.24040343 -142.3224371 71.65510391 -133.31640625 66.8359375 C-124.53957626 62.17077561 -115.61617635 57.79321957 -106.71862793 53.36444092 C-98.643811 49.34355871 -90.57916075 45.31880613 -82.625 41.0625 C-72.72241756 35.76489919 -62.64886269 30.80811626 -52.59637451 25.80331421 C-43.03898903 21.04321798 -33.51538794 16.23948077 -24.08813477 11.22509766 C-19.06494149 8.55372873 -14.01714365 5.9375699 -8.9375 3.375 C-7.92574707 2.85945557 -7.92574707 2.85945557 -6.89355469 2.33349609 C-2.23631079 0 -2.23631079 0 0 0 Z " transform="translate(511,145)"/>
</svg>
