<svg width="24" height="24" viewBox="0 0 24 24" fill="none" xmlns="http://www.w3.org/2000/svg">
<path d="M12 22C10.6333 22 9.34167 21.7373 8.125 21.212C6.90833 20.6867 5.846 19.97 4.938 19.062C4.03 18.154 3.31333 17.0917 2.788 15.875C2.26267 14.6583 2 13.3667 2 12C2 10.6167 2.26267 9.321 2.788 8.113C3.31333 6.905 4.03 5.84667 4.938 4.938C5.846 4.02933 6.90833 3.31267 8.125 2.788C9.34167 2.26333 10.6333 2.00067 12 2C13.3833 2 14.6793 2.26267 15.888 2.788C17.0967 3.31333 18.1547 4.03 19.062 4.938C19.9693 5.846 20.686 6.90433 21.212 8.113C21.738 9.32167 22.0007 10.6173 22 12C22 13.3667 21.7373 14.6583 21.212 15.875C20.6867 17.0917 19.97 18.1543 19.062 19.063C18.154 19.9717 17.0957 20.6883 15.887 21.213C14.6783 21.7377 13.3827 22 12 22ZM12 19.95C12.4333 19.35 12.8083 18.725 13.125 18.075C13.4417 17.425 13.7 16.7333 13.9 16H10.1C10.3 16.7333 10.5583 17.425 10.875 18.075C11.1917 18.725 11.5667 19.35 12 19.95ZM9.4 19.55C9.1 19 8.83767 18.429 8.613 17.837C8.38833 17.245 8.20067 16.6327 8.05 16H5.1C5.58333 16.8333 6.18767 17.5583 6.913 18.175C7.63833 18.7917 8.46733 19.25 9.4 19.55ZM14.6 19.55C15.5333 19.25 16.3627 18.7917 17.088 18.175C17.8133 17.5583 18.4173 16.8333 18.9 16H15.95C15.8 16.6333 15.6127 17.246 15.388 17.838C15.1633 18.43 14.9007 19.0007 14.6 19.55ZM4.25 14H7.65C7.6 13.6667 7.56267 13.3377 7.538 13.013C7.51333 12.6883 7.50067 12.3507 7.5 12C7.49933 11.6493 7.512 11.312 7.538 10.988C7.564 10.664 7.60133 10.3347 7.65 10H4.25C4.16667 10.3333 4.10433 10.6627 4.063 10.988C4.02167 11.3133 4.00067 11.6507 4 12C3.99933 12.3493 4.02033 12.687 4.063 13.013C4.10567 13.339 4.168 13.668 4.25 14ZM9.65 14H14.35C14.4 13.6667 14.4377 13.3377 14.463 13.013C14.4883 12.6883 14.5007 12.3507 14.5 12C14.4993 11.6493 14.4867 11.312 14.462 10.988C14.4373 10.664 14.4 10.3347 14.35 10H9.65C9.6 10.3333 9.56267 10.6627 9.538 10.988C9.51333 11.3133 9.50067 11.6507 9.5 12C9.49933 12.3493 9.512 12.687 9.538 13.013C9.564 13.339 9.60133 13.668 9.65 14ZM16.35 14H19.75C19.8333 13.6667 19.896 13.3377 19.938 13.013C19.98 12.6883 20.0007 12.3507 20 12C19.9993 11.6493 19.9787 11.312 19.938 10.988C19.8973 10.664 19.8347 10.3347 19.75 10H16.35C16.4 10.3333 16.4377 10.6627 16.463 10.988C16.4883 11.3133 16.5007 11.6507 16.5 12C16.4993 12.3493 16.4867 12.687 16.462 13.013C16.4373 13.339 16.4 13.668 16.35 14ZM15.95 8H18.9C18.4167 7.16667 17.8127 6.44167 17.088 5.825C16.3633 5.20833 15.534 4.75 14.6 4.45C14.9 5 15.1627 5.571 15.388 6.163C15.6133 6.755 15.8007 7.36733 15.95 8ZM10.1 8H13.9C13.7 7.26667 13.4417 6.575 13.125 5.925C12.8083 5.275 12.4333 4.65 12 4.05C11.5667 4.65 11.1917 5.275 10.875 5.925C10.5583 6.575 10.3 7.26667 10.1 8ZM5.1 8H8.05C8.2 7.36667 8.38767 6.754 8.613 6.162C8.83833 5.57 9.10067 4.99933 9.4 4.45C8.46667 4.75 7.63733 5.20833 6.912 5.825C6.18667 6.44167 5.58267 7.16667 5.1 8Z" fill="#311255"/>
</svg>
