<svg width="30" height="26" viewBox="0 0 30 26" fill="none" xmlns="http://www.w3.org/2000/svg">
<path fill-rule="evenodd" clip-rule="evenodd" d="M27.8245 2.87516C27.8168 3.50076 27.7041 4.0952 27.6026 4.68855C27.3148 6.37116 26.8411 8.00196 26.2182 9.5852C25.5045 11.399 24.5811 13.0969 23.4701 14.6907C22.3436 16.3068 21.0666 17.787 19.6283 19.118C17.7081 20.8954 15.5626 22.3323 13.2111 23.4532C11.4308 24.3019 9.58376 24.9446 7.65296 25.3178C5.83654 25.6693 4.00526 25.8204 2.15395 25.6342C1.74862 25.5935 1.37156 25.4061 0.952108 25.4433C0.677271 25.4677 0.400656 25.4678 0.135203 25.5534C0.0747529 25.5729 -0.0179799 25.5903 -0.00216281 25.6887C0.00994905 25.7633 0.0874855 25.7677 0.145783 25.7853C0.433085 25.8714 0.730174 25.8255 1.022 25.8526C2.66643 26.0059 4.31121 26.0154 5.9538 25.8421C7.78272 25.6495 9.56924 25.2553 11.312 24.6545C12.9946 24.074 14.5966 23.3169 16.1145 22.3814C18.5745 20.8651 20.7503 19.0014 22.613 16.7662C23.5933 15.5899 24.4227 14.3066 25.206 12.9862C26.1881 11.3307 26.9088 9.56291 27.4566 7.72116C27.8899 6.26329 28.1681 4.76858 28.2633 3.24302C28.2707 3.12671 28.2934 3.01147 28.3638 2.87097C28.4857 3.09266 28.6143 3.31095 28.7283 3.53674C28.894 3.86516 29.1366 4.10505 29.4659 4.25751C29.6065 4.32259 29.7473 4.39284 29.8929 4.28328C30.0398 4.17254 30.0137 4.01765 29.9852 3.86081C29.9328 3.57188 29.8293 3.30584 29.6893 3.04834C29.3003 2.33383 28.9181 1.61527 28.5413 0.893976C28.4625 0.743258 28.4196 0.573323 28.3578 0.413078C28.2844 0.222687 28.1662 0.081187 27.9491 0.077887C27.7447 0.0749331 27.6558 0.224729 27.591 0.391647C27.1518 1.52524 26.5906 2.59687 26.0018 3.65456C25.9051 3.82841 25.8108 4.00382 25.7795 4.20513C25.7477 4.40936 25.8004 4.58592 25.9611 4.71624C26.1319 4.85471 26.3225 4.86098 26.5138 4.76564C26.7707 4.63775 26.9574 4.42743 27.097 4.18277C27.2888 3.84593 27.4559 3.49452 27.6383 3.15187C27.6866 3.06112 27.7087 2.95033 27.8245 2.87516Z" fill="#868489"/>
</svg>
