<svg width="44" height="80" viewBox="0 0 44 80" fill="none" xmlns="http://www.w3.org/2000/svg">
<path fill-rule="evenodd" clip-rule="evenodd" d="M37.5694 4.94618C36.2229 5.34822 35.0083 5.95761 33.7892 6.54232C30.332 8.20024 27.1012 10.2278 24.0651 12.5483C20.5868 15.2068 17.4879 18.247 14.7296 21.6284C11.9325 25.0569 9.52174 28.7269 7.53264 32.6532C4.87588 37.8955 3.09364 43.4147 2.12054 49.1841C1.38366 53.5522 1.13313 57.9376 1.51593 62.338C1.87531 66.478 2.67679 70.5266 4.21901 74.4108C4.5566 75.2612 5.19371 75.9602 5.37159 76.8891C5.48816 77.4978 5.65829 78.0954 5.63691 78.7214C5.63191 78.8641 5.65156 79.075 5.42923 79.1015C5.26061 79.1213 5.2034 78.9565 5.1295 78.8414C4.76664 78.2738 4.68276 77.6039 4.44446 76.9902C3.10059 73.5327 2.06715 69.9858 1.42985 66.3311C0.719669 62.262 0.470805 58.1604 0.695284 54.026C0.913015 50.0342 1.56166 46.1076 2.64753 42.2528C4.40775 36.0052 7.09344 30.1578 10.7742 24.7579C12.7115 21.916 14.9726 19.3343 17.3423 16.8291C20.3132 13.6882 23.6879 11.0428 27.3287 8.72544C30.2108 6.89163 33.2681 5.37021 36.5046 4.22492C36.7514 4.13748 36.9863 4.01743 37.2464 3.77873C36.6925 3.65197 36.1418 3.50878 35.5839 3.4016C34.7724 3.24591 34.1049 2.86952 33.5728 2.25227C33.3456 1.98867 33.1071 1.7277 33.2541 1.34568C33.4028 0.960156 33.7535 0.921326 34.1098 0.886083C34.7662 0.821356 35.4046 0.88124 36.047 1.02492C37.8299 1.42516 39.6174 1.80827 41.4074 2.17786C41.7815 2.25534 42.175 2.24333 42.5591 2.2781C43.0156 2.31938 43.394 2.48766 43.5349 2.95456C43.6671 3.39418 43.3983 3.67839 43.0776 3.92109C40.8996 5.56804 38.9305 7.44006 37.0085 9.36329C36.6925 9.6792 36.3717 9.99095 35.9561 10.1825C35.5346 10.377 35.1207 10.3718 34.7403 10.1051C34.336 9.8214 34.2051 9.41363 34.2932 8.94163C34.4113 8.30795 34.7506 7.77527 35.1931 7.32306C35.8025 6.70119 36.4587 6.12396 37.0865 5.519C37.2527 5.35859 37.4784 5.24281 37.5694 4.94618Z" fill="#868489"/>
</svg>
