<svg height="16" width="16" xmlns="http://www.w3.org/2000/svg"><path d="m-13.771529 5.9050966c.181174.8569201.2823 1.5051186.135325 2.3620387-1.145861.9506717-4.076448 1.3778558-4.072056 2.3620387l-.393673 2.558875c0 .978388 2.731928 1.771529 6.101933 1.771529s6.101933-.793141 6.101933-1.771529l-.393673-2.558875c-.0047-.8423279-2.952548-1.377856-4.084358-2.3620387-.09668-.7953524-.01972-1.5666863.147627-2.3620387z"/><path d="m-9.75 73.09375c-3.766412.121068-7.468069 1.386362-11.40625 3.25a1.25331 1.25331 0 0 0 -.6875 1.4375l.625 2.53125a1.25331 1.25331 0 0 0 .78125.84375c.161757.06256.275429.183794.71875.3125 2.335298.677989 5.907957 1.15625 9.90625 1.15625 3.9982931 0 7.5709518-.478261 9.90625-1.15625.44332111-.128707.55699247-.24994.71875-.3125a1.25331 1.25331 0 0 0 .78125-.8125l.65625-2.3125a1.25331 1.25331 0 0 0 -.53125-1.375c-3.9239032-2.613917-7.7023379-3.683568-11.46875-3.5625z" transform="matrix(.34209356 0 0 .34209356 -8.638748 -12.26548)"/><rect height="2.187184" rx="1.181019" transform="matrix(.9205234 -.39068744 .39068744 .9205234 0 0)" width="1.093592" x="-15.569602" y="-2.754653"/><rect height="2.187184" rx="1.181019" transform="matrix(-.9205234 -.39068744 -.39068744 .9205234 0 0)" width="1.093592" x="6.556731" y="6.636183"/><path d="m-12 0c-1.630647 0-2.952548 1.2337743-2.952548 2.7557118.01278.5632387.06085 1.232346.393673 2.7557117.196837.5905097 1.558851 2.1652021 1.574692 2.3620387.381733.1968365 1.771529.1968365 2.165203 0 0-.1968366 1.181019-1.771529 1.377855-2.3620387.374531-1.5832316.373585-2.1652021.393673-2.7557117 0-1.5219375-1.3219-2.7557118-2.952548-2.7557118z"/><g fill="#bebebe"><path d="m38 0c-1.630647 0-2.9375 1.2280625-2.9375 2.75.0037.1620664.01579.3963239.03125.59375-.27885.118349-.299198.6610508-.0625 1.21875.09386.2211566.213411.3909677.34375.53125.03167.1567366.02336.2271022.0625.40625.196837.5905097 1.577909 2.1781634 1.59375 2.375.381733.1968365 1.762576.1968365 2.15625 0 0-.1968366 1.178164-1.7844903 1.375-2.375.04372-.1848087.05963-.3096208.09375-.46875.108582-.1315273.201262-.2802861.28125-.46875.224863-.5298142.210329-1.0355869-.03125-1.1875.014243-.2134702.024977-.4406094.03125-.625 0-1.5219375-1.306852-2.75-2.9375-2.75zm-1.78125 8.40625c-1.233461.8706787-3.941711 1.2750309-3.9375 2.21875l-.375 2.5625c0 .519013.775005.988493 2 1.3125l.1875.71875a.42874928.42874928 0 0 0 .28125.28125c.05534.0214.09834.04972.25.09375.79889.231936 2.00721.40625 3.375.40625s2.60736-.174314 3.40625-.40625c.151657-.04403.163414-.07235.21875-.09375a.42874928.42874928 0 0 0 .28125-.28125l.21875-.71875c1.208619-.323691 1.96875-.797472 1.96875-1.3125l-.375-2.5625c-.004331-.776137-2.50122-1.2812678-3.78125-2.125a.97584188.97584188 0 0 1 -.3125.25c-.604994.3024961-1.016714.25-1.53125.25-.257268 0-.505803.0004922-.75-.03125-.244197-.031742-.441594-.059724-.75-.21875a.97584188.97584188 0 0 1 -.375-.34375z"/><path d="m8 .7783785c-2.256463 0-4.0648649 1.699373-4.0648649 3.8054054.00509.2242649.021845.5484266.043244.8216216-.3858679.1637694-.4140257.9147514-.086487 1.6864865.1298861.3060329.295314.5410147.4756757.7351351.043823.2168896.032325.3142604.086486.5621622.1511376.4534118.7470076 1.3420395 1.2972972 2.0756757.05396.563421.109936 1.132004 0 1.772973-1.5856236 1.315524-5.67094212 1.881347-5.66486451 3.243243l-.08648649.518919h16l-.08649-.518919c-.0065-1.1656-4.098682-1.881347-5.664862-3.243243-.06337-.521335-.07545-1.043272-.04324-1.556757.501434-.7738141 1.172201-1.7868737 1.34054-2.2918917.0605-.2557354.08252-.4284482.129729-.6486487.150255-.1820053.278504-.3878554.38919-.6486486.311162-.7331483.291049-1.4330284-.04324-1.6432432.01971-.2953966.03456-.6097082.04324-.8648649 0-2.1060324-1.8084-3.8054054-4.064865-3.8054054z"/></g></svg>