<svg width="20" height="20" viewBox="0 0 20 20" fill="none" xmlns="http://www.w3.org/2000/svg">
<path d="M2 2V18H12.9864L10.4218 14.3384C9.6848 13.2838 9.942 11.8266 10.9946 11.0892C11.908 10.4492 13.2342 10.5858 13.9998 11.3672V5.448V2H2ZM8.6666 16H4V14.6666H8.6666V16ZM8.6666 13.3334H4V12H8.6666V13.3334ZM7.3334 8.6666L5.3334 6.6666L6.2762 5.7238L7.3334 6.7804L9.724 4.3904L10.6666 5.333L7.3334 8.6666Z" fill="white"/>
<path d="M11.5143 13.5736L14.6139 18H18.0001V11.2188C18.0001 10.851 17.8511 10.5176 17.6095 10.2762L15.3335 8V13.6368H14.0001L13.1525 12.4264C12.8361 11.974 12.2125 11.8638 11.7599 12.181C11.3073 12.498 11.1979 13.121 11.5143 13.5736Z" fill="white"/>
</svg>
