<svg width="20" height="20" viewBox="0 0 20 20" fill="none" xmlns="http://www.w3.org/2000/svg">
<path d="M10 0L19 5.00045V14.9996L10 20L1 14.9996V5.00045L10 0ZM10 2.07082L2.86335 6.03496V13.965L10 17.9292L17.1366 13.965V6.03496L10 2.07082ZM10 7.31062C9.25871 7.31062 8.54778 7.59397 8.02361 8.09832C7.49944 8.60268 7.20497 9.28673 7.20497 10C7.20497 10.7133 7.49944 11.3973 8.02361 11.9017C8.54778 12.406 9.25871 12.6894 10 12.6894C10.7413 12.6894 11.4522 12.406 11.9764 11.9017C12.5006 11.3973 12.795 10.7133 12.795 10C12.795 9.28673 12.5006 8.60268 11.9764 8.09832C11.4522 7.59397 10.7413 7.31062 10 7.31062ZM5.34161 10C5.34161 8.81122 5.83241 7.67113 6.70602 6.83054C7.57964 5.98994 8.76452 5.5177 10 5.5177C11.2355 5.5177 12.4204 5.98994 13.294 6.83054C14.1676 7.67113 14.6584 8.81122 14.6584 10C14.6584 11.1888 14.1676 12.3289 13.294 13.1695C12.4204 14.0101 11.2355 14.4823 10 14.4823C8.76452 14.4823 7.57964 14.0101 6.70602 13.1695C5.83241 12.3289 5.34161 11.1888 5.34161 10Z" fill="#311255"/>
</svg>
