<svg width="20" height="20" viewBox="0 0 20 20" fill="none" xmlns="http://www.w3.org/2000/svg">
<path d="M2.30982 3.34854L2.30975 3.34862C1.48484 4.21107 1.00941 5.38705 1.00014 6.62436C0.990882 7.85964 1.44602 9.0412 2.25487 9.91663L9.96193 17.9774C9.96195 17.9774 9.96196 17.9774 9.96198 17.9774C9.98122 17.9975 9.99747 18 10.0044 18C10.0113 18 10.0276 17.9975 10.0468 17.9775L2.30982 3.34854ZM2.30982 3.34854C3.14095 2.4794 4.25821 2 5.41314 2C6.56807 2 7.68533 2.4794 8.51646 3.34855L8.51762 3.34975C8.72491 3.56579 8.98752 3.8303 9.30351 4.14175L10.0063 4.83445L10.7083 4.14094C11.0232 3.8298 11.2851 3.56572 11.4919 3.35013C12.3195 2.48849 13.429 2.01203 14.5766 2.00881C15.7242 2.0056 16.836 2.47581 17.6679 3.33265C18.5012 4.19098 18.9845 5.36778 18.9996 6.6097C19.0147 7.84874 18.5623 9.03603 17.7531 9.9164L10.0469 17.9774L2.30982 3.34854Z" stroke="#311255" stroke-width="2"/>
</svg>
