<svg width="18" height="18" viewBox="0 0 18 18" fill="none" xmlns="http://www.w3.org/2000/svg">
<g clip-path="url(#clip0_650_2045)">
<path d="M10.3028 16.3859C11.5172 16.1713 12.66 15.6607 13.63 14.8991C14.6 14.1376 15.3672 13.1486 15.8639 12.0198C16.3605 10.8911 16.5712 9.65722 16.4773 8.42758C16.3834 7.19794 15.9878 6.01042 15.3255 4.97013C14.5958 3.82466 13.5687 2.89884 12.354 2.29148C11.1392 1.68412 9.78226 1.41803 8.42807 1.5216C7.07387 1.62517 5.77321 2.09452 4.66492 2.87954C3.55662 3.66457 2.6823 4.73582 2.13527 5.97893C1.58823 7.22205 1.38903 8.59037 1.5589 9.93786C1.72878 11.2853 2.26137 12.5614 3.09982 13.6299C3.93828 14.6983 5.05112 15.519 6.31958 16.0044C7.58803 16.4898 8.96448 16.6217 10.302 16.3859H10.3028Z" stroke="#695A77" stroke-width="1.5"/>
<path d="M9 9.49976V12.9998M9 6.58309V5.99976" stroke="#695A77" stroke-width="1.5" stroke-linecap="square"/>
</g>
<defs>
<clipPath id="clip0_650_2045">
<rect width="18" height="18" fill="white"/>
</clipPath>
</defs>
</svg>
