<svg width="24" height="24" viewBox="0 0 24 24" fill="none" xmlns="http://www.w3.org/2000/svg">
<path d="M17.8458 15.2479L16.5471 13.9492L19.1446 11.3499C21.2974 9.19888 21.5877 6.00079 19.7948 4.20611C18.0001 2.41327 14.8021 2.70351 12.6492 4.85638L10.0536 7.4538L8.75489 6.15509L11.3523 3.55768C14.2234 0.688397 18.5843 0.398162 21.0954 2.90741C23.6065 5.41848 23.3144 9.77935 20.4451 12.6505L17.8477 15.2479H17.8458ZM15.2484 17.8453L12.651 20.4427C9.7799 23.312 5.41903 23.6022 2.90795 21.093C0.396874 18.5819 0.688946 14.221 3.55823 11.3499L6.15564 8.75251L7.45435 10.0512L4.85693 12.6505C2.70406 14.8015 2.41382 17.9996 4.20666 19.7943C6.00134 21.5871 9.19943 21.2969 11.3523 19.144L13.9497 16.5466L15.2484 17.8453ZM15.2484 7.4538L16.5471 8.75251L8.75306 16.5466L7.45435 15.2479L15.2484 7.4538Z" fill="#311255"/>
</svg>
