<svg width="20" height="20" viewBox="0 0 20 20" fill="none" xmlns="http://www.w3.org/2000/svg">
<path d="M14.8715 12.7064L13.7893 11.6241L15.9538 9.45811C17.7479 7.66557 17.9897 5.0005 16.4957 3.50493C15.0001 2.0109 12.335 2.25276 10.541 4.04682L8.378 6.21134L7.29574 5.12908L9.46026 2.96457C11.8529 0.573501 15.4869 0.331639 17.5795 2.42267C19.672 4.51524 19.4286 8.1493 17.0376 10.5419L14.8731 12.7064H14.8715ZM12.707 14.8709L10.5425 17.0354C8.14991 19.4265 4.51586 19.6684 2.42329 17.5773C0.330728 15.4848 0.574121 11.8507 2.96519 9.45811L5.1297 7.29359L6.21196 8.37585L4.04744 10.5419C2.25338 12.3344 2.01152 14.9995 3.50555 16.4951C5.00112 17.9891 7.66619 17.7472 9.46026 15.9532L11.6248 13.7887L12.707 14.8709ZM12.707 6.21134L13.7893 7.29359L7.29421 13.7887L6.21196 12.7064L12.707 6.21134Z" fill="#311255"/>
</svg>
