<!--?xml version="1.0" encoding="UTF-8"?-->
<svg version="1.1" xmlns="http://www.w3.org/2000/svg" width="64" height="64">
  <path
    d="M0 0 C0.61399658 0.56291748 1.22799316 1.12583496 1.8605957 1.70581055 C2.55443359 2.3400293 3.24827148 2.97424805 3.96313477 3.62768555 C7.72986169 7.20866983 11.43349736 10.84547596 15.09887695 14.5300293 C15.86522461 15.29250977 16.63157227 16.05499023 17.42114258 16.84057617 C18.14881836 17.56954102 18.87649414 18.29850586 19.6262207 19.04956055 C20.28227295 19.70674072 20.9383252 20.3639209 21.61425781 21.04101562 C24.39536201 24.05471967 24.33365496 26.52091584 24.48950195 30.54956055 C23.56368378 36.6665735 18.35589543 40.82458277 14.16137695 44.9675293 C13.53231445 45.60432617 12.90325195 46.24112305 12.25512695 46.8972168 C11.64668945 47.50307617 11.03825195 48.10893555 10.41137695 48.7331543 C9.8596582 49.28261719 9.30793945 49.83208008 8.73950195 50.39819336 C5.73100951 52.91333772 2.15227565 53.24282128 -1.6809082 53.18505859 C-4.37175079 52.60201225 -5.53266467 51.5975235 -7.54956055 49.73706055 C-8.58777954 48.78404053 -8.58777954 48.78404053 -9.64697266 47.81176758 C-13.40397766 44.22174988 -17.11125409 40.58906932 -20.77612305 36.9050293 C-21.5424707 36.14254883 -22.30881836 35.38006836 -23.09838867 34.59448242 C-23.82606445 33.86551758 -24.55374023 33.13655273 -25.3034668 32.38549805 C-25.95951904 31.72831787 -26.61557129 31.0711377 -27.29150391 30.39404297 C-30.13484113 27.31290099 -30.10552718 24.69456821 -30.06518555 20.57299805 C-28.89062899 5.76953524 -28.89062899 5.76953524 -24.83862305 1.7175293 C-5.54541513 -3.86802094 -5.54541513 -3.86802094 0 0 Z M-20.83862305 7.7175293 C-22.32898873 13.46608264 -23.68432976 18.79758233 -22.83862305 24.7175293 C-20.93041097 27.81104717 -18.41820384 30.1769019 -15.83862305 32.7175293 C-14.87163484 33.75991554 -13.90833121 34.80572743 -12.94799805 35.85424805 C-11.91290106 36.95578928 -10.87643958 38.05604991 -9.83862305 39.1550293 C-9.35296875 39.68773437 -8.86731445 40.22043945 -8.36694336 40.76928711 C-5.87128245 43.33477997 -3.79805804 44.73246206 -0.43237305 45.97143555 C4.87714932 45.59630625 7.1021197 42.9562449 10.66137695 39.2175293 C11.3059082 38.60393555 11.95043945 37.9903418 12.61450195 37.3581543 C15.57511309 34.34693443 17.04197304 32.58646867 17.6262207 28.3347168 C15.39263192 22.81924156 11.49867589 19.38475296 7.22387695 15.3425293 C6.38663086 14.52397461 5.54938477 13.70541992 4.68676758 12.86206055 C-1.33016955 6.78809924 -1.33016955 6.78809924 -9.5300293 5.54956055 C-13.3951872 5.83078185 -17.09543508 6.74707316 -20.83862305 7.7175293 Z "
    fill="#000000"
    transform="translate(34.838623046875,6.282470703125)"></path>
  <path
    d="M0 0 C2.125 0.375 2.125 0.375 4 1 C4.625 2.875 4.625 2.875 5 5 C4.34 5.66 3.68 6.32 3 7 C0.875 6.625 0.875 6.625 -1 6 C-1.625 4.125 -1.625 4.125 -2 2 C-1.34 1.34 -0.68 0.68 0 0 Z "
    fill="#000000"
    transform="translate(20,18)"></path>
</svg>
